<?xml version="1.0" encoding="UTF-8" ?>
<!DOCTYPE svg PUBLIC "-//W3C//DTD SVG 1.1//EN" "http://www.w3.org/Graphics/SVG/1.1/DTD/svg11.dtd">
<svg width="512pt" height="512pt" viewBox="0 0 512 512" version="1.1" xmlns="http://www.w3.org/2000/svg">
<g id="#28a745ff">
<path fill="#28a745" opacity="1.00" d=" M 398.29 64.31 C 402.34 59.68 406.94 54.98 413.11 53.45 C 421.44 51.12 430.93 53.87 436.65 60.37 C 458.14 84.48 475.62 112.14 488.23 141.86 C 503.05 176.53 510.94 214.04 512.00 251.71 L 512.00 262.26 C 511.44 292.93 506.46 323.54 496.72 352.64 C 484.72 388.90 465.65 422.81 440.90 451.90 C 432.67 461.25 416.83 461.83 407.98 453.05 C 401.19 447.54 396.32 438.99 397.77 430.02 C 398.62 421.21 405.80 415.32 410.61 408.55 C 442.05 367.27 460.02 315.94 461.06 264.06 C 462.60 204.18 441.33 144.08 402.44 98.52 C 399.66 95.20 396.51 92.01 394.88 87.92 C 391.56 80.22 392.90 70.74 398.29 64.31 Z" />
<path fill="#28a745" opacity="1.00" d=" M 224.69 79.87 C 231.78 77.14 240.14 78.23 246.31 82.66 C 252.52 86.96 256.25 94.45 256.14 101.99 C 256.18 204.35 256.14 306.71 256.16 409.07 C 256.13 414.00 256.49 419.13 254.60 423.81 C 251.64 431.96 243.73 437.97 235.10 438.70 C 228.90 439.35 222.57 437.27 217.82 433.28 C 175.52 398.25 133.26 363.19 90.94 328.19 C 68.32 328.19 45.70 328.25 23.08 328.16 C 11.34 328.32 0.87 318.44 0.00 306.79 L 0.00 210.65 C 0.70 198.96 11.17 188.93 22.93 189.05 C 45.61 188.94 68.29 189.03 90.97 189.00 C 131.68 155.33 172.34 121.60 213.02 87.89 C 216.68 84.91 220.17 81.51 224.69 79.87 Z" />
<path fill="#28a745" opacity="1.00" d=" M 333.26 133.27 C 341.13 131.07 350.11 133.29 355.90 139.11 C 382.73 170.31 398.11 210.96 399.33 252.06 C 400.98 294.62 387.45 337.65 361.34 371.34 C 355.46 378.25 345.34 381.08 336.73 378.20 C 330.87 376.46 326.50 371.94 322.59 367.47 C 315.97 359.54 315.80 347.17 322.12 339.00 C 340.22 314.74 349.71 284.25 348.55 254.00 C 347.76 224.82 336.96 196.11 318.52 173.50 C 311.67 165.38 311.50 152.52 318.32 144.34 C 322.41 139.65 327.03 134.89 333.26 133.27 Z" />
</g>
</svg>
