<?xml version="1.0" encoding="UTF-8" ?>
<!DOCTYPE svg PUBLIC "-//W3C//DTD SVG 1.1//EN" "http://www.w3.org/Graphics/SVG/1.1/DTD/svg11.dtd">
<svg width="131pt" height="100pt" viewBox="0 0 131 100" version="1.1" xmlns="http://www.w3.org/2000/svg">
<g id="#ffffffff">
</g>
<g id="#343a40ff">
<path fill="#343a40" opacity="1.00" d=" M 104.69 3.55 C 109.91 2.99 115.26 3.17 120.50 3.45 C 120.75 3.82 121.26 4.57 121.51 4.94 C 119.75 10.65 116.95 16.00 114.74 21.55 C 119.27 21.56 123.80 21.57 128.34 21.58 C 129.84 24.12 127.61 26.33 126.41 28.44 C 122.25 34.92 118.38 41.59 114.15 48.02 C 113.36 49.82 111.19 49.70 110.29 48.04 C 110.59 42.06 111.66 36.15 112.40 30.22 C 107.57 30.13 102.73 30.42 97.90 30.11 C 95.18 29.21 97.02 26.24 97.47 24.37 C 100.00 17.48 101.83 10.31 104.69 3.55 Z" />
<path fill="#343a40" opacity="1.00" d=" M 39.87 23.59 C 42.15 19.66 44.22 15.62 46.63 11.76 C 56.87 11.83 67.12 11.82 77.36 11.77 C 79.73 15.64 81.85 19.65 84.12 23.59 C 87.19 23.60 90.26 23.60 93.34 23.57 C 92.13 26.51 91.47 30.44 94.30 32.69 C 98.08 35.65 103.28 33.89 107.69 34.33 C 107.08 38.90 106.20 43.47 106.20 48.10 C 106.45 52.10 111.47 54.77 114.96 52.87 C 117.34 51.57 118.44 48.95 119.86 46.79 C 119.88 57.54 119.94 68.29 119.84 79.03 C 120.12 82.16 116.58 83.43 114.01 83.14 C 88.11 83.03 62.20 83.28 36.30 83.02 C 45.18 79.06 51.98 70.06 51.72 60.13 C 51.99 58.06 49.60 57.18 47.93 57.73 C 46.40 61.77 46.63 66.39 44.19 70.09 C 40.07 77.15 31.37 80.96 23.37 79.35 C 23.36 77.64 23.36 75.93 23.35 74.21 C 28.80 75.38 35.03 74.10 38.64 69.59 C 42.66 65.06 42.09 58.63 42.18 53.01 C 42.08 47.84 42.58 42.10 39.38 37.67 C 35.92 32.57 29.16 30.70 23.33 32.09 C 23.47 29.21 22.55 25.09 26.04 23.80 C 30.63 23.31 35.26 23.72 39.87 23.59 M 67.43 34.66 C 60.91 36.13 55.38 41.22 53.43 47.62 C 50.85 55.17 53.93 64.08 60.37 68.69 C 66.38 73.25 75.19 73.64 81.58 69.61 C 88.81 65.34 92.53 55.92 89.94 47.89 C 87.35 38.47 76.94 32.35 67.43 34.66 Z" />
<path fill="#343a40" opacity="1.00" d=" M 68.26 44.26 C 75.30 41.10 83.56 48.89 80.92 56.12 C 79.23 62.57 70.34 65.21 65.44 60.68 C 59.86 56.41 61.51 46.41 68.26 44.26 Z" />
</g>
<g id="#28a745ff">
<path fill="#28a745" opacity="1.00" d=" M 23.33 32.09 C 29.16 30.70 35.92 32.57 39.38 37.67 C 42.58 42.10 42.08 47.84 42.18 53.01 C 42.09 58.63 42.66 65.06 38.64 69.59 C 35.03 74.10 28.80 75.38 23.35 74.21 C 17.32 72.78 12.88 67.11 12.58 60.98 C 12.44 55.66 12.38 50.33 12.62 45.01 C 13.04 39.01 17.46 33.56 23.33 32.09 Z" />
<path fill="#28a745" opacity="1.00" d=" M 2.83 59.75 C 3.17 56.76 7.86 57.03 7.60 60.09 C 7.68 69.16 14.48 77.50 23.37 79.35 C 31.37 80.96 40.07 77.15 44.19 70.09 C 46.63 66.39 46.40 61.77 47.93 57.73 C 49.60 57.18 51.99 58.06 51.72 60.13 C 51.98 70.06 45.18 79.06 36.30 83.02 C 34.12 83.64 31.88 84.01 29.67 84.50 C 29.61 88.63 29.89 92.78 29.58 96.91 C 29.52 99.45 25.20 99.40 24.94 96.92 C 24.60 92.79 24.90 88.65 24.84 84.51 C 12.67 83.14 2.47 72.12 2.83 59.75 Z" />
</g>
</svg>
