<?xml version="1.0" encoding="UTF-8" ?>
<!DOCTYPE svg PUBLIC "-//W3C//DTD SVG 1.1//EN" "http://www.w3.org/Graphics/SVG/1.1/DTD/svg11.dtd">
<svg width="512pt" height="512pt" viewBox="0 0 512 512" version="1.1" xmlns="http://www.w3.org/2000/svg">
<g id="#28a745ff">
<path fill="#28a745" opacity="1.00" d=" M 142.42 0.00 L 149.48 0.00 C 173.46 1.00 196.79 12.38 212.05 30.95 C 226.42 48.01 233.65 70.85 231.68 93.08 C 230.38 109.10 224.19 124.54 214.63 137.42 C 210.95 124.27 206.51 111.34 201.25 98.74 C 202.23 91.19 203.21 83.49 201.53 75.93 C 198.70 59.98 188.58 45.55 174.60 37.38 C 161.05 29.27 144.01 27.38 128.98 32.18 C 115.83 36.31 104.34 45.44 97.34 57.31 C 89.22 70.86 87.21 87.91 92.09 102.94 C 96.20 116.18 105.50 127.57 117.41 134.61 C 120.21 146.44 123.33 158.19 126.83 169.83 C 99.97 163.84 76.65 144.13 66.38 118.60 C 58.23 99.17 57.84 76.70 64.98 56.91 C 71.08 39.86 82.75 24.88 97.76 14.77 C 110.89 5.78 126.56 0.78 142.42 0.00 Z" />
<path fill="#28a745" opacity="1.00" d=" M 138.22 85.28 C 144.66 78.18 156.42 76.06 164.57 81.46 C 171.51 85.92 176.03 93.15 179.84 100.28 C 187.71 115.68 192.52 132.39 197.09 149.00 C 203.25 171.32 208.77 193.86 216.23 215.80 C 218.24 221.07 219.67 226.95 224.02 230.86 C 225.44 229.60 226.98 228.23 227.13 226.19 C 228.31 219.33 227.45 211.67 231.70 205.69 C 235.09 200.70 241.26 198.90 246.94 198.16 C 253.12 197.19 259.72 198.50 264.82 202.21 C 268.03 204.34 270.56 207.43 274.04 209.16 C 276.27 210.27 278.56 208.49 279.56 206.56 C 282.18 201.77 283.53 196.32 286.82 191.89 C 292.49 183.91 303.57 179.50 312.97 183.04 C 319.83 185.56 324.78 191.15 330.27 195.70 C 332.18 197.16 334.38 198.96 336.96 198.50 C 341.27 197.53 343.80 193.59 346.63 190.57 C 350.66 186.02 356.92 182.71 363.12 184.04 C 369.84 185.32 376.00 188.63 381.60 192.46 C 393.27 200.68 402.70 211.69 410.61 223.49 C 423.53 242.93 432.43 264.76 439.12 287.04 C 445.27 307.92 450.19 329.23 452.29 350.92 C 454.31 370.59 453.28 390.52 449.34 409.88 C 446.34 425.38 441.72 441.53 446.50 457.19 C 398.52 475.51 350.47 493.66 302.49 512.00 L 302.45 512.00 C 298.06 501.57 289.23 493.75 279.35 488.61 C 262.25 479.66 243.29 474.93 226.23 465.88 C 212.46 458.86 200.79 448.56 188.02 439.98 C 175.91 431.62 162.74 424.69 148.69 420.25 C 128.17 413.69 106.44 411.80 84.99 412.21 C 77.84 412.28 70.01 411.49 64.31 406.72 C 59.46 402.76 57.89 395.95 59.03 389.99 C 60.67 380.14 67.58 372.12 75.46 366.44 C 82.81 361.09 91.95 358.63 100.98 358.61 C 123.19 358.51 144.64 367.48 166.96 365.23 C 175.03 364.44 183.35 362.80 190.23 358.27 C 193.95 355.81 197.22 351.72 196.83 347.02 C 194.64 322.98 186.47 300.10 179.85 277.04 C 167.22 234.69 154.07 192.50 141.96 150.00 C 138.17 135.89 134.27 121.67 133.22 107.04 C 132.85 99.60 133.14 91.25 138.22 85.28 Z" />
</g>
</svg>
