<?xml version="1.0" encoding="UTF-8" ?>
<!DOCTYPE svg PUBLIC "-//W3C//DTD SVG 1.1//EN" "http://www.w3.org/Graphics/SVG/1.1/DTD/svg11.dtd">
<svg width="109pt" height="109pt" viewBox="0 0 109 109" version="1.1" xmlns="http://www.w3.org/2000/svg">
<g id="#ffffffff">
</g>
<g id="#28a745ff">
<path fill="#28a745" opacity="1.00" d=" M 52.88 0.00 L 55.58 0.00 C 58.33 1.22 60.34 3.83 60.04 6.95 C 60.14 21.78 60.02 36.62 60.08 51.46 C 66.32 45.24 72.53 38.99 78.76 32.76 C 80.35 31.08 82.54 29.62 84.98 30.13 C 88.74 30.59 91.13 35.06 89.45 38.46 C 88.01 40.93 85.75 42.75 83.78 44.78 C 75.76 52.75 67.77 60.75 59.80 68.77 C 58.19 70.30 56.41 72.18 53.97 71.93 C 51.55 72.17 49.84 70.27 48.26 68.76 C 39.15 59.56 29.95 50.46 20.80 41.30 C 19.43 39.86 17.91 38.20 18.06 36.05 C 17.87 32.83 20.83 29.95 24.03 30.06 C 26.42 29.95 28.22 31.72 29.82 33.25 C 35.88 39.34 41.92 45.45 48.06 51.45 C 48.10 36.28 48.00 21.10 48.10 5.92 C 47.88 2.99 50.29 0.81 52.88 0.00 Z" />
<path fill="#28a745" opacity="1.00" d=" M 4.20 72.31 C 7.16 71.34 10.76 73.02 11.62 76.07 C 12.85 81.45 11.12 87.09 12.52 92.43 C 13.84 95.86 17.88 96.20 21.03 96.08 C 44.35 95.71 67.71 96.43 91.02 95.83 C 93.83 95.51 96.01 92.85 95.98 90.05 C 96.40 85.45 95.65 80.80 96.33 76.22 C 97.33 72.03 103.41 70.61 106.27 73.76 C 108.68 76.20 107.93 79.91 108.06 83.00 C 107.81 88.01 108.59 93.39 106.16 98.00 C 103.24 104.04 96.78 108.09 90.06 108.02 C 66.02 107.97 41.97 108.02 17.93 108.00 C 8.80 108.12 0.67 100.55 0.00 91.47 L 0.00 76.25 C 1.14 74.72 2.16 72.75 4.20 72.31 Z" />
</g>
</svg>
