<?xml version="1.0" encoding="UTF-8" ?>
<!DOCTYPE svg PUBLIC "-//W3C//DTD SVG 1.1//EN" "http://www.w3.org/Graphics/SVG/1.1/DTD/svg11.dtd">
<svg width="512pt" height="512pt" viewBox="0 0 512 512" version="1.1" xmlns="http://www.w3.org/2000/svg">
<g id="#343a40ff">
<path fill="#343a40" opacity="1.00" d=" M 120.00 0.00 L 184.00 0.00 C 184.04 15.22 183.92 30.44 184.06 45.65 C 195.12 49.50 205.40 55.47 214.33 63.02 C 227.50 55.39 240.62 47.67 253.77 40.01 C 264.42 58.68 275.12 77.32 285.75 96.00 C 272.64 103.43 259.64 111.05 246.44 118.30 C 248.40 130.07 248.60 142.14 246.36 153.89 C 259.51 161.45 272.66 169.00 285.75 176.67 C 275.07 195.10 264.45 213.56 253.75 231.99 C 240.62 224.31 227.49 216.62 214.34 208.98 C 205.37 216.50 195.11 222.49 184.05 226.35 C 183.92 241.57 184.04 256.78 184.00 271.99 C 162.67 272.00 141.33 272.00 120.00 271.99 C 119.95 256.77 120.10 241.54 119.93 226.32 C 108.88 222.38 98.61 216.32 89.74 208.66 C 76.54 216.16 63.43 223.81 50.25 231.36 C 39.58 212.91 28.91 194.46 18.25 176.00 C 31.39 168.63 44.54 161.26 57.66 153.85 C 55.49 142.29 55.47 130.35 57.66 118.79 C 44.53 111.18 31.38 103.60 18.25 96.00 C 28.91 77.33 39.57 58.66 50.25 40.00 C 63.43 47.64 76.53 55.43 89.74 63.01 C 98.64 55.48 108.89 49.49 119.93 45.68 C 120.10 30.46 119.95 15.23 120.00 0.00 M 143.51 88.77 C 128.20 91.40 114.58 102.02 108.28 116.22 C 102.28 129.28 102.64 145.04 109.26 157.81 C 116.02 171.28 129.51 181.08 144.41 183.38 C 157.94 185.59 172.34 181.65 182.79 172.76 C 193.05 164.26 199.45 151.31 199.92 137.99 C 200.69 122.85 193.65 107.62 181.71 98.31 C 171.10 89.89 156.84 86.29 143.51 88.77 Z" />
<path fill="#343a40" opacity="1.00" d=" M 320.00 208.01 C 341.33 208.00 362.66 208.00 383.99 208.00 C 384.01 222.90 383.98 237.80 384.01 252.70 C 400.74 257.82 416.21 266.88 428.88 278.95 C 441.83 271.59 454.68 264.02 467.64 256.68 C 478.27 275.14 488.97 293.56 499.61 312.02 C 486.68 319.35 473.80 326.74 460.89 334.08 C 465.02 351.15 465.03 369.16 460.88 386.22 C 473.77 393.72 486.73 401.11 499.59 408.66 C 488.93 427.10 478.26 445.53 467.62 463.98 C 454.69 456.48 441.82 448.86 428.89 441.36 C 416.19 453.32 400.70 462.24 384.01 467.30 C 383.98 482.20 384.01 497.10 384.00 512.00 L 320.00 512.00 C 319.98 497.08 320.04 482.16 319.97 467.24 C 303.24 462.17 287.81 453.05 275.12 441.04 C 262.22 448.49 249.33 455.95 236.39 463.34 C 225.73 444.89 215.06 426.45 204.41 408.00 C 217.31 400.56 230.19 393.10 243.08 385.63 C 239.08 368.65 238.97 350.76 243.11 333.79 C 230.27 326.20 217.27 318.88 204.41 311.33 C 215.08 292.90 225.74 274.47 236.38 256.02 C 249.33 263.49 262.21 271.09 275.12 278.62 C 287.85 266.73 303.25 257.72 319.97 252.76 C 320.05 237.84 319.97 222.92 320.00 208.01 M 342.50 296.73 C 326.23 299.10 311.09 308.09 301.15 321.17 C 292.26 332.73 287.55 347.42 288.05 362.00 C 288.48 377.16 294.55 392.07 304.83 403.21 C 315.16 414.54 329.69 421.94 344.94 423.58 C 358.74 425.14 373.08 422.11 384.93 414.83 C 398.91 406.47 409.51 392.57 413.74 376.83 C 417.31 363.81 416.58 349.68 411.73 337.09 C 406.08 322.21 394.64 309.62 380.33 302.64 C 368.71 296.88 355.32 294.76 342.50 296.73 Z" />
</g>
<g id="#28a745ff">
<path fill="#28a745" opacity="1.00" d=" M 384.00 0.00 L 416.00 0.00 C 416.00 8.60 415.99 17.21 416.01 25.81 C 430.07 29.05 442.90 36.71 452.86 47.11 C 460.24 42.73 467.70 38.49 475.12 34.17 C 480.46 43.40 485.82 52.61 491.11 61.86 C 483.68 66.20 476.13 70.35 468.79 74.83 C 473.02 88.55 472.95 103.50 468.80 117.23 C 476.18 121.62 483.67 125.83 491.11 130.14 C 485.82 139.39 480.45 148.60 475.12 157.83 C 467.69 153.51 460.23 149.24 452.82 144.88 C 442.91 155.32 430.05 162.92 416.01 166.19 C 415.98 174.79 416.01 183.39 416.00 192.00 C 405.33 192.00 394.67 192.00 384.00 192.00 C 383.98 183.37 384.03 174.75 383.98 166.13 C 369.94 162.93 357.12 155.29 347.20 144.90 C 339.79 149.27 332.34 153.56 324.88 157.83 C 319.55 148.61 314.21 139.40 308.90 130.17 C 316.31 125.80 323.86 121.66 331.20 117.18 C 327.01 103.47 326.99 88.53 331.21 74.82 C 323.86 70.34 316.31 66.20 308.90 61.83 C 314.21 52.60 319.55 43.38 324.88 34.17 C 332.45 38.38 339.80 42.98 347.44 47.05 C 357.10 36.49 370.06 29.09 383.98 25.87 C 384.02 17.25 383.99 8.62 384.00 0.00 M 393.53 64.66 C 386.52 66.07 380.06 69.96 375.48 75.44 C 365.74 86.62 365.56 104.60 375.03 116.00 C 384.32 128.07 402.62 131.61 415.73 123.83 C 429.10 116.61 435.55 99.18 430.03 85.00 C 425.03 70.45 408.55 61.23 393.53 64.66 Z" />
</g>
</svg>
