<?xml version="1.0" encoding="UTF-8" ?>
<!DOCTYPE svg PUBLIC "-//W3C//DTD SVG 1.1//EN" "http://www.w3.org/Graphics/SVG/1.1/DTD/svg11.dtd">
<svg width="204pt" height="189pt" viewBox="0 0 204 189" version="1.1" xmlns="http://www.w3.org/2000/svg">
<g id="#28a745ff">
</g>
<g id="#343a40ff">
<path fill="#343a40" opacity="1.00" d=" M 67.22 17.25 C 86.87 8.24 110.22 7.60 130.37 15.40 C 160.91 26.72 183.31 58.21 182.07 91.03 C 182.81 107.37 177.16 123.58 167.99 136.97 C 157.12 152.77 140.37 164.21 121.89 169.16 C 120.92 161.15 121.75 153.04 121.53 144.99 C 121.78 139.10 120.42 132.78 116.05 128.56 C 124.45 127.02 133.33 125.55 140.24 120.14 C 149.43 113.58 152.90 101.80 153.41 91.01 C 154.09 81.97 151.38 72.49 145.12 65.80 C 147.40 58.51 146.94 50.60 144.09 43.54 C 135.66 43.32 128.25 48.07 121.31 52.30 C 108.19 48.38 93.86 48.44 80.72 52.27 C 73.82 48.02 66.39 43.24 57.96 43.56 C 55.11 50.60 54.65 58.52 56.95 65.79 C 50.77 72.55 47.93 81.94 48.64 91.01 C 49.17 101.82 52.70 113.57 61.88 120.14 C 68.77 125.54 77.62 127.09 86.00 128.60 C 82.89 131.51 81.46 135.59 80.58 139.65 C 75.41 141.72 69.23 142.72 64.16 139.83 C 57.67 136.84 56.19 128.48 49.60 125.56 C 46.81 124.31 42.43 123.09 40.24 125.90 C 43.06 129.03 47.09 130.88 49.36 134.52 C 52.60 138.59 53.24 144.27 57.32 147.74 C 63.43 153.65 72.69 153.90 80.56 152.28 C 80.44 157.82 81.01 163.39 80.27 168.90 C 53.12 162.76 30.56 140.65 22.82 114.02 C 19.59 104.01 19.33 93.39 19.96 82.98 C 22.45 54.71 41.34 28.77 67.22 17.25 Z" />
</g>
<g id="#ffffffff">
<path fill="#ffffff" opacity="1.00" d=" M 56.95 65.79 C 54.65 58.52 55.11 50.60 57.96 43.56 C 66.39 43.24 73.82 48.02 80.72 52.27 C 93.86 48.44 108.19 48.38 121.31 52.30 C 128.25 48.07 135.66 43.32 144.09 43.54 C 146.94 50.60 147.40 58.51 145.12 65.80 C 151.38 72.49 154.09 81.97 153.41 91.01 C 152.90 101.80 149.43 113.58 140.24 120.14 C 133.33 125.55 124.45 127.02 116.05 128.56 C 120.42 132.78 121.78 139.10 121.53 144.99 C 121.75 153.04 120.92 161.15 121.89 169.16 C 112.16 171.72 102.02 171.43 92.06 171.10 C 88.05 170.99 84.15 169.95 80.21 169.32 L 80.27 168.90 C 81.01 163.39 80.44 157.82 80.56 152.28 C 72.69 153.90 63.43 153.65 57.32 147.74 C 53.24 144.27 52.60 138.59 49.36 134.52 C 47.09 130.88 43.06 129.03 40.24 125.90 C 42.43 123.09 46.81 124.31 49.60 125.56 C 56.19 128.48 57.67 136.84 64.16 139.83 C 69.23 142.72 75.41 141.72 80.58 139.65 C 81.46 135.59 82.89 131.51 86.00 128.60 C 77.62 127.09 68.77 125.54 61.88 120.14 C 52.70 113.57 49.17 101.82 48.64 91.01 C 47.93 81.94 50.77 72.55 56.95 65.79 Z" />
</g>
</svg>
