<?xml version="1.0" encoding="UTF-8" ?>
<!DOCTYPE svg PUBLIC "-//W3C//DTD SVG 1.1//EN" "http://www.w3.org/Graphics/SVG/1.1/DTD/svg11.dtd">
<svg width="512pt" height="512pt" viewBox="0 0 512 512" version="1.1" xmlns="http://www.w3.org/2000/svg">
<g id="#28a745ff">
<path fill="#28a745" opacity="1.00" d=" M 249.58 0.00 L 262.42 0.00 C 301.48 1.07 340.34 10.85 374.92 29.15 C 427.56 56.81 470.16 103.23 492.74 158.28 C 504.71 186.86 510.81 217.67 512.00 248.58 L 512.00 262.42 C 510.87 303.67 499.94 344.67 479.69 380.68 C 449.77 434.29 400.12 476.71 342.16 497.19 C 316.61 506.43 289.54 511.11 262.42 512.00 L 249.58 512.00 C 208.84 510.77 168.30 500.24 132.63 480.40 C 75.64 449.09 31.19 395.43 11.83 333.27 C 4.47 310.37 0.79 286.42 0.00 262.41 L 0.00 248.58 C 0.85 229.58 3.01 210.57 8.03 192.19 C 23.47 130.12 63.92 75.12 117.58 40.57 C 156.70 15.13 202.99 1.24 249.58 0.00 M 247.42 101.76 C 235.66 104.16 224.95 111.33 218.36 121.38 C 209.95 134.00 208.52 151.06 215.17 164.76 C 222.24 180.83 239.54 191.52 257.06 190.92 C 274.15 190.78 290.46 179.77 297.16 164.07 C 305.49 146.04 299.78 123.05 284.10 110.90 C 274.01 102.60 260.19 99.48 247.42 101.76 M 191.00 221.00 C 191.00 231.00 191.00 241.00 191.00 251.00 C 197.67 251.00 204.33 251.00 211.00 251.00 C 211.00 291.00 211.00 331.00 211.00 371.00 C 204.00 371.00 197.00 371.00 190.00 371.00 C 190.00 381.00 190.00 391.00 190.00 401.00 C 233.33 401.00 276.67 401.00 320.00 401.00 C 320.00 391.00 320.00 381.00 320.00 371.00 C 313.67 371.00 307.33 371.00 301.00 371.00 C 301.00 321.00 301.00 271.00 301.00 221.00 C 264.33 221.00 227.67 221.00 191.00 221.00 Z" />
</g>
</svg>
