<?xml version="1.0" encoding="UTF-8" ?>
<!DOCTYPE svg PUBLIC "-//W3C//DTD SVG 1.1//EN" "http://www.w3.org/Graphics/SVG/1.1/DTD/svg11.dtd">
<svg width="150pt" height="150pt" viewBox="0 0 150 150" version="1.1" xmlns="http://www.w3.org/2000/svg">
<g id="#ffffffff">
</g>
<g id="#343c40ff">
<path fill="#343c40" opacity="1.00" d=" M 73.20 0.00 L 76.67 0.00 C 94.04 0.48 111.21 7.21 124.10 18.90 C 147.79 39.36 155.87 75.51 143.06 104.10 C 135.87 120.68 122.49 134.54 106.07 142.12 C 88.46 150.41 67.50 151.44 49.19 144.78 C 33.28 139.12 19.49 127.77 10.75 113.33 C 4.33 102.76 0.73 90.60 0.00 78.27 L 0.00 69.48 C 1.31 52.14 8.62 35.22 20.90 22.84 C 34.35 8.64 53.66 0.33 73.20 0.00 M 62.59 14.82 C 41.43 18.82 23.25 34.98 16.57 55.42 C 11.92 69.15 12.70 84.51 18.14 97.89 C 25.10 114.94 40.16 128.50 57.95 133.36 C 71.78 137.37 87.02 136.10 100.06 130.04 C 116.07 122.72 128.60 108.15 133.31 91.18 C 136.65 79.73 136.14 67.36 132.60 56.03 C 127.91 41.31 117.44 28.49 103.83 21.14 C 91.42 14.18 76.51 12.10 62.59 14.82 Z" />
<path fill="#343c40" opacity="1.00" d=" M 67.77 29.21 C 72.31 29.19 76.85 29.22 81.38 29.18 C 81.37 31.88 81.39 34.59 81.43 37.30 C 84.80 37.28 88.16 37.28 91.53 37.24 C 91.57 41.77 91.52 46.29 91.57 50.82 C 84.70 50.87 77.82 50.79 70.95 50.84 C 67.45 50.63 64.13 53.44 63.79 56.93 C 63.55 60.00 63.37 63.71 65.93 65.93 C 68.88 68.81 73.36 67.55 77.05 67.81 C 84.13 67.42 91.31 70.74 95.33 76.63 C 99.29 82.16 99.62 89.44 98.50 95.93 C 96.82 104.11 89.66 110.54 81.43 111.65 C 81.39 114.46 81.38 117.27 81.37 120.09 C 76.84 120.09 72.32 120.09 67.79 120.08 C 67.78 117.34 67.77 114.60 67.77 111.86 C 64.39 111.82 61.01 111.82 57.63 111.86 C 57.61 107.37 57.64 102.88 57.61 98.39 C 64.72 98.32 71.84 98.51 78.94 98.32 C 87.22 97.84 87.99 83.96 80.56 81.62 C 75.42 80.91 70.09 82.12 65.04 80.56 C 57.13 78.55 50.97 71.20 50.32 63.07 C 50.09 58.37 49.84 53.40 51.99 49.06 C 54.85 42.79 61.05 38.43 67.79 37.33 C 67.78 34.62 67.77 31.92 67.77 29.21 Z" />
</g>
</svg>
