<?xml version="1.0" encoding="UTF-8" ?>
<!DOCTYPE svg PUBLIC "-//W3C//DTD SVG 1.1//EN" "http://www.w3.org/Graphics/SVG/1.1/DTD/svg11.dtd">
<svg width="150pt" height="150pt" viewBox="0 0 150 150" version="1.1" xmlns="http://www.w3.org/2000/svg">
<g id="#ffffffff">
</g>
<g id="#28a745ff">
<path fill="#28a745" opacity="1.00" d=" M 71.29 0.00 L 78.14 0.00 C 94.78 0.90 111.11 7.32 123.60 18.39 C 136.48 29.54 145.34 45.22 148.12 62.03 C 150.45 76.63 148.75 91.96 142.51 105.42 C 135.30 121.21 122.47 134.42 106.75 141.85 C 93.59 148.30 78.49 150.25 64.01 148.46 C 46.23 145.94 29.49 136.77 17.88 123.07 C 7.07 110.55 0.81 94.35 0.00 77.86 L 0.00 70.81 C 1.05 53.05 8.34 35.63 20.86 22.92 C 33.88 9.11 52.40 0.94 71.29 0.00 M 65.42 15.68 C 45.54 18.62 27.88 32.42 19.96 50.84 C 13.26 66.12 13.41 84.29 20.47 99.42 C 26.81 113.32 38.70 124.66 53.01 130.10 C 65.78 135.11 80.26 135.50 93.26 131.14 C 108.99 126.10 122.19 114.02 128.92 98.98 C 134.14 87.48 135.49 74.32 132.81 61.99 C 129.03 44.00 116.32 28.20 99.65 20.50 C 89.03 15.53 77.00 14.07 65.42 15.68 Z" />
<path fill="#28a745" opacity="1.00" d=" M 43.32 94.95 C 43.30 82.11 43.31 69.27 43.32 56.43 C 50.57 56.89 58.17 55.33 65.14 57.88 C 70.15 59.67 72.24 66.16 69.75 70.70 C 68.62 72.95 66.23 73.98 64.10 75.05 C 66.82 75.99 69.91 77.10 71.12 79.97 C 73.43 85.33 70.31 91.98 64.80 93.79 C 57.89 96.07 50.46 94.67 43.32 94.95 M 50.49 61.94 C 50.47 65.69 50.47 69.44 50.49 73.20 C 53.85 73.12 57.35 73.52 60.59 72.41 C 64.64 70.95 64.70 64.01 60.61 62.60 C 57.32 61.69 53.86 61.98 50.49 61.94 M 50.49 78.11 C 50.47 81.88 50.47 85.65 50.49 89.42 C 54.20 89.23 58.11 89.98 61.68 88.69 C 65.81 87.08 65.89 80.00 61.51 78.65 C 57.92 77.76 54.16 78.25 50.49 78.11 Z" />
<path fill="#28a745" opacity="1.00" d=" M 79.36 69.32 C 84.28 65.87 91.37 66.83 95.81 70.66 C 94.87 71.67 94.22 73.05 92.99 73.77 C 90.39 73.07 87.82 71.53 85.03 72.22 C 83.29 72.49 82.01 74.22 82.59 75.97 C 85.56 78.97 90.36 78.70 93.57 81.37 C 97.55 84.58 96.01 91.53 91.75 93.80 C 86.53 96.76 79.89 95.51 75.19 92.10 C 76.09 90.93 76.93 89.70 77.92 88.58 C 80.97 89.12 83.66 91.64 86.94 90.61 C 89.31 90.37 90.86 86.85 88.54 85.47 C 85.34 83.46 81.13 83.41 78.28 80.74 C 75.05 77.70 75.75 71.79 79.36 69.32 Z" />
<path fill="#28a745" opacity="1.00" d=" M 101.29 88.23 C 103.85 85.87 108.43 88.42 107.83 91.83 C 107.70 94.83 103.66 96.56 101.39 94.59 C 99.26 93.16 99.22 89.74 101.29 88.23 Z" />
</g>
</svg>
