<?xml version="1.0" encoding="UTF-8" ?>
<!DOCTYPE svg PUBLIC "-//W3C//DTD SVG 1.1//EN" "http://www.w3.org/Graphics/SVG/1.1/DTD/svg11.dtd">
<svg width="512pt" height="512pt" viewBox="0 0 512 512" version="1.1" xmlns="http://www.w3.org/2000/svg">
<g id="#ffffffff">
<path fill="#f8f9fa" opacity="1.00" d=" M 204.90 110.33 C 238.97 110.33 273.03 110.34 307.09 110.33 C 312.46 124.21 317.69 138.13 323.09 152.00 C 323.88 154.46 326.40 156.04 328.95 155.85 C 353.64 155.90 378.33 155.84 403.01 155.88 C 411.16 155.66 418.53 162.90 418.48 171.04 C 418.53 236.02 418.49 301.00 418.50 365.98 C 418.68 372.28 414.70 378.49 408.78 380.74 C 405.35 382.24 401.56 381.83 397.93 381.87 C 301.60 381.86 205.27 381.88 108.94 381.86 C 100.56 382.09 93.10 374.38 93.50 366.03 C 93.51 301.08 93.48 236.13 93.51 171.18 C 93.38 162.99 100.80 155.65 109.00 155.88 C 133.69 155.84 158.38 155.90 183.07 155.85 C 185.64 156.04 188.13 154.41 188.94 151.96 C 194.31 138.10 199.56 124.20 204.90 110.33 M 250.26 170.36 C 223.70 171.91 198.37 186.35 183.30 208.24 C 172.41 223.83 166.74 243.02 167.57 262.04 C 168.24 281.55 175.66 300.73 188.27 315.64 C 201.75 331.79 221.21 342.78 241.98 346.07 C 261.63 349.29 282.32 345.55 299.61 335.69 C 315.75 326.60 328.87 312.28 336.51 295.41 C 344.70 277.58 346.68 257.00 342.02 237.94 C 337.30 218.10 325.44 200.06 309.07 187.88 C 292.39 175.25 271.12 168.99 250.26 170.36 Z" />
<path fill="#f8f9fa" opacity="1.00" d=" M 243.56 193.77 C 256.91 191.19 271.04 192.89 283.41 198.55 C 297.47 204.90 309.13 216.39 315.70 230.35 C 321.85 243.22 323.65 258.13 320.71 272.09 C 317.72 286.80 309.49 300.37 297.85 309.84 C 286.46 319.24 271.82 324.56 257.06 324.78 C 240.86 325.13 224.67 319.14 212.52 308.44 C 201.47 298.85 193.75 285.48 191.06 271.09 C 187.89 254.74 191.23 237.24 200.23 223.22 C 209.80 208.00 225.89 197.10 243.56 193.77 Z" />
</g>
<g id="#343a40ff">
<path fill="#343a40" opacity="1.00" d=" M 249.62 0.00 L 262.44 0.00 C 303.92 1.16 345.20 12.19 381.30 32.75 C 429.46 59.72 468.51 102.71 490.53 153.34 C 503.90 183.43 510.89 216.19 512.00 249.07 L 512.00 263.26 C 510.75 299.99 501.95 336.51 485.54 369.43 C 468.73 403.24 444.46 433.33 414.81 456.72 C 384.76 480.61 349.26 497.65 311.75 505.89 C 295.53 509.63 278.91 511.35 262.31 512.00 L 249.58 512.00 C 208.34 510.85 167.41 499.83 131.41 479.66 C 81.58 451.90 41.49 407.10 19.61 354.41 C 7.45 325.48 1.03 294.28 0.00 262.94 L 0.00 249.55 C 0.95 217.52 7.62 185.62 20.22 156.13 C 41.99 104.52 81.31 60.65 130.05 33.08 C 166.38 12.40 207.86 1.14 249.62 0.00 M 204.90 110.33 C 199.56 124.20 194.31 138.10 188.94 151.96 C 188.13 154.41 185.64 156.04 183.07 155.85 C 158.38 155.90 133.69 155.84 109.00 155.88 C 100.80 155.65 93.38 162.99 93.51 171.18 C 93.48 236.13 93.51 301.08 93.50 366.03 C 93.10 374.38 100.56 382.09 108.94 381.86 C 205.27 381.88 301.60 381.86 397.93 381.87 C 401.56 381.83 405.35 382.24 408.78 380.74 C 414.70 378.49 418.68 372.28 418.50 365.98 C 418.49 301.00 418.53 236.02 418.48 171.04 C 418.53 162.90 411.16 155.66 403.01 155.88 C 378.33 155.84 353.64 155.90 328.95 155.85 C 326.40 156.04 323.88 154.46 323.09 152.00 C 317.69 138.13 312.46 124.21 307.09 110.33 C 273.03 110.34 238.97 110.33 204.90 110.33 Z" />
<path fill="#343a40" opacity="1.00" d=" M 250.26 170.36 C 271.12 168.99 292.39 175.25 309.07 187.88 C 325.44 200.06 337.30 218.10 342.02 237.94 C 346.68 257.00 344.70 277.58 336.51 295.41 C 328.87 312.28 315.75 326.60 299.61 335.69 C 282.32 345.55 261.63 349.29 241.98 346.07 C 221.21 342.78 201.75 331.79 188.27 315.64 C 175.66 300.73 168.24 281.55 167.57 262.04 C 166.74 243.02 172.41 223.83 183.30 208.24 C 198.37 186.35 223.70 171.91 250.26 170.36 M 243.56 193.77 C 225.89 197.10 209.80 208.00 200.23 223.22 C 191.23 237.24 187.89 254.74 191.06 271.09 C 193.75 285.48 201.47 298.85 212.52 308.44 C 224.67 319.14 240.86 325.13 257.06 324.78 C 271.82 324.56 286.46 319.24 297.85 309.84 C 309.49 300.37 317.72 286.80 320.71 272.09 C 323.65 258.13 321.85 243.22 315.70 230.35 C 309.13 216.39 297.47 204.90 283.41 198.55 C 271.04 192.89 256.91 191.19 243.56 193.77 Z" />
</g>
</svg>
