<?xml version="1.0" encoding="UTF-8" ?>
<!DOCTYPE svg PUBLIC "-//W3C//DTD SVG 1.1//EN" "http://www.w3.org/Graphics/SVG/1.1/DTD/svg11.dtd">
<svg width="512pt" height="512pt" viewBox="0 0 512 512" version="1.1" xmlns="http://www.w3.org/2000/svg">
<g id="#ffffffff">
<path fill="#f8f9fa" opacity="1.00" d=" M 307.35 68.32 C 311.29 62.38 318.94 59.21 325.93 60.66 C 332.13 61.79 337.46 66.39 339.62 72.29 C 349.34 96.92 359.13 121.52 368.80 146.16 C 372.29 155.02 367.41 165.94 358.53 169.31 C 333.89 179.09 309.24 188.84 284.58 198.56 C 278.55 201.02 271.27 199.82 266.28 195.67 C 261.42 191.74 258.82 185.20 259.78 179.02 C 260.65 172.54 265.26 166.75 271.40 164.49 C 285.53 158.88 299.67 153.31 313.79 147.69 C 291.62 135.87 265.79 131.08 240.85 134.21 C 209.71 137.91 180.42 154.31 160.73 178.68 C 142.61 200.79 132.66 229.42 133.28 258.01 C 133.55 281.18 140.67 304.19 153.49 323.48 C 168.58 346.65 191.82 364.33 218.15 372.76 C 242.54 380.64 269.43 380.75 293.80 372.75 C 322.43 363.58 347.26 343.35 362.23 317.32 C 373.02 298.83 378.67 277.45 378.72 256.06 C 378.55 247.75 384.77 239.92 392.90 238.20 C 404.24 235.11 416.31 245.30 415.30 256.97 C 415.15 286.70 406.46 316.33 390.41 341.37 C 378.03 360.83 361.39 377.55 341.99 390.02 C 317.66 405.78 288.91 414.57 259.94 415.23 C 228.79 416.10 197.44 407.53 171.09 390.90 C 145.31 374.73 124.36 350.96 111.61 323.34 C 98.67 295.65 94.01 264.19 98.23 233.93 C 102.34 203.89 115.41 175.18 135.23 152.24 C 157.27 126.54 187.67 108.06 220.73 100.67 C 251.70 93.56 284.77 96.10 314.34 107.71 C 311.41 100.29 308.43 92.89 305.51 85.46 C 303.20 79.91 303.92 73.26 307.35 68.32 Z" />
</g>
<g id="#28a745ff">
<path fill="#28a745" opacity="1.00" d=" M 249.77 0.00 L 262.36 0.00 C 300.41 1.06 338.26 10.43 372.11 27.92 C 423.97 54.28 466.27 98.87 489.91 152.02 C 503.63 182.55 510.92 215.82 512.00 249.24 L 512.00 262.33 C 510.94 299.39 502.01 336.24 485.45 369.44 C 468.19 404.07 443.09 434.79 412.45 458.43 C 382.44 481.74 347.18 498.30 310.01 506.25 C 294.29 509.73 278.22 511.40 262.14 512.00 L 248.82 512.00 C 207.61 510.65 166.70 499.57 130.81 479.20 C 82.90 452.25 43.95 409.62 21.82 359.26 C 8.10 328.77 0.96 295.47 0.00 262.08 L 0.00 250.47 C 0.81 217.66 7.75 184.98 20.84 154.85 C 43.75 101.60 85.33 56.62 136.64 29.63 C 171.35 11.06 210.46 1.09 249.77 0.00 M 307.35 68.32 C 303.92 73.26 303.20 79.91 305.51 85.46 C 308.43 92.89 311.41 100.29 314.34 107.71 C 284.77 96.10 251.70 93.56 220.73 100.67 C 187.67 108.06 157.27 126.54 135.23 152.24 C 115.41 175.18 102.34 203.89 98.23 233.93 C 94.01 264.19 98.67 295.65 111.61 323.34 C 124.36 350.96 145.31 374.73 171.09 390.90 C 197.44 407.53 228.79 416.10 259.94 415.23 C 288.91 414.57 317.66 405.78 341.99 390.02 C 361.39 377.55 378.03 360.83 390.41 341.37 C 406.46 316.33 415.15 286.70 415.30 256.97 C 416.31 245.30 404.24 235.11 392.90 238.20 C 384.77 239.92 378.55 247.75 378.72 256.06 C 378.67 277.45 373.02 298.83 362.23 317.32 C 347.26 343.35 322.43 363.58 293.80 372.75 C 269.43 380.75 242.54 380.64 218.15 372.76 C 191.82 364.33 168.58 346.65 153.49 323.48 C 140.67 304.19 133.55 281.18 133.28 258.01 C 132.66 229.42 142.61 200.79 160.73 178.68 C 180.42 154.31 209.71 137.91 240.85 134.21 C 265.79 131.08 291.62 135.87 313.79 147.69 C 299.67 153.31 285.53 158.88 271.40 164.49 C 265.26 166.75 260.65 172.54 259.78 179.02 C 258.82 185.20 261.42 191.74 266.28 195.67 C 271.27 199.82 278.55 201.02 284.58 198.56 C 309.24 188.84 333.89 179.09 358.53 169.31 C 367.41 165.94 372.29 155.02 368.80 146.16 C 359.13 121.52 349.34 96.92 339.62 72.29 C 337.46 66.39 332.13 61.79 325.93 60.66 C 318.94 59.21 311.29 62.38 307.35 68.32 Z" />
</g>
</svg>
