<?xml version="1.0" encoding="UTF-8" ?>
<!DOCTYPE svg PUBLIC "-//W3C//DTD SVG 1.1//EN" "http://www.w3.org/Graphics/SVG/1.1/DTD/svg11.dtd">
<svg width="512pt" height="512pt" viewBox="0 0 512 512" version="1.1" xmlns="http://www.w3.org/2000/svg">
<g id="#ffffffff">
<path fill="#f8f9fa" opacity="1.00" d=" M 247.55 101.84 C 259.59 99.48 272.57 102.33 282.44 109.64 C 292.23 116.72 298.97 127.89 300.54 139.89 C 302.21 151.70 298.90 164.11 291.54 173.50 C 284.04 183.27 272.37 189.76 260.08 190.77 C 244.61 192.32 228.68 185.05 219.64 172.42 C 210.73 160.42 208.55 143.86 214.00 129.95 C 219.37 115.64 232.51 104.60 247.55 101.84 Z" />
<path fill="#f8f9fa" opacity="1.00" d=" M 191.00 221.00 C 227.67 221.00 264.33 221.00 301.00 221.00 C 301.01 271.00 300.99 321.00 301.00 371.00 C 307.33 371.01 313.66 370.99 320.00 371.00 C 320.00 381.00 320.00 391.00 320.00 401.00 C 276.67 401.00 233.33 401.00 190.00 401.00 C 190.00 391.00 190.00 381.00 190.00 371.00 C 197.00 370.99 204.00 371.01 211.00 371.00 C 211.00 331.00 211.00 291.00 211.00 251.00 C 204.33 250.99 197.67 251.01 191.00 251.00 C 191.00 241.00 191.00 231.00 191.00 221.00 Z" />
</g>
<g id="#dc3545ff">
<path fill="#dc3545" opacity="1.00" d=" M 253.30 0.00 L 263.52 0.00 C 295.95 1.17 328.24 8.00 358.00 21.04 C 413.71 45.14 460.15 89.82 486.56 144.45 C 502.49 177.13 510.93 213.26 512.00 249.56 L 512.00 263.50 C 510.67 301.43 501.36 339.15 483.87 372.90 C 454.30 430.58 402.15 476.38 340.86 497.66 C 315.73 506.55 289.17 511.11 262.55 512.00 L 249.42 512.00 C 210.23 510.84 171.23 500.99 136.59 482.53 C 84.15 454.90 41.77 408.55 19.24 353.70 C 7.33 325.10 1.09 294.29 0.00 263.37 L 0.00 248.45 C 1.06 219.63 6.52 190.92 16.95 164.00 C 37.54 110.14 77.14 63.95 126.86 34.86 C 164.99 12.41 209.08 0.41 253.30 0.00 M 247.55 101.84 C 232.51 104.60 219.37 115.64 214.00 129.95 C 208.55 143.86 210.73 160.42 219.64 172.42 C 228.68 185.05 244.61 192.32 260.08 190.77 C 272.37 189.76 284.04 183.27 291.54 173.50 C 298.90 164.11 302.21 151.70 300.54 139.89 C 298.97 127.89 292.23 116.72 282.44 109.64 C 272.57 102.33 259.59 99.48 247.55 101.84 M 191.00 221.00 C 191.00 231.00 191.00 241.00 191.00 251.00 C 197.67 251.01 204.33 250.99 211.00 251.00 C 211.00 291.00 211.00 331.00 211.00 371.00 C 204.00 371.01 197.00 370.99 190.00 371.00 C 190.00 381.00 190.00 391.00 190.00 401.00 C 233.33 401.00 276.67 401.00 320.00 401.00 C 320.00 391.00 320.00 381.00 320.00 371.00 C 313.66 370.99 307.33 371.01 301.00 371.00 C 300.99 321.00 301.01 271.00 301.00 221.00 C 264.33 221.00 227.67 221.00 191.00 221.00 Z" />
</g>
</svg>
