<?xml version="1.0" encoding="UTF-8" ?>
<!DOCTYPE svg PUBLIC "-//W3C//DTD SVG 1.1//EN" "http://www.w3.org/Graphics/SVG/1.1/DTD/svg11.dtd">
<svg width="256pt" height="256pt" viewBox="0 0 256 256" version="1.1" xmlns="http://www.w3.org/2000/svg">
<g id="#f8f9faff">
<path fill="#f8f9fa" opacity="1.00" d=" M 102.49 24.99 C 102.62 13.77 111.13 3.42 122.04 0.96 C 131.48 -1.40 142.06 2.24 148.01 9.94 C 151.61 14.44 153.55 20.19 153.54 25.94 C 153.57 51.45 153.54 76.96 153.55 102.47 C 179.07 102.47 204.59 102.46 230.11 102.47 C 239.74 102.31 249.10 108.16 253.19 116.87 C 258.07 126.62 255.71 139.31 247.64 146.64 C 242.69 151.34 235.81 153.78 229.01 153.54 C 203.86 153.52 178.70 153.53 153.55 153.53 C 153.54 179.02 153.57 204.50 153.54 229.98 C 153.60 236.94 150.70 243.85 145.65 248.64 C 139.77 254.36 131.03 256.90 123.00 255.23 C 110.93 253.06 101.72 241.26 102.45 229.02 C 102.45 203.86 102.45 178.70 102.45 153.53 C 76.64 153.51 50.82 153.57 25.01 153.51 C 11.67 153.44 -0.07 141.36 0.27 128.01 C -0.09 114.67 11.63 102.56 24.98 102.49 C 50.80 102.43 76.62 102.49 102.45 102.47 C 102.48 76.64 102.40 50.81 102.49 24.99 Z" />
</g>
</svg>
