<?xml version="1.0" encoding="UTF-8" ?>
<!DOCTYPE svg PUBLIC "-//W3C//DTD SVG 1.1//EN" "http://www.w3.org/Graphics/SVG/1.1/DTD/svg11.dtd">
<svg width="256pt" height="256pt" viewBox="0 0 256 256" version="1.1" xmlns="http://www.w3.org/2000/svg">
<g id="#f8f9faff">
<path fill="#f8f9fa" opacity="1.00" d=" M 71.47 21.53 C 79.07 20.60 87.04 23.09 92.67 28.31 C 98.16 33.29 101.35 40.63 101.32 48.04 C 101.36 101.02 101.32 154.01 101.34 206.99 C 101.60 215.19 97.99 223.42 91.61 228.60 C 83.85 235.10 72.29 236.50 63.19 232.07 C 54.07 227.82 47.87 218.07 48.01 207.99 C 47.98 156.33 48.02 104.67 48.00 53.01 C 47.99 48.74 47.82 44.37 49.15 40.25 C 52.02 30.33 61.19 22.63 71.47 21.53 Z" />
<path fill="#f8f9fa" opacity="1.00" d=" M 178.46 21.50 C 188.95 20.23 199.84 25.90 204.76 35.26 C 207.24 39.73 208.16 44.91 208.01 49.98 C 207.98 102.67 208.03 155.36 207.98 208.04 C 208.03 217.03 203.18 225.87 195.52 230.58 C 187.75 235.53 177.40 235.98 169.22 231.76 C 160.41 227.37 154.53 217.78 154.68 207.92 C 154.68 154.30 154.62 100.69 154.71 47.07 C 154.83 34.19 165.63 22.59 178.46 21.50 Z" />
</g>
</svg>
