<?xml version="1.0" encoding="UTF-8" ?>
<!DOCTYPE svg PUBLIC "-//W3C//DTD SVG 1.1//EN" "http://www.w3.org/Graphics/SVG/1.1/DTD/svg11.dtd">
<svg width="450pt" height="450pt" viewBox="0 0 450 450" version="1.1" xmlns="http://www.w3.org/2000/svg">
<g id="#fefefeff">
<path fill="#fefefe" opacity="1.00" d=" M 0.00 0.00 L 450.00 0.00 L 450.00 450.00 L 0.00 450.00 L 0.00 0.00 M 202.88 38.30 C 200.97 44.50 201.60 51.11 201.59 57.51 C 202.13 60.20 205.49 59.47 207.50 59.52 C 207.46 53.38 207.93 47.13 206.88 41.06 C 206.73 38.99 204.44 38.77 202.88 38.30 M 179.19 55.02 C 181.90 59.21 186.26 61.82 189.94 65.04 C 191.17 64.21 192.41 63.37 193.62 62.49 C 191.37 58.49 188.26 54.87 184.37 52.40 C 182.11 51.30 180.59 53.67 179.19 55.02 M 224.28 63.36 C 223.00 64.69 224.14 66.51 225.34 67.39 C 227.20 69.03 229.19 66.82 230.74 65.80 C 233.58 63.53 237.34 59.78 234.23 56.12 C 230.09 56.98 226.70 60.02 224.28 63.36 M 198.39 63.53 C 194.03 64.78 189.06 66.98 187.71 71.74 C 185.96 76.87 185.78 83.22 189.52 87.55 C 192.95 92.03 199.21 91.71 203.88 94.07 C 204.90 95.94 205.07 98.12 205.54 100.16 C 207.83 112.34 210.74 124.41 212.44 136.70 C 205.63 135.90 198.94 134.04 192.04 134.27 C 184.18 134.05 176.60 136.38 169.13 138.49 C 160.83 140.98 152.50 143.38 144.38 146.43 C 142.79 147.10 140.74 148.03 140.60 150.01 C 139.92 156.32 141.04 162.64 141.57 168.92 C 142.28 175.75 143.13 182.56 143.90 189.38 C 137.73 192.71 130.67 195.65 126.74 201.77 C 123.74 206.40 125.56 214.82 131.98 214.92 C 138.78 214.34 142.19 207.33 146.05 202.58 C 146.43 210.63 147.96 218.55 148.86 226.55 C 149.40 229.78 149.63 233.10 150.70 236.22 C 151.10 238.24 153.47 238.30 155.05 238.85 C 167.17 241.66 179.69 241.67 192.06 242.09 C 221.46 242.08 251.12 239.98 279.63 232.39 C 283.68 231.18 288.06 230.09 291.22 227.10 C 294.01 223.90 293.61 219.30 294.29 215.37 C 297.60 213.46 300.90 211.27 303.08 208.04 C 307.20 202.02 308.40 194.67 311.19 188.04 C 314.66 187.94 318.36 189.87 321.66 188.39 C 324.67 185.59 323.18 180.90 321.01 178.05 C 315.20 171.07 306.60 167.29 298.16 164.52 C 297.21 158.91 298.78 153.33 298.67 147.71 C 294.73 145.66 290.24 145.39 285.92 144.79 C 263.88 142.25 241.72 140.67 219.79 137.27 C 217.17 124.29 215.26 111.16 211.83 98.36 C 216.11 97.40 220.85 96.27 223.67 92.62 C 226.19 89.28 225.55 84.87 225.48 80.97 C 225.05 68.18 210.02 59.41 198.39 63.53 M 171.54 66.56 C 169.02 67.35 168.71 70.70 170.70 72.25 C 173.73 75.58 180.01 79.21 183.73 75.02 C 182.62 72.03 179.37 70.75 177.00 68.93 C 175.28 68.04 173.56 66.37 171.54 66.56 M 231.80 76.94 C 229.31 77.97 228.09 80.48 228.83 83.06 C 231.48 83.78 234.45 84.15 236.90 82.62 C 238.92 81.54 241.48 79.31 240.33 76.78 C 238.12 73.95 234.42 75.90 231.80 76.94 M 99.55 270.43 C 89.75 274.12 88.76 287.58 93.22 295.71 C 98.58 303.67 109.15 303.86 116.98 308.00 C 121.38 310.12 121.30 318.30 116.12 319.20 C 108.18 320.18 100.20 318.94 92.27 318.57 C 92.02 322.16 91.76 325.76 92.00 329.37 C 101.65 329.95 111.34 331.27 121.00 330.17 C 125.93 329.60 131.05 326.84 132.72 321.90 C 135.17 314.99 134.71 306.14 129.18 300.81 C 124.35 296.54 117.94 294.90 112.07 292.62 C 109.42 291.54 106.42 290.63 104.65 288.22 C 103.81 286.15 104.50 283.90 104.76 281.78 C 106.42 281.08 108.11 280.27 109.97 280.34 C 116.39 280.18 122.81 280.79 129.23 280.71 C 130.49 277.35 131.56 273.93 132.78 270.56 C 121.78 269.71 110.39 267.24 99.55 270.43 M 136.47 270.37 C 136.48 273.80 136.39 277.23 136.29 280.66 C 142.19 280.69 148.08 280.72 153.98 280.78 C 154.36 297.01 154.14 313.26 154.13 329.49 C 158.59 329.36 163.05 329.49 167.51 329.61 C 167.55 313.34 167.35 297.06 167.43 280.78 C 173.23 280.79 179.02 280.85 184.82 280.89 C 184.81 277.32 184.82 273.75 184.79 270.18 C 168.69 270.11 152.58 270.01 136.47 270.37 M 192.19 274.23 C 189.77 276.85 189.78 280.63 189.75 283.98 C 189.83 293.33 189.83 302.67 189.63 312.02 C 189.64 316.41 189.07 321.33 191.92 325.05 C 194.36 328.42 198.70 329.44 202.64 329.50 C 211.70 329.71 220.76 329.61 229.82 329.59 C 229.77 326.10 229.80 322.61 229.78 319.12 C 221.05 318.89 212.26 319.76 203.58 318.58 C 202.91 313.60 203.14 308.56 203.22 303.55 C 210.89 303.34 218.56 303.56 226.23 303.31 C 226.24 300.04 226.26 296.77 226.26 293.49 C 218.64 293.36 211.03 293.66 203.41 293.57 C 203.26 289.42 203.26 285.27 203.41 281.12 C 212.18 280.27 221.00 281.12 229.78 280.67 C 230.25 277.30 230.45 273.90 230.66 270.51 C 221.74 270.31 212.82 270.28 203.90 270.34 C 199.78 270.45 195.05 270.87 192.19 274.23 M 249.98 271.66 C 246.40 279.15 244.77 287.35 242.18 295.20 C 238.41 306.55 235.50 318.19 231.30 329.39 C 235.91 329.44 240.52 329.38 245.13 329.42 C 246.40 324.17 247.84 318.97 249.49 313.83 C 256.07 313.98 262.65 313.73 269.22 314.20 C 270.65 319.24 272.03 324.30 273.43 329.35 C 277.89 329.28 282.36 329.38 286.83 329.45 C 281.44 312.03 276.30 294.53 271.05 277.07 C 270.16 274.56 269.53 270.64 266.14 270.63 C 260.78 270.23 255.08 269.58 249.98 271.66 M 296.43 270.65 C 293.48 271.18 292.23 274.17 292.28 276.89 C 291.13 294.41 290.77 311.97 289.78 329.50 C 293.91 329.38 298.05 329.37 302.18 329.58 C 303.51 312.91 303.27 296.14 304.87 279.49 C 309.12 293.02 310.92 307.24 315.46 320.71 C 320.82 320.78 326.26 321.23 331.59 320.50 C 332.83 319.33 333.35 317.62 333.88 316.05 C 337.26 303.93 339.12 291.41 343.08 279.45 C 343.59 281.92 343.73 284.45 343.82 286.97 C 344.53 301.10 345.31 315.23 345.63 329.38 C 349.85 329.36 354.08 329.36 358.30 329.36 C 357.41 312.20 356.74 295.03 355.70 277.88 C 355.73 274.98 354.86 271.29 351.50 270.68 C 346.58 269.92 341.44 269.89 336.54 270.81 C 334.12 271.18 333.49 273.77 332.81 275.75 C 329.51 288.25 326.73 300.88 324.18 313.55 C 321.86 305.46 320.42 297.13 318.24 289.00 C 316.72 283.12 315.86 277.03 313.39 271.44 C 307.91 269.87 302.03 269.84 296.43 270.65 M 112.17 340.51 C 115.42 351.56 119.03 362.54 122.98 373.37 C 124.60 373.44 126.23 373.48 127.85 373.48 C 131.98 362.64 135.61 351.58 138.95 340.47 C 138.25 340.63 136.85 340.94 136.15 341.10 C 131.83 350.84 129.53 361.37 125.33 371.15 C 121.62 361.42 119.16 351.23 115.33 341.54 C 114.54 341.28 112.96 340.76 112.17 340.51 M 153.26 340.78 C 153.16 351.65 153.22 362.52 153.36 373.39 C 154.12 373.39 155.63 373.38 156.38 373.38 C 156.43 362.68 156.23 351.99 156.27 341.30 C 155.52 341.17 154.01 340.91 153.26 340.78 M 174.68 340.90 C 174.76 351.65 174.62 362.41 174.73 373.17 C 175.68 373.17 176.63 373.18 177.59 373.19 C 177.66 368.70 177.61 364.22 177.65 359.74 C 181.09 359.95 184.83 359.34 188.04 360.86 C 192.15 363.40 191.48 368.86 192.33 372.97 C 193.09 373.06 194.60 373.25 195.36 373.34 C 194.86 368.21 195.02 361.42 189.32 359.10 C 191.19 358.23 193.69 357.78 194.38 355.52 C 195.92 350.76 195.32 343.86 190.09 341.64 C 185.15 339.94 179.79 340.81 174.68 340.90 M 208.26 340.80 C 208.32 341.54 208.45 343.02 208.52 343.77 C 212.10 343.70 215.68 343.73 219.26 343.64 C 219.29 353.38 219.19 363.14 219.46 372.88 C 220.16 373.07 221.55 373.46 222.24 373.65 C 222.48 363.66 222.22 353.67 222.34 343.68 C 226.16 343.68 229.98 343.68 233.80 343.65 C 233.80 342.94 233.79 341.52 233.79 340.80 C 225.28 340.75 216.77 340.82 208.26 340.80 M 247.71 340.67 C 247.73 348.45 247.43 356.25 247.89 364.02 C 248.04 368.62 251.52 372.73 256.05 373.57 C 259.50 374.07 263.33 374.26 266.48 372.51 C 269.39 370.78 270.65 367.31 270.68 364.07 C 270.84 356.42 270.72 348.78 270.63 341.14 C 269.91 341.11 268.48 341.06 267.77 341.03 C 267.57 348.29 267.81 355.56 267.65 362.83 C 267.58 365.12 267.21 367.72 265.28 369.24 C 262.03 371.76 257.08 371.66 253.89 369.09 C 251.51 367.14 250.90 363.91 250.85 360.99 C 250.76 354.36 250.92 347.72 250.70 341.09 C 249.95 340.98 248.46 340.77 247.71 340.67 M 291.50 354.47 C 289.46 360.86 287.08 367.15 285.47 373.66 C 286.18 373.55 287.60 373.31 288.31 373.19 C 289.85 369.77 290.92 366.14 292.24 362.63 C 296.72 362.54 301.19 362.77 305.67 362.89 C 307.11 366.27 308.01 369.85 309.52 373.20 C 310.24 373.27 311.69 373.41 312.41 373.48 C 308.97 363.06 305.67 352.55 301.46 342.41 C 300.91 340.18 298.81 340.24 296.99 340.80 C 294.53 345.07 293.21 349.87 291.50 354.47 M 326.74 341.13 C 326.88 350.41 326.75 359.69 326.87 368.97 C 327.05 370.39 326.94 372.73 328.87 372.91 C 334.57 373.89 340.42 373.21 346.19 373.40 C 346.19 372.71 346.20 371.33 346.20 370.64 C 340.85 370.42 335.48 370.76 330.14 370.28 C 329.52 360.57 330.15 350.83 329.80 341.10 C 329.03 341.11 327.50 341.12 326.74 341.13 Z" />
<path fill="#fefefe" opacity="1.00" d=" M 204.73 39.49 C 205.99 45.77 205.82 52.29 205.45 58.65 C 204.83 57.51 203.56 56.52 203.78 55.07 C 203.82 49.87 203.49 44.59 204.73 39.49 Z" />
<path fill="#fefefe" opacity="1.00" d=" M 180.77 54.66 C 184.23 54.42 186.83 56.60 189.08 58.88 C 189.86 59.84 190.67 60.79 191.52 61.69 C 190.92 61.65 189.73 61.57 189.13 61.53 C 186.68 58.83 183.28 57.28 180.77 54.66 Z" />
<path fill="#fefefe" opacity="1.00" d=" M 230.19 62.04 C 230.54 61.56 230.54 61.56 230.19 62.04 Z" />
<path fill="#fefefe" opacity="1.00" d=" M 227.99 64.41 C 228.59 63.43 229.32 62.64 230.19 62.04 C 230.92 63.60 229.48 65.30 228.05 65.80 L 227.53 65.67 C 227.65 65.35 227.88 64.72 227.99 64.41 Z" />
<path fill="#fefefe" opacity="1.00" d=" M 170.70 68.98 C 174.82 69.60 177.57 73.28 181.68 74.14 C 181.27 74.51 180.45 75.24 180.04 75.61 C 176.40 74.32 172.92 72.22 170.70 68.98 Z" />
<path fill="#fefefe" opacity="1.00" d=" M 230.49 79.89 C 232.87 77.68 235.94 76.88 239.14 77.43 C 238.88 80.12 236.48 81.31 234.35 82.40 C 232.98 81.94 231.60 81.53 230.22 81.15 C 230.29 80.83 230.43 80.20 230.49 79.89 M 232.06 80.57 C 232.99 80.55 234.87 80.51 235.80 80.49 C 236.55 79.56 237.30 78.61 238.03 77.66 C 235.84 78.18 233.94 79.39 232.06 80.57 Z" />
<path fill="#fefefe" opacity="1.00" d=" M 206.97 162.90 C 214.88 162.74 223.57 162.89 230.35 167.50 C 236.30 172.15 234.57 180.44 233.93 186.96 C 232.67 194.05 230.25 201.95 224.21 206.41 C 217.96 208.00 211.37 207.40 204.97 207.73 C 198.88 207.59 191.23 208.27 187.15 202.72 C 181.12 194.38 179.54 183.83 177.89 173.92 C 176.79 170.32 180.32 168.10 183.18 167.10 C 190.80 164.38 198.95 163.52 206.97 162.90 Z" />
<path fill="#fefefe" opacity="1.00" d=" M 267.51 168.74 C 276.98 166.07 286.98 168.42 295.88 172.00 C 299.49 173.62 303.59 175.35 305.55 179.02 C 307.17 185.71 302.64 191.65 300.37 197.61 C 297.97 202.54 296.33 209.68 289.93 210.59 C 282.23 211.19 274.09 211.29 266.82 208.34 C 262.81 206.80 260.51 202.83 259.41 198.88 C 257.22 191.84 258.06 184.33 258.71 177.12 C 259.16 172.56 263.39 169.72 267.51 168.74 Z" />
<path fill="#fefefe" opacity="1.00" d=" M 259.29 278.10 C 262.00 286.50 264.05 295.12 266.10 303.71 C 261.63 303.96 257.15 304.40 252.69 303.92 C 254.20 295.14 257.19 286.73 259.29 278.10 Z" />
<path fill="#fefefe" opacity="1.00" d=" M 177.81 343.44 C 181.80 343.62 186.46 342.46 189.86 345.11 C 192.48 347.90 192.93 353.38 189.87 355.98 C 186.01 357.46 181.73 356.62 177.69 356.82 C 177.62 352.36 177.69 347.90 177.81 343.44 Z" />
<path fill="#fefefe" opacity="1.00" d=" M 292.67 359.85 C 294.78 354.22 296.74 348.54 298.72 342.87 C 300.78 348.58 302.89 354.27 304.83 360.03 C 300.78 359.77 296.72 359.79 292.67 359.85 Z" />
</g>
<g id="#040605ff">
<path fill="#040605" opacity="1.00" d=" M 202.88 38.30 C 204.44 38.77 206.73 38.99 206.88 41.06 C 207.93 47.13 207.46 53.38 207.50 59.52 C 205.49 59.47 202.13 60.20 201.59 57.51 C 201.60 51.11 200.97 44.50 202.88 38.30 M 204.73 39.49 C 203.49 44.59 203.82 49.87 203.78 55.07 C 203.56 56.52 204.83 57.51 205.45 58.65 C 205.82 52.29 205.99 45.77 204.73 39.49 Z" />
<path fill="#040605" opacity="1.00" d=" M 179.19 55.02 C 180.59 53.67 182.11 51.30 184.37 52.40 C 188.26 54.87 191.37 58.49 193.62 62.49 C 192.41 63.37 191.17 64.21 189.94 65.04 C 186.26 61.82 181.90 59.21 179.19 55.02 M 180.77 54.66 C 183.28 57.28 186.68 58.83 189.13 61.53 C 189.73 61.57 190.92 61.65 191.52 61.69 C 190.67 60.79 189.86 59.84 189.08 58.88 C 186.83 56.60 184.23 54.42 180.77 54.66 Z" />
<path fill="#040605" opacity="1.00" d=" M 224.28 63.36 C 226.70 60.02 230.09 56.98 234.23 56.12 C 237.34 59.78 233.58 63.53 230.74 65.80 C 229.19 66.82 227.20 69.03 225.34 67.39 C 224.14 66.51 223.00 64.69 224.28 63.36 M 230.19 62.04 C 230.54 61.56 230.54 61.56 230.19 62.04 M 227.99 64.41 C 227.88 64.72 227.65 65.35 227.53 65.67 L 228.05 65.80 C 229.48 65.30 230.92 63.60 230.19 62.04 C 229.32 62.64 228.59 63.43 227.99 64.41 Z" />
<path fill="#040605" opacity="1.00" d=" M 198.39 63.53 C 210.02 59.41 225.05 68.18 225.48 80.97 C 225.55 84.87 226.19 89.28 223.67 92.62 C 220.85 96.27 216.11 97.40 211.83 98.36 C 215.26 111.16 217.17 124.29 219.79 137.27 C 241.72 140.67 263.88 142.25 285.92 144.79 C 290.24 145.39 294.73 145.66 298.67 147.71 C 298.78 153.33 297.21 158.91 298.16 164.52 C 306.60 167.29 315.20 171.07 321.01 178.05 C 323.18 180.90 324.67 185.59 321.66 188.39 C 318.36 189.87 314.66 187.94 311.19 188.04 C 308.40 194.67 307.20 202.02 303.08 208.04 C 300.90 211.27 297.60 213.46 294.29 215.37 C 293.61 219.30 294.01 223.90 291.22 227.10 C 288.06 230.09 283.68 231.18 279.63 232.39 C 251.12 239.98 221.46 242.08 192.06 242.09 C 179.69 241.67 167.17 241.66 155.05 238.85 C 153.47 238.30 151.10 238.24 150.70 236.22 C 149.63 233.10 149.40 229.78 148.86 226.55 C 147.96 218.55 146.43 210.63 146.05 202.58 C 142.19 207.33 138.78 214.34 131.98 214.92 C 125.56 214.82 123.74 206.40 126.74 201.77 C 130.67 195.65 137.73 192.71 143.90 189.38 C 143.13 182.56 142.28 175.75 141.57 168.92 C 141.04 162.64 139.92 156.32 140.60 150.01 C 140.74 148.03 142.79 147.10 144.38 146.43 C 152.50 143.38 160.83 140.98 169.13 138.49 C 176.60 136.38 184.18 134.05 192.04 134.27 C 198.94 134.04 205.63 135.90 212.44 136.70 C 210.74 124.41 207.83 112.34 205.54 100.16 C 205.07 98.12 204.90 95.94 203.88 94.07 C 199.21 91.71 192.95 92.03 189.52 87.55 C 185.78 83.22 185.96 76.87 187.71 71.74 C 189.06 66.98 194.03 64.78 198.39 63.53 M 198.64 65.61 C 194.48 66.85 189.67 69.22 188.81 73.93 C 188.45 77.98 187.85 82.83 191.03 85.99 C 194.62 90.01 200.66 89.24 204.88 92.17 C 206.75 93.40 206.53 95.94 207.12 97.85 C 209.05 108.70 211.96 119.36 213.70 130.25 C 214.40 133.36 214.22 137.19 217.30 139.10 C 216.26 129.71 214.85 120.34 212.65 111.14 C 211.54 106.23 210.20 101.33 210.04 96.26 C 214.71 94.88 221.21 94.39 222.97 88.96 C 223.90 83.28 223.73 76.73 219.96 72.04 C 215.11 65.77 206.16 62.91 198.64 65.61 M 164.72 141.74 C 158.66 143.62 152.54 145.35 146.62 147.64 C 144.70 148.44 142.24 149.53 142.29 151.99 C 141.90 158.05 142.84 164.10 143.36 170.13 C 143.81 176.46 144.56 182.76 145.55 189.02 C 154.50 186.53 163.28 183.07 172.64 182.40 C 172.52 181.96 172.29 181.08 172.18 180.64 C 168.51 180.01 164.67 180.02 161.17 178.67 C 157.91 177.46 156.22 172.84 158.60 170.09 C 161.75 165.80 166.75 163.47 171.54 161.50 C 183.78 156.65 196.91 154.28 210.01 153.55 C 219.42 152.87 229.02 154.46 237.60 158.41 C 240.25 159.80 243.66 161.53 243.86 164.92 C 244.62 169.61 241.06 173.47 240.89 178.07 C 244.61 178.35 248.32 178.69 251.99 179.40 C 250.33 173.73 251.51 166.09 257.78 163.89 C 269.99 160.21 283.07 161.95 295.40 164.18 C 295.08 159.11 296.41 154.18 296.66 149.16 C 292.70 147.30 288.23 147.11 283.96 146.51 C 261.95 144.10 239.92 141.97 217.95 139.21 C 209.62 138.49 201.45 136.38 193.07 136.20 C 183.33 135.96 173.92 138.86 164.72 141.74 M 206.97 162.90 C 198.95 163.52 190.80 164.38 183.18 167.10 C 180.32 168.10 176.79 170.32 177.89 173.92 C 179.54 183.83 181.12 194.38 187.15 202.72 C 191.23 208.27 198.88 207.59 204.97 207.73 C 211.37 207.40 217.96 208.00 224.21 206.41 C 230.25 201.95 232.67 194.05 233.93 186.96 C 234.57 180.44 236.30 172.15 230.35 167.50 C 223.57 162.89 214.88 162.74 206.97 162.90 M 267.51 168.74 C 263.39 169.72 259.16 172.56 258.71 177.12 C 258.06 184.33 257.22 191.84 259.41 198.88 C 260.51 202.83 262.81 206.80 266.82 208.34 C 274.09 211.29 282.23 211.19 289.93 210.59 C 296.33 209.68 297.97 202.54 300.37 197.61 C 302.64 191.65 307.17 185.71 305.55 179.02 C 303.59 175.35 299.49 173.62 295.88 172.00 C 286.98 168.42 276.98 166.07 267.51 168.74 M 147.27 200.37 C 147.55 207.27 149.02 214.08 149.80 220.93 C 150.64 225.77 150.68 230.86 152.64 235.41 C 155.39 237.40 159.02 237.41 162.24 238.11 C 184.71 241.16 207.54 240.88 230.08 238.71 C 248.86 236.64 267.96 234.50 285.77 227.86 C 290.98 226.45 291.20 220.69 291.68 216.27 C 281.95 217.17 271.51 217.12 262.78 212.18 C 257.19 208.89 255.33 202.19 253.26 196.48 C 252.49 194.80 252.21 192.27 249.97 191.95 C 246.61 191.33 243.17 191.65 239.78 191.74 C 235.47 199.05 233.13 209.37 223.83 211.91 C 213.11 214.54 201.41 215.51 190.75 212.13 C 181.94 208.73 178.95 199.15 175.34 191.35 C 165.52 192.24 155.91 195.71 147.27 200.37 Z" />
<path fill="#040605" opacity="1.00" d=" M 171.54 66.56 C 173.56 66.37 175.28 68.04 177.00 68.93 C 179.37 70.75 182.62 72.03 183.73 75.02 C 180.01 79.21 173.73 75.58 170.70 72.25 C 168.71 70.70 169.02 67.35 171.54 66.56 M 170.70 68.98 C 172.92 72.22 176.40 74.32 180.04 75.61 C 180.45 75.24 181.27 74.51 181.68 74.14 C 177.57 73.28 174.82 69.60 170.70 68.98 Z" />
<path fill="#040605" opacity="1.00" d=" M 231.80 76.94 C 234.42 75.90 238.12 73.95 240.33 76.78 C 241.48 79.31 238.92 81.54 236.90 82.62 C 234.45 84.15 231.48 83.78 228.83 83.06 C 228.09 80.48 229.31 77.97 231.80 76.94 M 230.49 79.89 C 230.43 80.20 230.29 80.83 230.22 81.15 C 231.60 81.53 232.98 81.94 234.35 82.40 C 236.48 81.31 238.88 80.12 239.14 77.43 C 235.94 76.88 232.87 77.68 230.49 79.89 Z" />
<path fill="#040605" opacity="1.00" d=" M 232.06 80.57 C 233.94 79.39 235.84 78.18 238.03 77.66 C 237.30 78.61 236.55 79.56 235.80 80.49 C 234.87 80.51 232.99 80.55 232.06 80.57 Z" />
<path fill="#040605" opacity="1.00" d=" M 244.91 221.55 C 248.86 221.53 250.66 216.36 254.77 217.29 C 252.72 228.57 234.56 227.65 231.99 217.23 C 236.63 217.77 239.95 222.57 244.91 221.55 Z" />
<path fill="#040605" opacity="1.00" d=" M 99.55 270.43 C 110.39 267.24 121.78 269.71 132.78 270.56 C 131.56 273.93 130.49 277.35 129.23 280.71 C 122.81 280.79 116.39 280.18 109.97 280.34 C 108.11 280.27 106.42 281.08 104.76 281.78 C 104.50 283.90 103.81 286.15 104.65 288.22 C 106.42 290.63 109.42 291.54 112.07 292.62 C 117.94 294.90 124.35 296.54 129.18 300.81 C 134.71 306.14 135.17 314.99 132.72 321.90 C 131.05 326.84 125.93 329.60 121.00 330.17 C 111.34 331.27 101.65 329.95 92.00 329.37 C 91.76 325.76 92.02 322.16 92.27 318.57 C 100.20 318.94 108.18 320.18 116.12 319.20 C 121.30 318.30 121.38 310.12 116.98 308.00 C 109.15 303.86 98.58 303.67 93.22 295.71 C 88.76 287.58 89.75 274.12 99.55 270.43 Z" />
<path fill="#040605" opacity="1.00" d=" M 136.47 270.37 C 152.58 270.01 168.69 270.11 184.79 270.18 C 184.82 273.75 184.81 277.32 184.82 280.89 C 179.02 280.85 173.23 280.79 167.43 280.78 C 167.35 297.06 167.55 313.34 167.51 329.61 C 163.05 329.49 158.59 329.36 154.13 329.49 C 154.14 313.26 154.36 297.01 153.98 280.78 C 148.08 280.72 142.19 280.69 136.29 280.66 C 136.39 277.23 136.48 273.80 136.47 270.37 Z" />
<path fill="#040605" opacity="1.00" d=" M 192.19 274.23 C 195.05 270.87 199.78 270.45 203.90 270.34 C 212.82 270.28 221.74 270.31 230.66 270.51 C 230.45 273.90 230.25 277.30 229.78 280.67 C 221.00 281.12 212.18 280.27 203.41 281.12 C 203.26 285.27 203.26 289.42 203.41 293.57 C 211.03 293.66 218.64 293.36 226.26 293.49 C 226.26 296.77 226.24 300.04 226.23 303.31 C 218.56 303.56 210.89 303.34 203.22 303.55 C 203.14 308.56 202.91 313.60 203.58 318.58 C 212.26 319.76 221.05 318.89 229.78 319.12 C 229.80 322.61 229.77 326.10 229.82 329.59 C 220.76 329.61 211.70 329.71 202.64 329.50 C 198.70 329.44 194.36 328.42 191.92 325.05 C 189.07 321.33 189.64 316.41 189.63 312.02 C 189.83 302.67 189.83 293.33 189.75 283.98 C 189.78 280.63 189.77 276.85 192.19 274.23 Z" />
<path fill="#040605" opacity="1.00" d=" M 249.98 271.66 C 255.08 269.58 260.78 270.23 266.14 270.63 C 269.53 270.64 270.16 274.56 271.05 277.07 C 276.30 294.53 281.44 312.03 286.83 329.45 C 282.36 329.38 277.89 329.28 273.43 329.35 C 272.03 324.30 270.65 319.24 269.22 314.20 C 262.65 313.73 256.07 313.98 249.49 313.83 C 247.84 318.97 246.40 324.17 245.13 329.42 C 240.52 329.38 235.91 329.44 231.30 329.39 C 235.50 318.19 238.41 306.55 242.18 295.20 C 244.77 287.35 246.40 279.15 249.98 271.66 M 259.29 278.10 C 257.19 286.73 254.20 295.14 252.69 303.92 C 257.15 304.40 261.63 303.96 266.10 303.71 C 264.05 295.12 262.00 286.50 259.29 278.10 Z" />
<path fill="#040605" opacity="1.00" d=" M 296.43 270.65 C 302.03 269.84 307.91 269.87 313.39 271.44 C 315.86 277.03 316.72 283.12 318.24 289.00 C 320.42 297.13 321.86 305.46 324.18 313.55 C 326.73 300.88 329.51 288.25 332.81 275.75 C 333.49 273.77 334.12 271.18 336.54 270.81 C 341.44 269.89 346.58 269.92 351.50 270.68 C 354.86 271.29 355.73 274.98 355.70 277.88 C 356.74 295.03 357.41 312.20 358.30 329.36 C 354.08 329.36 349.85 329.36 345.63 329.38 C 345.31 315.23 344.53 301.10 343.82 286.97 C 343.73 284.45 343.59 281.92 343.08 279.45 C 339.12 291.41 337.26 303.93 333.88 316.05 C 333.35 317.62 332.83 319.33 331.59 320.50 C 326.26 321.23 320.82 320.78 315.46 320.71 C 310.92 307.24 309.12 293.02 304.87 279.49 C 303.27 296.14 303.51 312.91 302.18 329.58 C 298.05 329.37 293.91 329.38 289.78 329.50 C 290.77 311.97 291.13 294.41 292.28 276.89 C 292.23 274.17 293.48 271.18 296.43 270.65 Z" />
<path fill="#040605" opacity="1.00" d=" M 112.17 340.51 C 112.96 340.76 114.54 341.28 115.33 341.54 C 119.16 351.23 121.62 361.42 125.33 371.15 C 129.53 361.37 131.83 350.84 136.15 341.10 C 136.85 340.94 138.25 340.63 138.95 340.47 C 135.61 351.58 131.98 362.64 127.85 373.48 C 126.23 373.48 124.60 373.44 122.98 373.37 C 119.03 362.54 115.42 351.56 112.17 340.51 Z" />
<path fill="#040605" opacity="1.00" d=" M 153.26 340.78 C 154.01 340.91 155.52 341.17 156.27 341.30 C 156.23 351.99 156.43 362.68 156.38 373.38 C 155.63 373.38 154.12 373.39 153.36 373.39 C 153.22 362.52 153.16 351.65 153.26 340.78 Z" />
<path fill="#040605" opacity="1.00" d=" M 174.68 340.90 C 179.79 340.81 185.15 339.94 190.09 341.64 C 195.32 343.86 195.92 350.76 194.38 355.52 C 193.69 357.78 191.19 358.23 189.32 359.10 C 195.02 361.42 194.86 368.21 195.36 373.34 C 194.60 373.25 193.09 373.06 192.33 372.97 C 191.48 368.86 192.15 363.40 188.04 360.86 C 184.83 359.34 181.09 359.95 177.65 359.74 C 177.61 364.22 177.66 368.70 177.59 373.19 C 176.63 373.18 175.68 373.17 174.73 373.17 C 174.62 362.41 174.76 351.65 174.68 340.90 M 177.81 343.44 C 177.69 347.90 177.62 352.36 177.69 356.82 C 181.73 356.62 186.01 357.46 189.87 355.98 C 192.93 353.38 192.48 347.90 189.86 345.11 C 186.46 342.46 181.80 343.62 177.81 343.44 Z" />
<path fill="#040605" opacity="1.00" d=" M 208.26 340.80 C 216.77 340.82 225.28 340.75 233.79 340.80 C 233.79 341.52 233.80 342.94 233.80 343.65 C 229.98 343.68 226.16 343.68 222.34 343.68 C 222.22 353.67 222.48 363.66 222.24 373.65 C 221.55 373.46 220.16 373.07 219.46 372.88 C 219.19 363.14 219.29 353.38 219.26 343.64 C 215.68 343.73 212.10 343.70 208.52 343.77 C 208.45 343.02 208.32 341.54 208.26 340.80 Z" />
<path fill="#040605" opacity="1.00" d=" M 247.71 340.67 C 248.46 340.77 249.95 340.98 250.70 341.09 C 250.92 347.72 250.76 354.36 250.85 360.99 C 250.90 363.91 251.51 367.14 253.89 369.09 C 257.08 371.66 262.03 371.76 265.28 369.24 C 267.21 367.72 267.58 365.12 267.65 362.83 C 267.81 355.56 267.57 348.29 267.77 341.03 C 268.48 341.06 269.91 341.11 270.63 341.14 C 270.72 348.78 270.84 356.42 270.68 364.07 C 270.65 367.31 269.39 370.78 266.48 372.51 C 263.33 374.26 259.50 374.07 256.05 373.57 C 251.52 372.73 248.04 368.62 247.89 364.02 C 247.43 356.25 247.73 348.45 247.71 340.67 Z" />
<path fill="#040605" opacity="1.00" d=" M 291.50 354.47 C 293.21 349.87 294.53 345.07 296.99 340.80 C 298.81 340.24 300.91 340.18 301.46 342.41 C 305.67 352.55 308.97 363.06 312.41 373.48 C 311.69 373.41 310.24 373.27 309.52 373.20 C 308.01 369.85 307.11 366.27 305.67 362.89 C 301.19 362.77 296.72 362.54 292.24 362.63 C 290.92 366.14 289.85 369.77 288.31 373.19 C 287.60 373.31 286.18 373.55 285.47 373.66 C 287.08 367.15 289.46 360.86 291.50 354.47 M 292.67 359.85 C 296.72 359.79 300.78 359.77 304.83 360.03 C 302.89 354.27 300.78 348.58 298.72 342.87 C 296.74 348.54 294.78 354.22 292.67 359.85 Z" />
<path fill="#040605" opacity="1.00" d=" M 326.74 341.13 C 327.50 341.12 329.03 341.11 329.80 341.10 C 330.15 350.83 329.52 360.57 330.14 370.28 C 335.48 370.76 340.85 370.42 346.20 370.64 C 346.20 371.33 346.19 372.71 346.19 373.40 C 340.42 373.21 334.57 373.89 328.87 372.91 C 326.94 372.73 327.05 370.39 326.87 368.97 C 326.75 359.69 326.88 350.41 326.74 341.13 Z" />
</g>
<g id="#08b8f8ff">
<path fill="#08b8f8" opacity="1.00" d=" M 198.64 65.61 C 206.16 62.91 215.11 65.77 219.96 72.04 C 223.73 76.73 223.90 83.28 222.97 88.96 C 221.21 94.39 214.71 94.88 210.04 96.26 C 210.20 101.33 211.54 106.23 212.65 111.14 C 214.85 120.34 216.26 129.71 217.30 139.10 C 214.22 137.19 214.40 133.36 213.70 130.25 C 211.96 119.36 209.05 108.70 207.12 97.85 C 206.53 95.94 206.75 93.40 204.88 92.17 C 200.66 89.24 194.62 90.01 191.03 85.99 C 187.85 82.83 188.45 77.98 188.81 73.93 C 189.67 69.22 194.48 66.85 198.64 65.61 Z" />
<path fill="#08b8f8" opacity="1.00" d=" M 164.72 141.74 C 173.92 138.86 183.33 135.96 193.07 136.20 C 201.45 136.38 209.62 138.49 217.95 139.21 C 239.92 141.97 261.95 144.10 283.96 146.51 C 288.23 147.11 292.70 147.30 296.66 149.16 C 296.41 154.18 295.08 159.11 295.40 164.18 C 283.07 161.95 269.99 160.21 257.78 163.89 C 251.51 166.09 250.33 173.73 251.99 179.40 C 248.32 178.69 244.61 178.35 240.89 178.07 C 241.06 173.47 244.62 169.61 243.86 164.92 C 243.66 161.53 240.25 159.80 237.60 158.41 C 229.02 154.46 219.42 152.87 210.01 153.55 C 196.91 154.28 183.78 156.65 171.54 161.50 C 166.75 163.47 161.75 165.80 158.60 170.09 C 156.22 172.84 157.91 177.46 161.17 178.67 C 164.67 180.02 168.51 180.01 172.18 180.64 C 172.29 181.08 172.52 181.96 172.64 182.40 C 163.28 183.07 154.50 186.53 145.55 189.02 C 144.56 182.76 143.81 176.46 143.36 170.13 C 142.84 164.10 141.90 158.05 142.29 151.99 C 142.24 149.53 144.70 148.44 146.62 147.64 C 152.54 145.35 158.66 143.62 164.72 141.74 Z" />
<path fill="#08b8f8" opacity="1.00" d=" M 147.27 200.37 C 155.91 195.71 165.52 192.24 175.34 191.35 C 178.95 199.15 181.94 208.73 190.75 212.13 C 201.41 215.51 213.11 214.54 223.83 211.91 C 233.13 209.37 235.47 199.05 239.78 191.74 C 243.17 191.65 246.61 191.33 249.97 191.95 C 252.21 192.27 252.49 194.80 253.26 196.48 C 255.33 202.19 257.19 208.89 262.78 212.18 C 271.51 217.12 281.95 217.17 291.68 216.27 C 291.20 220.69 290.98 226.45 285.77 227.86 C 267.96 234.50 248.86 236.64 230.08 238.71 C 207.54 240.88 184.71 241.16 162.24 238.11 C 159.02 237.41 155.39 237.40 152.64 235.41 C 150.68 230.86 150.64 225.77 149.80 220.93 C 149.02 214.08 147.55 207.27 147.27 200.37 M 244.91 221.55 C 239.95 222.57 236.63 217.77 231.99 217.23 C 234.56 227.65 252.72 228.57 254.77 217.29 C 250.66 216.36 248.86 221.53 244.91 221.55 Z" />
</g>
</svg>
