<?xml version="1.0" encoding="UTF-8" ?>
<!DOCTYPE svg PUBLIC "-//W3C//DTD SVG 1.1//EN" "http://www.w3.org/Graphics/SVG/1.1/DTD/svg11.dtd">
<svg width="512pt" height="512pt" viewBox="0 0 500 500" version="1.1" xmlns="http://www.w3.org/2000/svg">
<g id="#000000ff">
</g>
<g id="#28a745ff">
<path fill="#28a745" opacity="1.00" d=" M 245.39 0.00 L 253.62 0.00 C 306.67 0.82 359.43 19.04 401.33 51.66 C 438.92 80.55 468.18 120.31 484.08 165.01 C 493.92 192.17 498.92 221.09 498.51 249.98 C 499.12 303.57 480.80 356.83 448.66 399.58 C 430.07 381.21 411.83 362.47 393.09 344.26 C 393.95 342.17 395.08 340.21 396.33 338.33 C 413.55 310.20 422.61 277.04 421.63 244.03 C 421.79 234.61 419.79 225.34 419.20 215.96 C 437.76 198.80 457.94 183.35 479.79 170.58 C 428.40 119.44 377.26 68.06 325.94 16.86 C 298.63 31.66 274.62 51.89 252.51 73.53 C 251.12 75.14 248.82 74.60 246.95 74.73 C 239.30 74.66 231.66 75.53 224.07 76.44 C 190.27 80.93 158.13 96.14 132.73 118.81 C 99.58 148.22 78.18 190.76 75.27 235.07 C 73.55 249.89 75.24 264.83 77.42 279.50 C 75.77 282.07 73.09 283.77 70.88 285.85 C 54.99 300.02 37.58 312.44 19.26 323.28 C 70.60 374.51 121.79 425.88 173.16 477.08 C 199.73 462.41 223.38 442.94 245.01 421.76 C 278.69 422.37 312.52 412.92 340.89 394.74 C 341.95 394.08 343.12 393.61 344.28 393.15 C 362.46 411.85 381.17 430.04 399.49 448.61 C 356.82 480.83 303.54 499.24 249.95 498.46 C 201.29 499.34 152.74 484.51 112.23 457.71 C 86.18 440.45 63.21 418.41 45.28 392.79 C 16.63 352.35 0.88 303.15 0.00 253.63 L 0.00 245.42 C 0.46 227.85 2.43 210.29 6.43 193.17 C 15.39 153.91 34.20 117.02 60.55 86.58 C 85.85 57.25 117.96 33.73 153.80 18.95 C 163.42 15.29 173.08 11.72 183.00 8.95 C 203.28 3.18 224.34 0.46 245.39 0.00 Z" />
<path fill="#28a745" opacity="1.00" d=" M 308.49 54.75 C 309.43 54.01 310.29 54.08 311.05 54.97 C 354.26 96.69 397.45 138.44 440.68 180.13 C 431.50 185.49 422.99 191.87 414.35 198.04 C 401.91 156.98 373.73 120.93 336.78 99.10 C 318.51 88.13 298.16 80.56 277.12 77.14 C 286.91 68.79 297.55 61.50 308.49 54.75 Z" />
<path fill="#28a745" opacity="1.00" d=" M 229.46 128.23 C 253.17 124.58 278.08 127.86 299.75 138.30 C 332.25 153.31 357.35 183.53 365.85 218.35 C 368.00 225.34 368.48 232.64 369.43 239.84 C 369.34 242.03 367.31 243.44 366.05 245.03 C 347.67 266.19 331.12 288.85 314.53 311.42 C 300.46 330.31 286.76 349.55 271.32 367.36 C 248.94 372.10 225.19 369.69 203.95 361.29 C 167.16 347.19 138.41 313.99 129.83 275.52 C 128.52 269.05 127.14 262.53 127.30 255.90 C 163.17 216.28 191.52 170.68 225.54 129.56 C 226.55 128.52 228.13 128.55 229.46 128.23 M 238.07 175.17 C 217.69 178.33 198.98 190.67 188.07 208.17 C 178.29 223.36 174.85 242.33 178.15 260.05 C 180.71 273.85 187.37 286.91 197.16 296.98 C 211.11 311.76 231.71 320.03 252.00 319.08 C 264.49 318.95 276.73 314.79 287.44 308.51 C 302.16 299.45 313.43 284.96 318.57 268.46 C 324.48 249.46 322.35 227.95 312.28 210.72 C 303.99 196.27 290.62 184.86 275.03 178.98 C 263.35 174.21 250.45 173.94 238.07 175.17 Z" />
<path fill="#28a745" opacity="1.00" d=" M 187.27 143.16 C 190.48 141.10 194.29 140.01 197.09 137.33 C 174.38 166.55 152.34 196.29 129.08 225.08 C 130.42 216.86 132.88 208.80 136.22 201.18 C 146.30 176.96 164.64 156.35 187.27 143.16 Z" />
<path fill="#28a745" opacity="1.00" d=" M 362.84 277.78 C 364.54 275.64 366.52 273.67 367.62 271.12 C 363.45 291.07 354.77 310.18 341.54 325.76 C 330.42 339.38 316.12 350.32 300.29 357.93 C 303.20 355.26 305.34 351.92 307.83 348.88 C 326.26 325.26 343.96 301.06 362.84 277.78 Z" />
<path fill="#28a745" opacity="1.00" d=" M 58.83 314.00 C 66.88 309.20 74.57 303.85 82.07 298.23 C 83.32 302.96 85.09 307.53 86.83 312.11 C 104.98 358.07 143.62 395.38 190.25 411.77 C 199.53 414.73 208.93 417.96 218.69 418.78 C 218.65 419.15 218.59 419.89 218.55 420.26 C 209.20 427.49 199.51 434.27 189.37 440.38 C 146.02 398.08 102.14 356.34 58.83 314.00 Z" />
</g>
<g id="#f8f9faff">
<path fill="#f8f9fa" opacity="1.00" d=" M 252.51 73.53 C 274.62 51.89 298.63 31.66 325.94 16.86 C 377.26 68.06 428.40 119.44 479.79 170.58 C 457.94 183.35 437.76 198.80 419.20 215.96 C 419.79 225.34 421.79 234.61 421.63 244.03 C 422.61 277.04 413.55 310.20 396.33 338.33 C 395.08 340.21 393.95 342.17 393.09 344.26 C 411.83 362.47 430.07 381.21 448.66 399.58 C 459.89 410.95 471.33 422.12 482.50 433.54 C 494.31 445.97 494.43 467.25 482.85 479.87 C 471.00 493.95 447.60 495.44 434.05 483.00 C 422.40 471.67 411.07 460.01 399.49 448.61 C 381.17 430.04 362.46 411.85 344.28 393.15 C 343.12 393.61 341.95 394.08 340.89 394.74 C 312.52 412.92 278.69 422.37 245.01 421.76 C 223.38 442.94 199.73 462.41 173.16 477.08 C 121.79 425.88 70.60 374.51 19.26 323.28 C 37.58 312.44 54.99 300.02 70.88 285.85 C 73.09 283.77 75.77 282.07 77.42 279.50 C 75.24 264.83 73.55 249.89 75.27 235.07 C 78.18 190.76 99.58 148.22 132.73 118.81 C 158.13 96.14 190.27 80.93 224.07 76.44 C 231.66 75.53 239.30 74.66 246.95 74.73 C 248.82 74.60 251.12 75.14 252.51 73.53 M 308.49 54.75 C 297.55 61.50 286.91 68.79 277.12 77.14 C 298.16 80.56 318.51 88.13 336.78 99.10 C 373.73 120.93 401.91 156.98 414.35 198.04 C 422.99 191.87 431.50 185.49 440.68 180.13 C 397.45 138.44 354.26 96.69 311.05 54.97 C 310.29 54.08 309.43 54.01 308.49 54.75 M 183.03 104.01 C 149.09 118.75 120.48 145.47 103.74 178.49 C 80.93 222.44 80.81 277.40 103.43 321.44 C 124.46 363.53 164.98 395.19 210.81 405.69 C 259.14 417.61 312.71 405.76 351.37 374.35 C 352.17 373.83 353.48 372.51 354.39 373.50 C 387.26 404.67 420.05 435.93 452.93 467.08 C 454.82 468.89 456.63 470.97 459.16 471.90 C 463.56 473.87 469.06 472.90 472.56 469.61 C 477.83 465.17 477.77 455.92 472.52 451.49 C 438.83 419.34 404.89 387.43 371.31 355.16 C 394.55 329.39 409.01 295.70 411.18 261.03 C 414.86 215.38 396.73 168.83 363.97 136.98 C 347.53 120.72 327.50 108.17 305.82 100.18 C 266.42 85.76 221.43 87.01 183.03 104.01 M 58.83 314.00 C 102.14 356.34 146.02 398.08 189.37 440.38 C 199.51 434.27 209.20 427.49 218.55 420.26 C 218.59 419.89 218.65 419.15 218.69 418.78 C 208.93 417.96 199.53 414.73 190.25 411.77 C 143.62 395.38 104.98 358.07 86.83 312.11 C 85.09 307.53 83.32 302.96 82.07 298.23 C 74.57 303.85 66.88 309.20 58.83 314.00 Z" />
<path fill="#f8f9fa" opacity="1.00" d=" M 229.00 116.32 C 232.96 115.55 236.98 115.39 241.00 115.23 C 251.36 113.91 261.79 115.29 272.07 116.68 C 309.60 122.73 344.28 145.11 364.87 177.13 C 383.32 205.02 390.48 240.04 384.62 272.94 C 378.14 311.98 353.07 347.22 318.79 366.83 C 289.38 384.14 253.37 389.56 220.04 382.55 C 182.27 374.80 148.25 350.27 129.19 316.71 C 113.41 289.59 107.95 256.72 113.71 225.90 C 120.82 186.11 147.26 150.54 182.86 131.57 C 197.17 123.82 212.85 118.45 229.00 116.32 M 229.46 128.23 C 228.13 128.55 226.55 128.52 225.54 129.56 C 191.52 170.68 163.17 216.28 127.30 255.90 C 127.14 262.53 128.52 269.05 129.83 275.52 C 138.41 313.99 167.16 347.19 203.95 361.29 C 225.19 369.69 248.94 372.10 271.32 367.36 C 286.76 349.55 300.46 330.31 314.53 311.42 C 331.12 288.85 347.67 266.19 366.05 245.03 C 367.31 243.44 369.34 242.03 369.43 239.84 C 368.48 232.64 368.00 225.34 365.85 218.35 C 357.35 183.53 332.25 153.31 299.75 138.30 C 278.08 127.86 253.17 124.58 229.46 128.23 M 187.27 143.16 C 164.64 156.35 146.30 176.96 136.22 201.18 C 132.88 208.80 130.42 216.86 129.08 225.08 C 152.34 196.29 174.38 166.55 197.09 137.33 C 194.29 140.01 190.48 141.10 187.27 143.16 M 362.84 277.78 C 343.96 301.06 326.26 325.26 307.83 348.88 C 305.34 351.92 303.20 355.26 300.29 357.93 C 316.12 350.32 330.42 339.38 341.54 325.76 C 354.77 310.18 363.45 291.07 367.62 271.12 C 366.52 273.67 364.54 275.64 362.84 277.78 Z" />
<path fill="#f8f9fa" opacity="1.00" d=" M 238.07 175.17 C 250.45 173.94 263.35 174.21 275.03 178.98 C 290.62 184.86 303.99 196.27 312.28 210.72 C 322.35 227.95 324.48 249.46 318.57 268.46 C 313.43 284.96 302.16 299.45 287.44 308.51 C 276.73 314.79 264.49 318.95 252.00 319.08 C 231.71 320.03 211.11 311.76 197.16 296.98 C 187.37 286.91 180.71 273.85 178.15 260.05 C 174.85 242.33 178.29 223.36 188.07 208.17 C 198.98 190.67 217.69 178.33 238.07 175.17 M 235.54 190.74 C 224.59 192.77 214.58 200.35 210.90 211.04 C 209.20 216.28 207.54 222.45 210.38 227.60 C 213.72 233.13 221.15 234.25 227.02 233.06 C 231.36 232.25 234.23 228.40 235.67 224.48 C 237.25 220.72 237.69 215.89 241.52 213.59 C 245.40 211.45 250.65 211.21 254.46 213.65 C 258.03 216.38 258.08 221.47 257.45 225.52 C 256.01 233.11 249.70 238.21 245.22 244.06 C 239.99 250.14 236.92 258.04 237.03 266.09 C 236.86 267.36 237.69 268.76 239.02 268.97 C 243.01 269.27 247.02 269.01 251.02 269.12 C 252.70 268.96 254.89 269.54 256.01 267.90 C 256.58 263.62 256.84 259.03 259.61 255.47 C 265.61 247.48 276.43 245.27 282.68 237.51 C 288.42 230.46 288.90 220.54 287.08 211.98 C 285.29 203.18 278.38 196.07 270.03 193.09 C 259.08 189.10 246.94 188.61 235.54 190.74 M 239.51 277.79 C 235.97 278.48 232.75 280.92 231.69 284.46 C 230.14 289.81 230.21 295.59 231.31 301.03 C 232.09 304.91 235.21 308.07 239.10 308.85 C 244.95 309.96 251.34 310.21 256.96 307.97 C 262.28 305.61 263.06 299.08 263.08 293.95 C 263.13 288.54 262.69 281.45 257.06 278.82 C 251.56 276.52 245.28 276.83 239.51 277.79 Z" />
</g>
<g id="#343a40ff">
<path fill="#343a40" opacity="1.00" d=" M 183.03 104.01 C 221.43 87.01 266.42 85.76 305.82 100.18 C 327.50 108.17 347.53 120.72 363.97 136.98 C 396.73 168.83 414.86 215.38 411.18 261.03 C 409.01 295.70 394.55 329.39 371.31 355.16 C 404.89 387.43 438.83 419.34 472.52 451.49 C 477.77 455.92 477.83 465.17 472.56 469.61 C 469.06 472.90 463.56 473.87 459.16 471.90 C 456.63 470.97 454.82 468.89 452.93 467.08 C 420.05 435.93 387.26 404.67 354.39 373.50 C 353.48 372.51 352.17 373.83 351.37 374.35 C 312.71 405.76 259.14 417.61 210.81 405.69 C 164.98 395.19 124.46 363.53 103.43 321.44 C 80.81 277.40 80.93 222.44 103.74 178.49 C 120.48 145.47 149.09 118.75 183.03 104.01 M 229.00 116.32 C 212.85 118.45 197.17 123.82 182.86 131.57 C 147.26 150.54 120.82 186.11 113.71 225.90 C 107.95 256.72 113.41 289.59 129.19 316.71 C 148.25 350.27 182.27 374.80 220.04 382.55 C 253.37 389.56 289.38 384.14 318.79 366.83 C 353.07 347.22 378.14 311.98 384.62 272.94 C 390.48 240.04 383.32 205.02 364.87 177.13 C 344.28 145.11 309.60 122.73 272.07 116.68 C 261.79 115.29 251.36 113.91 241.00 115.23 C 236.98 115.39 232.96 115.55 229.00 116.32 Z" />
<path fill="#343a40" opacity="1.00" d=" M 235.54 190.74 C 246.94 188.61 259.08 189.10 270.03 193.09 C 278.38 196.07 285.29 203.18 287.08 211.98 C 288.90 220.54 288.42 230.46 282.68 237.51 C 276.43 245.27 265.61 247.48 259.61 255.47 C 256.84 259.03 256.58 263.62 256.01 267.90 C 254.89 269.54 252.70 268.96 251.02 269.12 C 247.02 269.01 243.01 269.27 239.02 268.97 C 237.69 268.76 236.86 267.36 237.03 266.09 C 236.92 258.04 239.99 250.14 245.22 244.06 C 249.70 238.21 256.01 233.11 257.45 225.52 C 258.08 221.47 258.03 216.38 254.46 213.65 C 250.65 211.21 245.40 211.45 241.52 213.59 C 237.69 215.89 237.25 220.72 235.67 224.48 C 234.23 228.40 231.36 232.25 227.02 233.06 C 221.15 234.25 213.72 233.13 210.38 227.60 C 207.54 222.45 209.20 216.28 210.90 211.04 C 214.58 200.35 224.59 192.77 235.54 190.74 Z" />
<path fill="#343a40" opacity="1.00" d=" M 239.51 277.79 C 245.28 276.83 251.56 276.52 257.06 278.82 C 262.69 281.45 263.13 288.54 263.08 293.95 C 263.06 299.08 262.28 305.61 256.96 307.97 C 251.34 310.21 244.95 309.96 239.10 308.85 C 235.21 308.07 232.09 304.91 231.31 301.03 C 230.21 295.59 230.14 289.81 231.69 284.46 C 232.75 280.92 235.97 278.48 239.51 277.79 Z" />
</g>
</svg>
