<?xml version="1.0" encoding="UTF-8"?>
<svg id="Capa_2" data-name="Capa 2" xmlns="http://www.w3.org/2000/svg" viewBox="0 0 512 512">
  <defs>
    <style>
      .cls-1 {
        fill: #343a40;
      }

      .cls-2 {
        fill: #97331a;
      }

      .cls-3 {
        fill: none;
        opacity: 0;
      }

      .cls-4 {
        fill: #f8f9fa;
      }
    </style>
  </defs>
  <g id="Capa_1-2" data-name="Capa 1">
    <rect id="Margen" class="cls-3" width="512" height="512"/>
    <g id="_28a745ff" data-name="#28a745ff">
      <path class="cls-2" d="M253.01,64h6.34c40.86.63,81.5,14.67,113.78,39.79,28.95,22.25,51.49,52.88,63.74,87.32,7.58,20.92,11.43,43.2,11.11,65.45.47,41.28-13.64,82.31-38.4,115.24-14.32-14.15-28.37-28.59-42.8-42.61.66-1.61,1.53-3.12,2.5-4.57,13.26-21.67,20.24-47.21,19.49-72.64.12-7.26-1.42-14.4-1.87-21.62,14.3-13.22,29.84-25.12,46.67-34.96-39.58-39.39-78.97-78.97-118.5-118.41-21.04,11.4-39.53,26.98-56.56,43.65-1.07,1.24-2.84.82-4.28.92-5.89-.05-11.78.62-17.62,1.32-26.03,3.46-50.79,15.18-70.36,32.64-25.53,22.65-42.02,55.42-44.26,89.56-1.32,11.42-.02,22.92,1.66,34.23-1.27,1.98-3.34,3.29-5.04,4.89-12.24,10.92-25.65,20.48-39.76,28.83,39.55,39.46,78.97,79.03,118.54,118.47,20.47-11.3,38.68-26.3,55.34-42.61,25.94.47,52-6.81,73.85-20.81.82-.51,1.72-.87,2.61-1.22,14,14.4,28.41,28.42,42.53,42.72-32.87,24.82-73.91,39-115.18,38.4-37.48.68-74.88-10.75-106.08-31.39-20.07-13.3-37.76-30.27-51.57-50.01-22.07-31.15-34.2-69.05-34.88-107.2v-6.32c.35-13.53,1.87-27.06,4.95-40.25,6.9-30.24,21.39-58.66,41.69-82.11,19.49-22.59,44.22-40.71,71.83-52.1,7.41-2.82,14.85-5.57,22.49-7.7,15.62-4.44,31.84-6.54,48.06-6.89Z"/>
      <path class="cls-2" d="M301.62,106.17c.72-.57,1.39-.52,1.97.17,33.28,32.14,66.55,64.3,99.85,96.41-7.07,4.13-13.63,9.04-20.28,13.8-9.58-31.63-31.29-59.4-59.75-76.22-14.07-8.45-29.75-14.28-45.95-16.92,7.54-6.43,15.74-12.05,24.16-17.25Z"/>
      <path class="cls-2" d="M240.74,162.78c18.26-2.81,37.45-.29,54.14,7.76,25.03,11.56,44.37,34.84,50.91,61.66,1.66,5.38,2.03,11.01,2.76,16.55-.07,1.69-1.63,2.77-2.6,4-14.16,16.3-26.91,33.76-39.68,51.14-10.84,14.55-21.39,29.37-33.28,43.09-17.24,3.65-35.53,1.79-51.89-4.68-28.34-10.86-50.48-36.44-57.09-66.07-1.01-4.98-2.07-10.01-1.95-15.11,27.63-30.52,49.47-65.65,75.67-97.32.78-.8,1.99-.78,3.02-1.02M247.38,198.94c-15.7,2.43-30.11,11.94-38.51,25.42-7.53,11.7-10.18,26.31-7.64,39.96,1.97,10.63,7.1,20.69,14.64,28.45,10.75,11.39,26.61,17.76,42.24,17.02,9.62-.1,19.05-3.3,27.3-8.14,11.34-6.98,20.02-18.14,23.98-30.85,4.55-14.64,2.91-31.21-4.84-44.48-6.39-11.13-16.68-19.92-28.69-24.45-9-3.67-18.93-3.88-28.47-2.93Z"/>
      <path class="cls-2" d="M208.25,174.28c2.47-1.59,5.41-2.43,7.56-4.49-17.49,22.51-34.47,45.42-52.39,67.6,1.03-6.33,2.93-12.54,5.5-18.41,7.76-18.66,21.89-34.53,39.32-44.69Z"/>
      <path class="cls-2" d="M343.48,277.98c1.31-1.65,2.83-3.17,3.68-5.13-3.21,15.37-9.9,30.09-20.09,42.09-8.57,10.49-19.58,18.92-31.77,24.78,2.24-2.06,3.89-4.63,5.81-6.97,14.2-18.19,27.83-36.84,42.37-54.77Z"/>
      <path class="cls-2" d="M109.31,305.88c6.2-3.7,12.12-7.82,17.9-12.15.96,3.64,2.33,7.16,3.67,10.69,13.98,35.4,43.74,64.14,79.66,76.77,7.15,2.28,14.39,4.77,21.91,5.4-.03.29-.08.86-.11,1.14-7.2,5.57-14.67,10.79-22.48,15.5-33.39-32.58-67.19-64.74-100.55-97.35Z"/>
    </g>
    <g id="_f8f9faff" data-name="#f8f9faff">
      <path class="cls-4" d="M258.5,120.64c17.03-16.67,35.52-32.25,56.56-43.65,39.53,39.44,78.92,79.02,118.5,118.41-16.83,9.84-32.37,21.74-46.67,34.96.45,7.23,1.99,14.37,1.87,21.62.75,25.43-6.22,50.97-19.49,72.64-.96,1.45-1.83,2.96-2.5,4.57,14.43,14.03,28.48,28.46,42.8,42.61,8.65,8.76,17.46,17.36,26.07,26.16,9.1,9.58,9.19,25.97.27,35.69-9.13,10.85-27.15,11.99-37.59,2.41-8.97-8.73-17.7-17.71-26.62-26.49-14.11-14.3-28.52-28.32-42.53-42.72-.89.35-1.79.72-2.61,1.22-21.85,14-47.91,21.28-73.85,20.81-16.66,16.32-34.88,31.31-55.34,42.61-39.57-39.44-79-79.01-118.54-118.47,14.11-8.35,27.52-17.92,39.76-28.83,1.7-1.6,3.77-2.91,5.04-4.89-1.68-11.3-2.98-22.81-1.66-34.23,2.24-34.13,18.73-66.9,44.26-89.56,19.56-17.46,44.32-29.18,70.36-32.64,5.85-.7,11.73-1.37,17.62-1.32,1.44-.1,3.21.32,4.28-.92M301.62,106.17c-8.43,5.2-16.62,10.82-24.16,17.25,16.21,2.63,31.88,8.47,45.95,16.92,28.46,16.82,50.17,44.59,59.75,76.22,6.66-4.75,13.21-9.67,20.28-13.8-33.3-32.11-66.57-64.28-99.85-96.41-.59-.69-1.25-.74-1.97-.17M204.98,144.12c-26.14,11.35-48.18,31.94-61.07,57.37-17.57,33.86-17.66,76.19-.24,110.12,16.2,32.42,47.41,56.81,82.71,64.9,37.23,9.18,78.49.05,108.27-24.14.62-.4,1.63-1.42,2.33-.65,25.32,24.01,50.58,48.09,75.9,72.09,1.46,1.39,2.85,3,4.8,3.71,3.39,1.52,7.63.77,10.32-1.76,4.06-3.42,4.01-10.55-.03-13.96-25.95-24.77-52.09-49.35-77.96-74.2,17.9-19.85,29.04-45.8,30.71-72.51,2.83-35.16-11.13-71.02-36.36-95.56-12.66-12.53-28.09-22.19-44.79-28.35-30.35-11.11-65-10.15-94.58,2.95M109.31,305.88c33.36,32.62,67.16,64.77,100.55,97.35,7.81-4.71,15.27-9.93,22.48-15.5.03-.29.08-.86.11-1.14-7.52-.63-14.76-3.12-21.91-5.4-35.92-12.63-65.68-41.37-79.66-76.77-1.34-3.53-2.7-7.05-3.67-10.69-5.78,4.33-11.7,8.45-17.9,12.15Z"/>
      <path class="cls-4" d="M240.39,153.6c3.05-.59,6.15-.72,9.24-.84,7.98-1.02,16.01.05,23.93,1.12,28.91,4.66,55.62,21.9,71.48,46.57,14.21,21.48,19.73,48.46,15.21,73.8-4.99,30.07-24.3,57.22-50.71,72.32-22.65,13.33-50.39,17.51-76.06,12.11-29.09-5.97-55.3-24.87-69.98-50.72-12.15-20.89-16.36-46.21-11.92-69.95,5.48-30.65,25.84-58.05,53.26-72.66,11.02-5.97,23.1-10.11,35.54-11.75M240.74,162.78c-1.02.25-2.24.22-3.02,1.02-26.2,31.68-48.04,66.8-75.67,97.32-.12,5.11.94,10.13,1.95,15.11,6.61,29.63,28.75,55.21,57.09,66.07,16.36,6.47,34.65,8.33,51.89,4.68,11.89-13.72,22.45-28.54,33.28-43.09,12.78-17.39,25.53-34.84,39.68-51.14.97-1.22,2.53-2.31,2.6-4-.73-5.55-1.1-11.17-2.76-16.55-6.55-26.82-25.88-50.1-50.91-61.66-16.69-8.04-35.88-10.57-54.14-7.76M208.25,174.28c-17.43,10.16-31.56,26.04-39.32,44.69-2.57,5.87-4.47,12.08-5.5,18.41,17.92-22.18,34.89-45.09,52.39-67.6-2.16,2.06-5.09,2.9-7.56,4.49M343.48,277.98c-14.54,17.93-28.18,36.57-42.37,54.77-1.92,2.34-3.57,4.91-5.81,6.97,12.19-5.86,23.21-14.29,31.77-24.78,10.19-12,16.88-26.72,20.09-42.09-.85,1.96-2.37,3.48-3.68,5.13Z"/>
      <path class="cls-4" d="M247.38,198.94c9.54-.95,19.47-.74,28.47,2.93,12.01,4.53,22.31,13.32,28.69,24.45,7.76,13.27,9.4,29.84,4.84,44.48-3.96,12.71-12.64,23.87-23.98,30.85-8.25,4.84-17.68,8.04-27.3,8.14-15.63.73-31.5-5.64-42.24-17.02-7.54-7.76-12.67-17.82-14.64-28.45-2.54-13.65.11-28.26,7.64-39.96,8.4-13.48,22.82-22.99,38.51-25.42M245.43,210.93c-8.43,1.56-16.14,7.4-18.98,15.64-1.31,4.04-2.59,8.79-.4,12.76,2.57,4.26,8.3,5.12,12.82,4.21,3.34-.62,5.55-3.59,6.66-6.61,1.22-2.9,1.56-6.62,4.51-8.39,2.99-1.65,7.03-1.83,9.97.05,2.75,2.1,2.79,6.02,2.3,9.14-1.11,5.85-5.97,9.78-9.42,14.28-4.03,4.68-6.39,10.77-6.31,16.97-.13.98.51,2.06,1.53,2.22,3.07.23,6.16.03,9.24.12,1.29-.12,2.98.32,3.84-.94.44-3.3.64-6.83,2.77-9.58,4.62-6.15,12.96-7.86,17.77-13.83,4.42-5.43,4.79-13.07,3.39-19.67-1.38-6.78-6.7-12.26-13.13-14.55-8.43-3.07-17.79-3.45-26.57-1.81M248.48,277.99c-2.73.53-5.21,2.41-6.02,5.14-1.19,4.12-1.14,8.57-.29,12.76.6,2.99,3,5.42,6,6.02,4.51.86,9.43,1.05,13.76-.68,4.1-1.82,4.7-6.85,4.71-10.8.04-4.17-.3-9.63-4.64-11.65-4.24-1.77-9.07-1.53-13.52-.79Z"/>
    </g>
    <g id="_343a40ff" data-name="#343a40ff">
      <path class="cls-1" d="M204.98,144.12c29.58-13.1,64.23-14.06,94.58-2.95,16.7,6.15,32.13,15.82,44.79,28.35,25.23,24.53,39.2,60.39,36.36,95.56-1.67,26.71-12.81,52.66-30.71,72.51,25.87,24.86,52.01,49.44,77.96,74.2,4.04,3.41,4.09,10.54.03,13.96-2.7,2.53-6.93,3.28-10.32,1.76-1.95-.72-3.34-2.32-4.8-3.71-25.33-24-50.58-48.08-75.9-72.09-.7-.76-1.71.25-2.33.65-29.78,24.2-71.04,33.32-108.27,24.14-35.3-8.09-66.51-32.48-82.71-64.9-17.42-33.92-17.33-76.26.24-110.12,12.89-25.44,34.93-46.02,61.07-57.37M240.39,153.6c-12.44,1.64-24.52,5.78-35.54,11.75-27.42,14.61-47.79,42.01-53.26,72.66-4.44,23.74-.23,49.06,11.92,69.95,14.68,25.85,40.89,44.75,69.98,50.72,25.67,5.4,53.41,1.22,76.06-12.11,26.4-15.11,45.71-42.25,50.71-72.32,4.51-25.34-1-52.32-15.21-73.8-15.86-24.67-42.57-41.91-71.48-46.57-7.92-1.07-15.95-2.13-23.93-1.12-3.1.12-6.19.25-9.24.84Z"/>
      <path class="cls-1" d="M245.43,210.93c8.78-1.64,18.13-1.26,26.57,1.81,6.43,2.3,11.75,7.77,13.13,14.55,1.4,6.59,1.03,14.24-3.39,19.67-4.81,5.98-13.15,7.68-17.77,13.83-2.13,2.74-2.33,6.28-2.77,9.58-.86,1.26-2.55.82-3.84.94-3.08-.08-6.17.12-9.24-.12-1.02-.16-1.66-1.24-1.53-2.22-.08-6.2,2.28-12.29,6.31-16.97,3.45-4.51,8.31-8.43,9.42-14.28.49-3.12.45-7.04-2.3-9.14-2.93-1.88-6.98-1.69-9.97-.05-2.95,1.77-3.29,5.49-4.51,8.39-1.11,3.02-3.32,5.99-6.66,6.61-4.52.92-10.24.05-12.82-4.21-2.19-3.97-.91-8.72.4-12.76,2.83-8.23,10.54-14.07,18.98-15.64Z"/>
      <path class="cls-1" d="M248.48,277.99c4.44-.74,9.28-.98,13.52.79,4.34,2.03,4.68,7.49,4.64,11.65-.02,3.95-.62,8.98-4.71,10.8-4.33,1.73-9.25,1.53-13.76.68-3-.6-5.4-3.04-6-6.02-.85-4.19-.9-8.64.29-12.76.82-2.73,3.3-4.61,6.02-5.14Z"/>
    </g>
  </g>
</svg>