<?xml version="1.0" encoding="UTF-8"?>
<svg xmlns="http://www.w3.org/2000/svg" xmlns:xlink="http://www.w3.org/1999/xlink" viewBox="0 0 1366 768">
  <defs>
    <style>
      .cls-1 {
        mix-blend-mode: overlay;
        opacity: 0.15; /* Increase transparency */
      }

      .cls-2 {
        opacity: 0.1; /* Increase transparency */
      }

      .cls-3 {
        fill: none;
      }

      .cls-4 {
        fill: #28a745;
        opacity: 0.5; /* Increase transparency */
      }

      .cls-5 {
        clip-path: url(#clippath-1);
      }

      .cls-6 {
        isolation: isolate;
      }

      .cls-7 {
        fill: #6c757d;
      }

      .cls-8 {
        clip-path: url(#clippath);
      }
    </style>
    <clipPath id="clippath">
      <rect class="cls-3" width="1366" height="768"/>
    </clipPath>
    <clipPath id="clippath-1">
      <rect class="cls-3" width="1366" height="768"/>
    </clipPath>
  </defs>
  <g class="cls-6">
    <g id="Capa_2" data-name="Capa 2">
      <g id="Capa_3" data-name="Capa 3">
        <g class="cls-8">
          <g id="Color_p" data-name="Color p" class="cls-2">
            <path class="cls-4" d="M926.2,757.89c5.4,0,9.9,4.3,9.9,9.61s-4.51,9.7-9.9,9.7-9.8-4.3-9.8-9.7,4.4-9.61,9.8-9.61Z"/>
            <path class="cls-4" d="M877.7,747.69c3.89,0,6.99,3.21,6.99,7.2s-3.1,6.9-6.99,6.9-7-3.09-7-6.9,3.1-7.2,7-7.2Z"/>
            <path class="cls-4" d="M827.89,738.4c5.3,0,9.4,4.2,9.4,9.21s-4.1,9.3-9.4,9.3c-5,0-9.2-4.11-9.2-9.3s4.2-9.21,9.2-9.21Z"/>
            <path class="cls-4" d="M777.8,736.9c5.2,0,9.3,4.1,9.3,9.4s-4.1,9.3-9.3,9.3-9.3-4.2-9.3-9.3,4.2-9.4,9.3-9.4Z"/>
            <path class="cls-4" d="M727.8,740.89c5.4,0,9.8,4.3,9.8,9.71s-4.4,9.7-9.8,9.7-9.7-4.4-9.7-9.7,4.39-9.71,9.7-9.71Z"/>
            <path class="cls-4" d="M678.59,750.4c5.6,0,10.11,4.5,10.11,10s-4.51,10.1-10.11,10.1-9.99-4.51-9.99-10.1,4.5-10,9.99-10Z"/>
            <path class="cls-4" d="M630.89,765.99c5.6,0,10.1,4.51,10.1,10.11s-4.5,9.99-10.1,9.99-9.99-4.5-9.99-9.99,4.5-10.11,9.99-10.11Z"/>
            <path class="cls-4" d="M1030.19,762.5c4.3,0,7.7,3.49,7.7,7.9s-3.4,7.8-7.7,7.8-7.8-3.5-7.8-7.8,3.5-7.9,7.8-7.9Z"/>
            <path class="cls-4" d="M985.39,739.8c4.3,0,7.8,3.5,7.8,7.8s-3.5,7.6-7.8,7.6-7.7-3.4-7.7-7.6,3.4-7.8,7.7-7.8Z"/>
            <path class="cls-4" d="M938.6,721.69c4.3,0,7.7,3.5,7.7,7.91s-3.4,7.79-7.7,7.79-7.8-3.49-7.8-7.79,3.5-7.91,7.8-7.91Z"/>
            <path class="cls-4" d="M890.1,708.7c4.29,0,7.79,3.5,7.79,7.9s-3.5,7.8-7.79,7.8-7.7-3.5-7.7-7.8,3.49-7.9,7.7-7.9Z"/>
            <path class="cls-4" d="M840.5,698.7c5.6,0,10.1,4.51,10.1,10s-4.49,10.1-10.1,10.1-10.11-4.5-10.11-10.1,4.51-10,10.11-10Z"/>
            <path class="cls-4" d="M790.29,696.09c5.7,0,10.21,4.51,10.21,10.11s-4.51,9.99-10.21,9.99-9.99-4.5-9.99-9.99,4.5-10.11,9.99-10.11Z"/>
            <path class="cls-4" d="M740.2,700.9c4.3,0,7.8,3.5,7.8,7.8s-3.5,7.9-7.8,7.9-7.7-3.5-7.7-7.9,3.5-7.8,7.7-7.8Z"/>
            <path class="cls-4" d="M690.7,706.2c5.8,0,10.4,4.7,10.4,10.39s-4.61,10.4-10.4,10.4-10.4-4.7-10.4-10.4,4.61-10.39,10.4-10.39Z"/>
            <path class="cls-4" d="M642.2,718.8c6,0,10.79,4.8,10.79,10.8s-4.79,10.7-10.79,10.7-10.7-4.8-10.7-10.7,4.79-10.8,10.7-10.8Z"/>
            <path class="cls-4" d="M595.39,737.2c5.7,0,10.4,4.7,10.4,10.4s-4.7,10.39-10.4,10.39-10.39-4.7-10.39-10.39,4.6-10.4,10.39-10.4Z"/>
            <path class="cls-4" d="M550.59,759.3c6.21,0,11.2,4.8,11.2,11.1s-5,11.2-11.2,11.2-11.1-5-11.1-11.2,4.9-11.1,11.1-11.1Z"/>
            <path class="cls-4" d="M1085.5,750.4c4.3,0,7.7,3.5,7.7,7.6,0,4.3-3.4,7.8-7.7,7.8s-7.8-3.5-7.8-7.8,3.5-7.6,7.8-7.6Z"/>
            <path class="cls-4" d="M1042.89,723.9c4.21,0,7.7,3.4,7.7,7.8,0,4.1-3.49,7.6-7.7,7.6s-7.79-3.5-7.79-7.6c0-4.4,3.5-7.8,7.79-7.8Z"/>
            <path class="cls-4" d="M997.9,701.7c4.2,0,7.7,3.4,7.7,7.8,0,4.1-3.5,7.6-7.7,7.6s-7.7-3.5-7.7-7.6c0-4.4,3.5-7.8,7.7-7.8Z"/>
            <path class="cls-4" d="M951,683.8c4.2,0,7.7,3.5,7.7,7.8s-3.5,7.8-7.7,7.8-7.91-3.41-7.91-7.8,3.5-7.8,7.91-7.8Z"/>
            <path class="cls-4" d="M902.4,670.6c4.39,0,7.89,3.5,7.89,7.8s-3.5,7.79-7.89,7.79-7.7-3.49-7.7-7.79,3.5-7.8,7.7-7.8Z"/>
            <path class="cls-4" d="M853.09,662.1c4.2,0,7.7,3.5,7.7,7.8s-3.5,7.79-7.7,7.79-7.79-3.4-7.79-7.79,3.4-7.8,7.79-7.8Z"/>
            <path class="cls-4" d="M803,655.89c5.69,0,10.39,4.61,10.39,10.4s-4.7,10.4-10.39,10.4-10.51-4.7-10.51-10.4,4.7-10.4,10.51-10.4Z"/>
            <path class="cls-4" d="M752.79,659.7c4.21,0,7.7,3.49,7.7,7.79s-3.49,7.8-7.7,7.8-7.79-3.4-7.79-7.8,3.49-7.79,7.79-7.79Z"/>
            <path class="cls-4" d="M702.89,662.79c5.9,0,10.8,4.8,10.8,10.7s-4.9,10.8-10.8,10.8-10.7-4.8-10.7-10.8,4.8-10.7,10.7-10.7Z"/>
            <path class="cls-4" d="M654,676.7c4.2,0,7.7,3.4,7.7,7.6s-3.5,7.8-7.7,7.8-7.7-3.4-7.7-7.8,3.4-7.6,7.7-7.6Z"/>
            <path class="cls-4" d="M606.2,688.7c6.2,0,11.2,4.89,11.2,11.19s-5.01,11.1-11.2,11.1-11.1-4.79-11.1-11.1,4.89-11.19,11.1-11.19Z"/>
            <path class="cls-4" d="M560.2,708.39c6.4,0,11.4,5.2,11.4,11.6s-5,11.5-11.4,11.5-11.5-5.2-11.5-11.5,5.1-11.6,11.5-11.6Z"/>
            <path class="cls-4" d="M516.3,732.79c6.3,0,11.59,5.1,11.59,11.5s-5.29,11.6-11.59,11.6-11.6-5.2-11.6-11.6,5.2-11.5,11.6-11.5Z"/>
            <path class="cls-4" d="M474.99,761c6.61,0,12,5.1,12,11.9s-5.4,12-12,12-11.9-5.29-11.9-12,5.3-11.9,11.9-11.9Z"/>
            <path class="cls-4" d="M1139.2,739.59c4.7,0,8.5,3.8,8.5,8.7s-3.8,8.5-8.5,8.5-8.6-3.8-8.6-8.5,3.8-8.7,8.6-8.7Z"/>
            <path class="cls-4" d="M1098.49,710.09c4.8,0,8.7,3.81,8.7,8.6s-3.9,8.6-8.7,8.6-8.5-3.8-8.5-8.6,3.8-8.6,8.5-8.6Z"/>
            <path class="cls-4" d="M1055.49,684.4c4.7,0,8.5,3.9,8.5,8.6s-3.8,8.5-8.5,8.5-8.6-3.9-8.6-8.5,3.8-8.6,8.6-8.6Z"/>
            <path class="cls-4" d="M1010.19,663.5c4.4,0,7.91,3.49,7.91,7.6,0,4.4-3.5,7.8-7.91,7.8s-7.7-3.4-7.7-7.8c0-4.11,3.5-7.6,7.7-7.6Z"/>
            <path class="cls-4" d="M963.19,645.1c4.8,0,8.6,3.8,8.6,8.5s-3.8,8.5-8.6,8.5-8.4-3.8-8.4-8.5,3.8-8.5,8.4-8.5Z"/>
            <path class="cls-4" d="M914.89,632.4c4.3,0,7.7,3.49,7.7,7.9,0,4.1-3.4,7.6-7.7,7.6s-7.7-3.5-7.7-7.6c0-4.4,3.41-7.9,7.7-7.9Z"/>
            <path class="cls-4" d="M865.49,623.4c4.3,0,7.8,3.49,7.8,7.9s-3.5,7.7-7.8,7.7-7.79-3.4-7.79-7.7,3.49-7.9,7.79-7.9Z"/>
            <path class="cls-4" d="M815.49,618.9c4.3,0,7.8,3.5,7.8,7.8s-3.5,7.8-7.8,7.8-7.79-3.4-7.79-7.8,3.49-7.8,7.79-7.8Z"/>
            <path class="cls-4" d="M765.29,618.9c4.2,0,7.7,3.5,7.7,7.8s-3.5,7.8-7.7,7.8-7.8-3.4-7.8-7.8,3.5-7.8,7.8-7.8Z"/>
            <path class="cls-4" d="M715.39,623.4c4.2,0,7.7,3.49,7.7,7.9s-3.5,7.7-7.7,7.7-7.8-3.4-7.8-7.7,3.4-7.9,7.8-7.9Z"/>
            <path class="cls-4" d="M665.89,632.4c4.2,0,7.7,3.49,7.7,7.9,0,4.1-3.5,7.6-7.7,7.6s-7.7-3.5-7.7-7.6c0-4.4,3.5-7.9,7.7-7.9Z"/>
            <path class="cls-4" d="M617.49,645.1c4.8,0,8.6,3.8,8.6,8.5s-3.8,8.5-8.6,8.5-8.4-3.8-8.4-8.5,3.8-8.5,8.4-8.5Z"/>
            <path class="cls-4" d="M570.5,659.2c6.7,0,12,5.4,12,11.9s-5.3,12-12,12-12-5.2-12-12,5.4-11.9,12-11.9Z"/>
            <path class="cls-4" d="M525.3,680.6c6.89,0,12.4,5.59,12.4,12.4s-5.51,12.49-12.4,12.49-12.4-5.6-12.4-12.49,5.5-12.4,12.4-12.4Z"/>
            <path class="cls-4" d="M482.2,706.29c6.89,0,12.4,5.6,12.4,12.4s-5.51,12.4-12.4,12.4-12.31-5.6-12.31-12.4,5.51-12.4,12.31-12.4Z"/>
            <path class="cls-4" d="M441.5,735.8c7,0,12.5,5.6,12.5,12.5s-5.5,12.3-12.5,12.3-12.3-5.6-12.3-12.3,5.5-12.5,12.3-12.5Z"/>
            <path class="cls-4" d="M1227.29,766.89c4.8,0,8.6,3.8,8.6,8.41s-3.8,8.59-8.6,8.59-8.5-3.8-8.5-8.59,3.9-8.41,8.5-8.41Z"/>
            <path class="cls-4" d="M1191.49,731.7c4.7,0,8.5,3.8,8.5,8.4s-3.8,8.6-8.5,8.6-8.6-3.9-8.6-8.6,3.8-8.4,8.6-8.4Z"/>
            <path class="cls-4" d="M1152.8,699.49c4.7,0,8.5,4.11,8.5,8.7s-3.8,8.6-8.5,8.6-8.5-3.9-8.5-8.6,3.8-8.7,8.5-8.7Z"/>
            <path class="cls-4" d="M1111.5,670.89c4.79,0,8.6,3.9,8.6,8.6s-3.81,8.6-8.6,8.6-8.5-3.8-8.5-8.6,3.8-8.6,8.5-8.6Z"/>
            <path class="cls-4" d="M1068.09,646c4.7,0,8.5,3.8,8.5,8.5s-3.8,8.5-8.5,8.5-8.59-3.8-8.59-8.5,3.8-8.5,8.59-8.5Z"/>
            <path class="cls-4" d="M1022.59,624.5c4.9,0,8.7,3.8,8.7,8.7,0,4.6-3.8,8.4-8.7,8.4-4.6,0-8.4-3.8-8.4-8.4,0-4.9,3.8-8.7,8.4-8.7Z"/>
            <path class="cls-4" d="M975.59,607c4.7,0,8.5,3.8,8.5,8.6s-3.8,8.5-8.5,8.5-8.5-3.8-8.5-8.5,3.8-8.6,8.5-8.6Z"/>
            <path class="cls-4" d="M927.29,593.59c4.61,0,8.41,3.81,8.41,8.51s-3.8,8.5-8.41,8.5-8.59-3.8-8.59-8.5,3.8-8.51,8.59-8.51Z"/>
            <path class="cls-4" d="M877.89,584c4.8,0,8.6,3.8,8.6,8.7s-3.8,8.59-8.6,8.59-8.4-3.89-8.4-8.59,3.8-8.7,8.4-8.7Z"/>
            <path class="cls-4" d="M827.99,578.9c4.8,0,8.6,3.8,8.6,8.4s-3.8,8.6-8.6,8.6-8.5-3.8-8.5-8.6,3.8-8.4,8.5-8.4Z"/>
            <path class="cls-4" d="M777.8,577.8c4.7,0,8.6,3.8,8.6,8.59s-3.9,8.41-8.6,8.41-8.41-3.8-8.41-8.41,3.81-8.59,8.41-8.59Z"/>
            <path class="cls-4" d="M727.69,581c4.7,0,8.5,3.8,8.5,8.4,0,4.9-3.8,8.7-8.5,8.7s-8.5-3.8-8.5-8.7c0-4.6,3.9-8.4,8.5-8.4Z"/>
            <path class="cls-4" d="M678.19,588.4c4.6,0,8.41,3.8,8.41,8.5s-3.81,8.5-8.41,8.5c-4.89,0-8.69-3.8-8.69-8.5s3.8-8.5,8.69-8.5Z"/>
            <path class="cls-4" d="M629.19,599.9c4.7,0,8.5,3.8,8.5,8.4s-3.8,8.5-8.5,8.5-8.5-3.8-8.5-8.5,3.8-8.4,8.5-8.4Z"/>
            <path class="cls-4" d="M581.5,615.3c4.7,0,8.5,3.8,8.5,8.5s-3.8,8.5-8.5,8.5-8.6-3.9-8.6-8.5,3.8-8.5,8.6-8.5Z"/>
            <path class="cls-4" d="M535.19,634.7c4.7,0,8.5,3.8,8.5,8.5s-3.8,8.7-8.5,8.7-8.59-3.8-8.59-8.7,3.8-8.5,8.59-8.5Z"/>
            <path class="cls-4" d="M490.7,653.3c7.2,0,13.2,6,13.2,13.29s-6,13.2-13.2,13.2-13.2-5.9-13.2-13.2,5.9-13.29,13.2-13.29Z"/>
            <path class="cls-4" d="M448.29,679.79c7.6,0,13.6,6.1,13.6,13.7s-6,13.51-13.6,13.51-13.6-6.1-13.6-13.51,6.1-13.7,13.6-13.7Z"/>
            <path class="cls-4" d="M408.3,710.09c7.6,0,13.7,6.1,13.7,13.8s-6.1,13.5-13.7,13.5-13.6-6.09-13.6-13.5,6.09-13.8,13.6-13.8Z"/>
            <path class="cls-4" d="M370.89,743.3c7.91,0,14.2,6.2,14.2,14.1s-6.3,14-14.2,14-14-6.3-14-14,6.3-14.1,14-14.1Z"/>
            <path class="cls-4" d="M1276.6,761c5.2,0,9.4,4.11,9.4,9.4s-4.2,9.5-9.4,9.5-9.5-4.4-9.5-9.5,4.3-9.4,9.5-9.4Z"/>
            <path class="cls-4" d="M1242.5,724.19c5.19,0,9.4,4.21,9.4,9.4s-4.21,9.31-9.4,9.31-9.4-4.11-9.4-9.31,4.2-9.4,9.4-9.4Z"/>
            <path class="cls-4" d="M1205.7,690.89c4.6,0,8.4,3.81,8.4,8.51s-3.8,8.69-8.4,8.69-8.6-3.9-8.6-8.69,3.8-8.51,8.6-8.51Z"/>
            <path class="cls-4" d="M1166.1,659.79c4.79,0,8.6,3.9,8.6,8.6s-3.81,8.4-8.6,8.4-8.41-3.8-8.41-8.4,3.8-8.6,8.41-8.6Z"/>
            <path class="cls-4" d="M1124.49,631.9c4.6,0,8.5,3.8,8.5,8.6s-3.9,8.59-8.5,8.59-8.6-3.99-8.6-8.59,3.8-8.6,8.6-8.6Z"/>
            <path class="cls-4" d="M1080.59,607.5c4.8,0,8.6,3.8,8.6,8.4s-3.8,8.6-8.6,8.6-8.4-3.8-8.4-8.6,3.8-8.4,8.4-8.4Z"/>
            <path class="cls-4" d="M1035.1,586.5c4.6,0,8.4,3.8,8.4,8.5s-3.8,8.5-8.4,8.5-8.6-3.8-8.6-8.5,3.9-8.5,8.6-8.5Z"/>
            <path class="cls-4" d="M987.89,569c4.8,0,8.6,3.8,8.6,8.7,0,4.6-3.8,8.4-8.6,8.4s-8.5-3.8-8.5-8.4c0-4.9,3.8-8.7,8.5-8.7Z"/>
            <path class="cls-4" d="M939.6,555.4c4.79,0,8.59,3.9,8.59,8.5s-3.8,8.5-8.59,8.5-8.41-3.8-8.41-8.5,3.8-8.5,8.41-8.5Z"/>
            <path class="cls-4" d="M890.4,545.6c4.7,0,8.6,3.8,8.6,8.4,0,4.9-3.9,8.7-8.6,8.7s-8.5-3.8-8.5-8.7c0-4.6,3.8-8.4,8.5-8.4Z"/>
            <path class="cls-4" d="M840.5,539.6c4.8,0,8.69,3.8,8.69,8.6s-3.89,8.7-8.69,8.7-8.4-3.9-8.4-8.7,3.8-8.6,8.4-8.6Z"/>
            <path class="cls-4" d="M790.29,537.7c4.8,0,8.6,3.8,8.6,8.59s-3.8,8.5-8.6,8.5-8.4-3.89-8.4-8.5,3.8-8.59,8.4-8.59Z"/>
            <path class="cls-4" d="M740.2,539.6c4.7,0,8.5,3.8,8.5,8.6s-3.8,8.7-8.5,8.7-8.4-3.9-8.4-8.7,3.8-8.6,8.4-8.6Z"/>
            <path class="cls-4" d="M690.3,545.6c4.8,0,8.6,3.8,8.6,8.4,0,4.9-3.8,8.7-8.6,8.7s-8.4-3.8-8.4-8.7c0-4.6,3.8-8.4,8.4-8.4Z"/>
            <path class="cls-4" d="M641.2,555.4c4.6,0,8.5,3.9,8.5,8.5s-3.9,8.5-8.5,8.5-8.6-3.8-8.6-8.5,3.8-8.5,8.6-8.5Z"/>
            <path class="cls-4" d="M592.79,564.8c7.11,0,12.8,5.7,12.8,12.9s-5.69,12.6-12.8,12.6-12.7-5.69-12.7-12.6,5.7-12.9,12.7-12.9Z"/>
            <path class="cls-4" d="M545.7,586.5c4.8,0,8.6,3.8,8.6,8.5s-3.8,8.5-8.6,8.5-8.5-3.8-8.5-8.5,3.8-8.5,8.5-8.5Z"/>
            <path class="cls-4" d="M500.19,606.6c5.2,0,9.31,4.2,9.31,9.3s-4.1,9.5-9.31,9.5-9.49-4.3-9.49-9.5,4.3-9.3,9.49-9.3Z"/>
            <path class="cls-4" d="M456.29,626.89c7.51,0,13.7,6.1,13.7,13.61s-6.2,13.6-13.7,13.6-13.6-6-13.6-13.6,6.1-13.61,13.6-13.61Z"/>
            <path class="cls-4" d="M414.59,654.3c7.8,0,14,6.21,14,14.1s-6.2,14-14,14-14.1-6.2-14.1-14,6.3-14.1,14.1-14.1Z"/>
            <path class="cls-4" d="M375.19,685.9c7.51,0,13.6,6,13.6,13.51s-6.09,13.69-13.6,13.69-13.7-6.09-13.7-13.69,6.21-13.51,13.7-13.51Z"/>
            <path class="cls-4" d="M338.3,719.49c7.8,0,14.1,6.31,14.1,14.1s-6.3,14.01-14.1,14.01-14.1-6.21-14.1-14.01,6.4-14.1,14.1-14.1Z"/>
            <path class="cls-4" d="M304.2,755.9c8.1,0,14.5,6.4,14.5,14.5s-6.4,14.5-14.5,14.5-14.5-6.4-14.5-14.5,6.5-14.5,14.5-14.5Z"/>
            <path class="cls-4" d="M1324.9,756.1c5.5,0,10.1,4.5,10.1,10.2s-4.6,10.3-10.1,10.3-10.3-4.7-10.3-10.3,4.7-10.2,10.3-10.2Z"/>
            <path class="cls-4" d="M1292.4,718.5c5.19,0,9.4,4.3,9.4,9.49s-4.21,9.4-9.4,9.4-9.4-4.2-9.4-9.4,4.3-9.49,9.4-9.49Z"/>
            <path class="cls-4" d="M1257.19,681.9c5.6,0,10.3,4.6,10.3,10.2s-4.7,10.2-10.3,10.2-10.2-4.4-10.2-10.2,4.6-10.2,10.2-10.2Z"/>
            <path class="cls-4" d="M1219.5,649.59c5.19,0,9.4,4.2,9.4,9.4s-4.21,9.4-9.4,9.4-9.4-4.3-9.4-9.4,4.2-9.4,9.4-9.4Z"/>
            <path class="cls-4" d="M1179.49,619.19c5.1,0,9.4,4.4,9.4,9.61s-4.3,9.3-9.4,9.3-9.49-4.1-9.49-9.3,4.29-9.61,9.49-9.61Z"/>
            <path class="cls-4" d="M1137.29,592.2c5.2,0,9.4,4.2,9.4,9.4s-4.2,9.4-9.4,9.4-9.4-4.2-9.4-9.4,4.2-9.4,9.4-9.4Z"/>
            <path class="cls-4" d="M1093.2,569c4.79,0,8.59,3.8,8.59,8.5s-3.8,8.6-8.59,8.6-8.51-4-8.51-8.6,3.81-8.5,8.51-8.5Z"/>
            <path class="cls-4" d="M1047.5,547.5c5.1,0,9.4,4.1,9.4,9.4s-4.3,9.3-9.4,9.3-9.5-4.2-9.5-9.3,4.3-9.4,9.5-9.4Z"/>
            <path class="cls-4" d="M1000.29,531c4.8,0,8.6,3.8,8.6,8.5s-3.8,8.7-8.6,8.7-8.5-3.9-8.5-8.7,3.8-8.5,8.5-8.5Z"/>
            <path class="cls-4" d="M951.99,516.39c5.2,0,9.4,4.21,9.4,9.4s-4.2,9.31-9.4,9.31-9.39-4.11-9.39-9.31,4.2-9.4,9.39-9.4Z"/>
            <path class="cls-4" d="M902.9,506.19c5.19,0,9.4,4.3,9.4,9.61s-4.21,9.3-9.4,9.3-9.4-4.2-9.4-9.3,4.2-9.61,9.4-9.61Z"/>
            <path class="cls-4" d="M853.09,500.59c4.7,0,8.5,3.81,8.5,8.51s-3.8,8.69-8.5,8.69-8.6-3.8-8.6-8.69,3.81-8.51,8.6-8.51Z"/>
            <path class="cls-4" d="M803,497.9c4.6,0,8.5,3.8,8.5,8.4,0,4.9-3.9,8.7-8.5,8.7s-8.6-3.8-8.6-8.7c0-4.6,3.8-8.4,8.6-8.4Z"/>
            <path class="cls-4" d="M752.7,498.89c4.7,0,8.59,3.9,8.59,8.51s-3.89,8.5-8.59,8.5-8.5-3.8-8.5-8.5,3.8-8.51,8.5-8.51Z"/>
            <path class="cls-4" d="M702.8,502.5c5.19,0,9.4,4.2,9.4,9.4s-4.21,9.59-9.4,9.59-9.4-4.39-9.4-9.59,4.1-9.4,9.4-9.4Z"/>
            <path class="cls-4" d="M653.2,510.89c5.2,0,9.5,4.11,9.5,9.31s-4.3,9.59-9.5,9.59-9.4-4.3-9.4-9.59,4.3-9.31,9.4-9.31Z"/>
            <path class="cls-4" d="M604.5,522.79c5.2,0,9.4,4.21,9.4,9.4s-4.2,9.61-9.4,9.61-9.4-4.4-9.4-9.61,4.2-9.4,9.4-9.4Z"/>
            <path class="cls-4" d="M556.7,538.3c5.2,0,9.4,4.3,9.4,9.5s-4.2,9.4-9.4,9.4-9.4-4.2-9.4-9.4,4.3-9.5,9.4-9.5Z"/>
            <path class="cls-4" d="M510.2,557.39c5.2,0,9.5,4.11,9.5,9.31s-4.3,9.4-9.5,9.4-9.4-4.21-9.4-9.4,4.3-9.31,9.4-9.31Z"/>
            <path class="cls-4" d="M465.29,579.7c5.2,0,9.5,4.2,9.5,9.4s-4.3,9.5-9.5,9.5-9.4-4.3-9.4-9.5,4.2-9.4,9.4-9.4Z"/>
            <path class="cls-4" d="M422.09,605.4c5.3,0,9.5,4.1,9.5,9.4s-4.2,9.3-9.5,9.3-9.3-4.1-9.3-9.3,4.11-9.4,9.3-9.4Z"/>
            <path class="cls-4" d="M381,628.9c8,0,14.5,6.7,14.5,14.6s-6.5,14.4-14.5,14.4-14.5-6.3-14.5-14.4,6.5-14.6,14.5-14.6Z"/>
            <path class="cls-4" d="M342.1,660.19c8.2,0,15,6.8,15,15.1s-6.8,14.9-15,14.9-15-6.7-15-14.9,6.7-15.1,15-15.1Z"/>
            <path class="cls-4" d="M305.59,694.7c8.3,0,15,6.8,15,15.09s-6.7,14.9-15,14.9-14.9-6.8-14.9-14.9,6.71-15.09,14.9-15.09Z"/>
            <path class="cls-4" d="M271.8,731.49c8.5,0,15.4,6.71,15.4,15.4s-6.9,15.3-15.4,15.3-15.4-6.7-15.4-15.3,6.8-15.4,15.4-15.4Z"/>
            <path class="cls-4" d="M1372.29,752.6c5.6,0,10.21,4.5,10.21,10.3s-4.61,10.2-10.21,10.2-10.1-4.6-10.1-10.2,4.4-10.3,10.1-10.3Z"/>
            <path class="cls-4" d="M1341.4,713.09c5.69,0,10.2,4.51,10.2,10.21s-4.51,10.1-10.2,10.1-10.2-4.51-10.2-10.1,4.6-10.21,10.2-10.21Z"/>
            <path class="cls-4" d="M1307.8,675.8c5.69,0,10.2,4.5,10.2,10.2s-4.51,10.1-10.2,10.1-10.21-4.5-10.21-10.1,4.61-10.2,10.21-10.2Z"/>
            <path class="cls-4" d="M1271.69,640.99c5.6,0,10.2,4.4,10.2,10.11s-4.6,10.1-10.2,10.1-10.2-4.5-10.2-10.1,4.6-10.11,10.2-10.11Z"/>
            <path class="cls-4" d="M1233.19,608.7c5.7,0,10.21,4.51,10.21,10,0,5.8-4.51,10.2-10.21,10.2s-10.1-4.4-10.1-10.2,4.4-10,10.1-10Z"/>
            <path class="cls-4" d="M1192.69,579.19c5.6,0,10.11,4.51,10.11,10.11s-4.51,10.2-10.11,10.2-10.3-4.51-10.3-10.2,4.61-10.11,10.3-10.11Z"/>
            <path class="cls-4" d="M1150.09,552.5c5.6,0,10.11,4.5,10.11,10.2s-4.51,10.2-10.11,10.2-10.3-4.6-10.3-10.2,4.61-10.2,10.3-10.2Z"/>
            <path class="cls-4" d="M1105.69,529.8c5.3,0,9.4,4.1,9.4,9.3s-4.1,9.4-9.4,9.4-9.4-4.2-9.4-9.4,4.2-9.3,9.4-9.3Z"/>
            <path class="cls-4" d="M1059.8,508.6c5.69,0,10.2,4.5,10.2,10.1s-4.51,10.2-10.2,10.2-10.1-4.5-10.1-10.2,4.5-10.1,10.1-10.1Z"/>
            <path class="cls-4" d="M1012.69,492.09c5.2,0,9.4,4.21,9.4,9.4s-4.2,9.5-9.4,9.5-9.4-4.3-9.4-9.5,4.2-9.4,9.4-9.4Z"/>
            <path class="cls-4" d="M964.39,478.2c5.2,0,9.4,4.3,9.4,9.4s-4.2,9.59-9.4,9.59-9.4-4.39-9.4-9.59,4.21-9.4,9.4-9.4Z"/>
            <path class="cls-4" d="M915.3,467.9c5.19,0,9.39,4.1,9.39,9.3s-4.2,9.61-9.39,9.61-9.5-4.3-9.5-9.61,4.3-9.3,9.5-9.3Z"/>
            <path class="cls-4" d="M865.6,460.9c5.2,0,9.4,4.2,9.4,9.39s-4.2,9.31-9.4,9.31-9.4-4.11-9.4-9.31,4.2-9.39,9.4-9.39Z"/>
            <path class="cls-4" d="M815.49,457.4c5.2,0,9.5,4.2,9.5,9.4s-4.3,9.4-9.5,9.4-9.3-4.21-9.3-9.4,4.11-9.4,9.3-9.4Z"/>
            <path class="cls-4" d="M765.29,457.4c5.1,0,9.5,4.2,9.5,9.4s-4.4,9.4-9.5,9.4-9.4-4.21-9.4-9.4,4.2-9.4,9.4-9.4Z"/>
            <path class="cls-4" d="M715.29,460.9c5.1,0,9.3,4.2,9.3,9.39s-4.2,9.31-9.3,9.31-9.49-4.11-9.49-9.31,4.2-9.39,9.49-9.39Z"/>
            <path class="cls-4" d="M665.5,467.9c5.2,0,9.4,4.1,9.4,9.3s-4.2,9.61-9.4,9.61-9.4-4.3-9.4-9.61,4.2-9.3,9.4-9.3Z"/>
            <path class="cls-4" d="M616.29,477.59c5.81,0,10.3,4.4,10.3,10s-4.5,10.3-10.3,10.3-10.1-4.6-10.1-10.3,4.5-10,10.1-10Z"/>
            <path class="cls-4" d="M568.19,492.09c5.1,0,9.4,4.21,9.4,9.4s-4.3,9.5-9.4,9.5-9.5-4.3-9.5-9.5,4.3-9.4,9.5-9.4Z"/>
            <path class="cls-4" d="M521,508.6c5.5,0,10.2,4.5,10.2,10.1s-4.7,10.2-10.2,10.2-10.2-4.5-10.2-10.2,4.5-10.1,10.2-10.1Z"/>
            <path class="cls-4" d="M474.99,528.9c5.71,0,10.3,4.7,10.3,10.2s-4.6,10.3-10.3,10.3-10.1-4.7-10.1-10.3,4.51-10.2,10.1-10.2Z"/>
            <path class="cls-4" d="M430.79,547.3c8.5,0,15.4,6.9,15.4,15.4s-6.9,15.4-15.4,15.4-15.5-6.9-15.5-15.4,6.9-15.4,15.5-15.4Z"/>
            <path class="cls-4" d="M388.2,573.99c8.4,0,15.4,6.8,15.4,15.31s-7,15.39-15.4,15.39-15.4-6.89-15.4-15.39,6.8-15.31,15.4-15.31Z"/>
            <path class="cls-4" d="M347.59,603.49c8.4,0,15.4,6.71,15.4,15.21s-7,15.49-15.4,15.49-15.5-6.8-15.5-15.49,6.9-15.21,15.5-15.21Z"/>
            <path class="cls-4" d="M309,634.9c9.09,0,16.4,7.3,16.4,16.2s-7.3,16.2-16.4,16.2-16.21-7.3-16.21-16.2,7.3-16.2,16.21-16.2Z"/>
            <path class="cls-4" d="M273,669.7c9,0,16.2,7.3,16.2,16.3s-7.2,16.2-16.2,16.2-16.3-7.3-16.3-16.2,7.3-16.3,16.3-16.3Z"/>
            <path class="cls-4" d="M239.49,706.5c9.21,0,16.8,7.4,16.8,16.8s-7.6,16.79-16.8,16.79-17-7.6-17-16.79,7.7-16.8,17-16.8Z"/>
            <path class="cls-4" d="M208.49,745.49c9.5,0,17.31,7.8,17.31,17.41s-7.8,17.19-17.31,17.19-17.3-7.7-17.3-17.19,7.7-17.41,17.3-17.41Z"/>
            <path class="cls-4" d="M1357.39,670.6c5.6,0,10.2,4.5,10.2,10,0,5.8-4.6,10.29-10.2,10.29s-10.1-4.5-10.1-10.29,4.4-10,10.1-10Z"/>
            <path class="cls-4" d="M1322.79,634.19c5.7,0,10.21,4.51,10.21,10.2s-4.51,10.11-10.21,10.11-10.29-4.51-10.29-10.11,4.7-10.2,10.29-10.2Z"/>
            <path class="cls-4" d="M1285.89,600.2c5.6,0,10.2,4.5,10.2,10.2s-4.6,10.1-10.2,10.1-10.3-4.6-10.3-10.1,4.6-10.2,10.3-10.2Z"/>
            <path class="cls-4" d="M1246.8,568.6c5.59,0,10.2,4.51,10.2,10.3s-4.61,10.2-10.2,10.2-10.21-4.7-10.21-10.2c0-5.8,4.51-10.3,10.21-10.3Z"/>
            <path class="cls-4" d="M1205.7,539.8c5.6,0,10.2,4.5,10.2,10.29s-4.6,10-10.2,10-10.2-4.5-10.2-10c0-5.8,4.5-10.29,10.2-10.29Z"/>
            <path class="cls-4" d="M1162.79,513.8c5.6,0,10.11,4.5,10.11,10.1s-4.51,10.2-10.11,10.2-10.2-4.51-10.2-10.2,4.61-10.1,10.2-10.1Z"/>
            <path class="cls-4" d="M1118.3,490.6c5.6,0,10.1,4.4,10.1,10.2s-4.5,10.2-10.1,10.2-10.3-4.7-10.3-10.2c0-5.8,4.6-10.2,10.3-10.2Z"/>
            <path class="cls-4" d="M1072.2,470.39c5.69,0,10.2,4.6,10.2,10.3s-4.51,10-10.2,10-10.2-4.4-10.2-10,4.6-10.3,10.2-10.3Z"/>
            <path class="cls-4" d="M1024.99,453.29c5.6,0,10.2,4.61,10.2,10.2s-4.6,10.3-10.2,10.3-10.2-4.5-10.2-10.3,4.51-10.2,10.2-10.2Z"/>
            <path class="cls-4" d="M976.7,439.4c5.8,0,10.29,4.5,10.29,10.2s-4.49,10.2-10.29,10.2-10.11-4.6-10.11-10.2,4.51-10.2,10.11-10.2Z"/>
            <path class="cls-4" d="M927.69,428.7c5.6,0,10.3,4.6,10.3,10.2s-4.7,10.2-10.3,10.2-10.1-4.5-10.1-10.2,4.51-10.2,10.1-10.2Z"/>
            <path class="cls-4" d="M878.1,421.2c5.6,0,10.2,4.7,10.2,10.2s-4.6,10.3-10.2,10.3-10.2-4.61-10.2-10.3,4.5-10.2,10.2-10.2Z"/>
            <path class="cls-4" d="M827.99,417.2c5.7,0,10.2,4.5,10.2,10.1s-4.5,10.2-10.2,10.2-10.2-4.5-10.2-10.2,4.6-10.1,10.2-10.1Z"/>
            <path class="cls-4" d="M777.8,416.3c5.69,0,10.3,4.5,10.3,10.1s-4.61,10.2-10.3,10.2-10.2-4.39-10.2-10.2,4.6-10.1,10.2-10.1Z"/>
            <path class="cls-4" d="M727.69,418.69c5.5,0,10.2,4.61,10.2,10.3s-4.7,10.2-10.2,10.2-10.2-4.6-10.2-10.2,4.6-10.3,10.2-10.3Z"/>
            <path class="cls-4" d="M677.79,424.69c5.7,0,10.2,4.51,10.2,10s-4.5,10.2-10.2,10.2-10.2-4.5-10.2-10.2,4.7-10,10.2-10Z"/>
            <path class="cls-4" d="M628.4,433.69c5.7,0,10.2,4.51,10.2,10.2s-4.5,10.11-10.2,10.11-10.1-4.51-10.1-10.11,4.5-10.2,10.1-10.2Z"/>
            <path class="cls-4" d="M579.8,445.99c5.6,0,10.2,4.51,10.2,10.3,0,5.41-4.6,10-10.2,10s-10.3-4.6-10.3-10c0-5.8,4.7-10.3,10.3-10.3Z"/>
            <path class="cls-4" d="M532,461.39c5.6,0,10.3,4.7,10.3,10.3s-4.7,10.2-10.3,10.2-10.1-4.5-10.1-10.2,4.49-10.3,10.1-10.3Z"/>
            <path class="cls-4" d="M485.39,480.1c5.7,0,10.1,4.6,10.1,10.29s-4.39,10-10.1,10-10.2-4.4-10.2-10,4.6-10.29,10.2-10.29Z"/>
            <path class="cls-4" d="M440.19,501.8c5.6,0,10.1,4.5,10.1,10.3s-4.5,9.99-10.1,9.99-10.3-4.4-10.3-9.99,4.6-10.3,10.3-10.3Z"/>
            <path class="cls-4" d="M396.4,526.4c5.6,0,10.2,4.6,10.2,10.3s-4.6,9.99-10.2,9.99-10.11-4.39-10.11-9.99,4.4-10.3,10.11-10.3Z"/>
            <path class="cls-4" d="M354.29,553.9c5.6,0,10.3,4.39,10.3,10.2s-4.7,10.2-10.3,10.2-10.1-4.6-10.1-10.2,4.5-10.2,10.1-10.2Z"/>
            <path class="cls-4" d="M314.29,577.5c9.21,0,16.8,7.4,16.8,16.8s-7.6,16.79-16.8,16.79-16.9-7.39-16.9-16.79,7.5-16.8,16.9-16.8Z"/>
            <path class="cls-4" d="M276.19,610.2c9.21,0,16.8,7.5,16.8,16.79s-7.6,16.91-16.8,16.91-16.9-7.7-16.9-16.91,7.6-16.79,16.9-16.79Z"/>
            <path class="cls-4" d="M240.39,644.89c9.5,0,17.31,7.8,17.31,17.31s-7.8,17.3-17.31,17.3-17.29-7.6-17.29-17.3,7.7-17.31,17.29-17.31Z"/>
            <path class="cls-4" d="M207,682.39c9.49,0,17.19,7.8,17.19,17.41s-7.7,17.3-17.19,17.3-17.31-7.8-17.31-17.3,7.7-17.41,17.31-17.41Z"/>
            <path class="cls-4" d="M176.2,722.09c9.59,0,17.29,7.7,17.29,17.2s-7.7,17.3-17.29,17.3-17.4-7.79-17.4-17.3,7.79-17.2,17.4-17.2Z"/>
            <path class="cls-4" d="M148,763.2c9.8,0,17.69,8,17.69,17.7s-7.9,17.69-17.69,17.69-17.7-7.8-17.7-17.69,7.9-17.7,17.7-17.7Z"/>
            <path class="cls-4" d="M1373,627.39c6.2,0,11,5.01,11,11.1s-4.8,11.1-11,11.1-11.1-5-11.1-11.1,4.89-11.1,11.1-11.1Z"/>
            <path class="cls-4" d="M1337.6,592.1c6,0,11,4.8,11,10.8,0,6.3-5,11.1-11,11.1s-11.1-4.8-11.1-11.1,4.89-10.8,11.1-10.8Z"/>
            <path class="cls-4" d="M1299.79,558.8c6.21,0,11.1,4.9,11.1,11.1s-4.89,11.1-11.1,11.1-11-5.1-11-11.1,4.9-11.1,11-11.1Z"/>
            <path class="cls-4" d="M1260.19,528.9c5.5,0,10.1,4.51,10.1,10.2s-4.6,10.11-10.1,10.11-10.2-4.51-10.2-10.11,4.6-10.2,10.2-10.2Z"/>
            <path class="cls-4" d="M1218.69,500.59c5.6,0,10.11,4.61,10.11,10.3s-4.51,10.2-10.11,10.2-10.29-4.7-10.29-10.2,4.6-10.3,10.29-10.3Z"/>
            <path class="cls-4" d="M1175.29,474.3c6.3,0,11.1,4.8,11.1,10.91s-4.8,11.1-11.1,11.1-11-4.9-11-11.1,5-10.91,11-10.91Z"/>
            <path class="cls-4" d="M1130.6,452.2c5.7,0,10.3,4.7,10.3,10.3s-4.6,10.2-10.3,10.2-10.1-4.51-10.1-10.2,4.6-10.3,10.1-10.3Z"/>
            <path class="cls-4" d="M1084.5,432.3c5.8,0,10.3,4.7,10.3,10.2s-4.51,10.29-10.3,10.29-10.1-4.6-10.1-10.29,4.5-10.2,10.1-10.2Z"/>
            <path class="cls-4" d="M1037.3,415.29c5.69,0,10.29,4.7,10.29,10.2s-4.6,10.21-10.29,10.21-10.11-4.61-10.11-10.21,4.6-10.2,10.11-10.2Z"/>
            <path class="cls-4" d="M989.1,401.3c5.69,0,10.29,4.6,10.29,10.2s-4.6,10.2-10.29,10.2-10.11-4.5-10.11-10.2,4.51-10.2,10.11-10.2Z"/>
            <path class="cls-4" d="M940.19,390.3c5.6,0,10.1,4.7,10.1,10.3s-4.5,10.2-10.1,10.2-10.3-4.51-10.3-10.2,4.61-10.3,10.3-10.3Z"/>
            <path class="cls-4" d="M890.59,382.49c5.51,0,10.2,4.51,10.2,10.2s-4.69,10.3-10.2,10.3-10.2-4.7-10.2-10.3,4.51-10.2,10.2-10.2Z"/>
            <path class="cls-4" d="M840.5,377.79c5.69,0,10.3,4.6,10.3,10.3s-4.61,10-10.3,10-10.11-4.51-10.11-10,4.51-10.3,10.11-10.3Z"/>
            <path class="cls-4" d="M790.29,376.2c5.7,0,10.3,4.6,10.3,10.1,0,5.81-4.6,10.2-10.3,10.2s-10.1-4.39-10.1-10.2c0-5.5,4.6-10.1,10.1-10.1Z"/>
            <path class="cls-4" d="M740.2,377.79c5.6,0,10.3,4.6,10.3,10.3s-4.7,10-10.3,10-10.2-4.51-10.2-10,4.6-10.3,10.2-10.3Z"/>
            <path class="cls-4" d="M690.19,382.49c5.6,0,10.2,4.51,10.2,10.2s-4.6,10.3-10.2,10.3-10.1-4.7-10.1-10.3,4.39-10.2,10.1-10.2Z"/>
            <path class="cls-4" d="M640.69,390.3c5.6,0,10.1,4.7,10.1,10.3s-4.5,10.2-10.1,10.2-10.3-4.51-10.3-10.2,4.7-10.3,10.3-10.3Z"/>
            <path class="cls-4" d="M591.7,401.3c5.6,0,10.1,4.6,10.1,10.2s-4.5,10.2-10.1,10.2-10.2-4.5-10.2-10.2,4.49-10.2,10.2-10.2Z"/>
            <path class="cls-4" d="M543.39,415.29c5.71,0,10.2,4.7,10.2,10.2s-4.5,10.21-10.2,10.21-10.2-4.61-10.2-10.21,4.6-10.2,10.2-10.2Z"/>
            <path class="cls-4" d="M496.2,432.3c5.6,0,10.2,4.7,10.2,10.2s-4.6,10.29-10.2,10.29-10.3-4.6-10.3-10.29,4.7-10.2,10.3-10.2Z"/>
            <path class="cls-4" d="M450.1,452.2c5.69,0,10.2,4.7,10.2,10.3s-4.51,10.2-10.2,10.2-10.2-4.51-10.2-10.2,4.6-10.3,10.2-10.3Z"/>
            <path class="cls-4" d="M405.4,474.3c6.09,0,11,4.8,11,10.91s-4.9,11.1-11,11.1-11.1-4.9-11.1-11.1,5-10.91,11.1-10.91Z"/>
            <path class="cls-4" d="M362.2,499.79c6.1,0,11.1,5.01,11.1,11.1s-5,11.1-11.1,11.1-11.1-5.1-11.1-11.1,4.89-11.1,11.1-11.1Z"/>
            <path class="cls-4" d="M320.59,527.99c6.21,0,11.1,4.9,11.1,11.1s-4.89,11-11.1,11-11.1-4.89-11.1-11,5.01-11.1,11.1-11.1Z"/>
            <path class="cls-4" d="M280.99,558.8c6.1,0,11.1,4.9,11.1,11.1s-5,11.1-11.1,11.1-11.1-5.1-11.1-11.1,5-11.1,11.1-11.1Z"/>
            <path class="cls-4" d="M243.3,584.8c10.1,0,18.2,8.1,18.2,18.1s-8.1,18.4-18.2,18.4-18.31-8.1-18.31-18.4,8.2-18.1,18.31-18.1Z"/>
            <path class="cls-4" d="M207.8,620.3c10.1,0,18.2,8.1,18.2,18.2s-8.1,18.21-18.2,18.21-18.21-8.1-18.21-18.21,8.1-18.2,18.21-18.2Z"/>
            <path class="cls-4" d="M174.69,657.4c10.2,0,18.7,8.5,18.7,18.8s-8.5,18.7-18.7,18.7-18.8-8.4-18.8-18.7,8.3-18.8,18.8-18.8Z"/>
            <path class="cls-4" d="M143.8,697.6c10.1,0,18.4,8.2,18.4,18.2s-8.3,18.3-18.4,18.3-18.3-8.1-18.3-18.3,8.19-18.2,18.3-18.2Z"/>
            <path class="cls-4" d="M115.6,738.5c10.3,0,18.7,8.6,18.7,18.9s-8.4,18.7-18.7,18.7-18.7-8.41-18.7-18.7,8.29-18.9,18.7-18.9Z"/>
            <path class="cls-4" d="M1351.89,550.9c6.1,0,11.1,5,11.1,11.1s-5,11.1-11.1,11.1-11.1-5.01-11.1-11.1,5.01-11.1,11.1-11.1Z"/>
            <path class="cls-4" d="M1313.6,518.5c6.1,0,11.1,4.89,11.1,11.09s-5,11.1-11.1,11.1-11.1-5.1-11.1-11.1,5.1-11.09,11.1-11.09Z"/>
            <path class="cls-4" d="M1273.39,488.29c6.1,0,11.1,5.01,11.1,11.1s-5,11.1-11.1,11.1-11.1-5-11.1-11.1,5.01-11.1,11.1-11.1Z"/>
            <path class="cls-4" d="M1231.59,460.7c6,0,11,4.89,11,11.1s-5,11-11,11-11.1-4.89-11.1-11,4.9-11.1,11.1-11.1Z"/>
            <path class="cls-4" d="M1187.99,435.6c6.21,0,11.1,5,11.1,11.1s-4.89,11.1-11.1,11.1-11.1-5.01-11.1-11.1,5.1-11.1,11.1-11.1Z"/>
            <path class="cls-4" d="M1143.1,413c6.09,0,11.1,5.1,11.1,11.1,0,6.3-5.01,11.1-11.1,11.1s-11.1-4.8-11.1-11.1,5.1-11.1,11.1-11.1Z"/>
            <path class="cls-4" d="M1097,393.49c6,0,11.1,4.8,11.1,11.1s-5.1,10.91-11.1,10.91-11.1-4.9-11.1-10.91c0-6.3,4.89-11.1,11.1-11.1Z"/>
            <path class="cls-4" d="M1049.7,377.29c5.69,0,10.1,4.51,10.1,10.3s-4.4,10.2-10.1,10.2-10.11-4.7-10.11-10.2c0-5.8,4.51-10.3,10.11-10.3Z"/>
            <path class="cls-4" d="M1001.49,362.39c6.21,0,11.1,4.9,11.1,11.1s-4.89,11.1-11.1,11.1-11-5-11-11.1,4.8-11.1,11-11.1Z"/>
            <path class="cls-4" d="M952.59,351.1c6.1,0,11,5.1,11,11.1,0,6.3-4.89,11.1-11,11.1s-11.1-4.8-11.1-11.1,4.9-11.1,11.1-11.1Z"/>
            <path class="cls-4" d="M903.09,343c6,0,11,5,11,11.1s-5,11-11,11-11.1-4.89-11.1-11,4.9-11.1,11.1-11.1Z"/>
            <path class="cls-4" d="M853.09,338.6c5.7,0,10.11,4.6,10.11,10.3s-4.4,10-10.11,10-10.2-4.51-10.2-10,4.6-10.3,10.2-10.3Z"/>
            <path class="cls-4" d="M803,336.39c5.6,0,10.1,4.51,10.1,10.3,0,5.41-4.5,10-10.1,10s-10.3-4.6-10.3-10c0-5.8,4.6-10.3,10.3-10.3Z"/>
            <path class="cls-4" d="M752.7,337.1c5.69,0,10.2,4.5,10.2,10.2s-4.51,10.2-10.2,10.2-10.2-4.6-10.2-10.2,4.69-10.2,10.2-10.2Z"/>
            <path class="cls-4" d="M702.7,340c6.09,0,11.1,4.89,11.1,11.1s-5.01,11-11.1,11-11-4.89-11-11,4.79-11.1,11-11.1Z"/>
            <path class="cls-4" d="M652.99,346.8c6,0,11,4.8,11,10.9s-5,11.1-11,11.1-11.1-4.79-11.1-11.1,4.9-10.9,11.1-10.9Z"/>
            <path class="cls-4" d="M603.7,356.5c6.1,0,11.1,4.8,11.1,11s-5,11.1-11.1,11.1-11.1-4.89-11.1-11.1,4.89-11,11.1-11Z"/>
            <path class="cls-4" d="M555,369c6.2,0,11.1,5,11.1,11.1s-4.9,11.1-11.1,11.1-11-4.9-11-11.1,4.89-11.1,11-11.1Z"/>
            <path class="cls-4" d="M507.3,384.59c6.09,0,11.1,4.9,11.1,11.1s-5.01,11.1-11.1,11.1-11.1-5-11.1-11.1,5-11.1,11.1-11.1Z"/>
            <path class="cls-4" d="M460.7,403c6,0,11,4.8,11,10.91s-5,11.1-11,11.1-11.1-4.8-11.1-11.1,4.91-10.91,11.1-10.91Z"/>
            <path class="cls-4" d="M414.99,424c6.1,0,11.1,5,11.1,11.1s-5,11.1-11.1,11.1-11.1-5.1-11.1-11.1,5.1-11.1,11.1-11.1Z"/>
            <path class="cls-4" d="M370.8,447.69c6.19,0,11.1,5.1,11.1,11.1,0,6.31-4.91,11.1-11.1,11.1s-11.1-4.79-11.1-11.1,5-11.1,11.1-11.1Z"/>
            <path class="cls-4" d="M328.1,474.3c6.09,0,11.1,4.8,11.1,10.91s-5.01,11.1-11.1,11.1-11.1-4.9-11.1-11.1,5-10.91,11.1-10.91Z"/>
            <path class="cls-4" d="M286.99,503.1c6.21,0,11.1,5,11.1,11.1s-4.89,11.1-11.1,11.1-11.1-5.1-11.1-11.1,5.1-11.1,11.1-11.1Z"/>
            <path class="cls-4" d="M247.8,534.5c6.1,0,11,4.8,11,11.1s-4.89,10.8-11,10.8-11.1-4.8-11.1-10.8c0-6.3,5-11.1,11.1-11.1Z"/>
            <path class="cls-4" d="M210.49,560.3c10.3,0,18.71,8.5,18.71,18.79s-8.41,18.71-18.71,18.71-18.7-8.41-18.7-18.71,8.3-18.79,18.7-18.79Z"/>
            <path class="cls-4" d="M175.19,596.19c10.4,0,18.8,8.3,18.8,18.71s-8.4,18.6-18.8,18.6-18.7-8.4-18.7-18.6,8.4-18.71,18.7-18.71Z"/>
            <path class="cls-4" d="M142.19,633.5c10.61,0,19.2,8.4,19.2,19.2s-8.59,19.2-19.2,19.2-19.2-8.6-19.2-19.2,8.7-19.2,19.2-19.2Z"/>
            <path class="cls-4" d="M111.49,672.7c11.01,0,19.7,8.8,19.7,19.8s-8.69,19.5-19.7,19.5-19.79-8.8-19.79-19.5,8.9-19.8,19.79-19.8Z"/>
            <path class="cls-4" d="M83.3,713.59c11,0,20,9.21,20,20.31s-9,20.1-20,20.1-20.2-9-20.2-20.1,8.9-20.31,20.2-20.31Z"/>
            <path class="cls-4" d="M57.5,757.4c10.8,0,19.6,8.59,19.6,19.5s-8.8,19.79-19.6,19.79-19.7-8.9-19.7-19.79,8.81-19.5,19.7-19.5Z"/>
            <path class="cls-4" d="M1366.1,510.2c6.1,0,11.1,4.8,11.1,11.1s-5,11-11.1,11-11.1-4.89-11.1-11,5-11.1,11.1-11.1Z"/>
            <path class="cls-4" d="M1327.19,478.39c6.1,0,11.1,4.9,11.1,10.91,0,6.3-5,11.1-11.1,11.1s-11-4.8-11-11.1,4.89-10.91,11-10.91Z"/>
            <path class="cls-4" d="M1286.59,448.7c6.1,0,11,5.1,11,11.1,0,6.3-4.89,11.1-11,11.1s-11.1-4.8-11.1-11.1,5.01-11.1,11.1-11.1Z"/>
            <path class="cls-4" d="M1244.39,421.69c6.1,0,11.1,5.1,11.1,11.1s-5,11.1-11.1,11.1-11.1-5-11.1-11.1,4.9-11.1,11.1-11.1Z"/>
            <path class="cls-4" d="M1200.7,397.1c6,0,11,4.8,11,11s-5,11.1-11,11.1-11.1-4.89-11.1-11.1,5-11,11.1-11Z"/>
            <path class="cls-4" d="M1155.59,374.9c6.1,0,11.1,4.8,11.1,11.1s-5,11.1-11.1,11.1-11.1-5-11.1-11.1,4.9-11.1,11.1-11.1Z"/>
            <path class="cls-4" d="M1109.3,355.3c6.1,0,11.1,5,11.1,11.1s-5,11.1-11.1,11.1-11-5.1-11-11.1,5-11.1,11-11.1Z"/>
            <path class="cls-4" d="M1062,338.49c6.19,0,11.1,4.8,11.1,11.1s-4.91,11.1-11.1,11.1-11.01-5.1-11.01-11.1c0-6.3,5.01-11.1,11.01-11.1Z"/>
            <path class="cls-4" d="M1013.89,324.2c6.1,0,11.1,5.1,11.1,11.1,0,6.3-5,11.1-11.1,11.1s-11.1-4.8-11.1-11.1,4.9-11.1,11.1-11.1Z"/>
            <path class="cls-4" d="M964.99,312.89c6,0,11.1,4.9,11.1,11.1s-5.1,11.1-11.1,11.1-11.1-4.89-11.1-11.1,5-11.1,11.1-11.1Z"/>
            <path class="cls-4" d="M915.39,304.3c6.31,0,11.1,5,11.1,11.1s-4.79,11.1-11.1,11.1-10.9-4.9-10.9-11.1,4.89-11.1,10.9-11.1Z"/>
            <path class="cls-4" d="M865.6,298.6c6.19,0,11.1,5,11.1,11.1s-4.91,11.1-11.1,11.1-11.1-4.9-11.1-11.1,5-11.1,11.1-11.1Z"/>
            <path class="cls-4" d="M815.49,295.79c6.21,0,11.1,4.9,11.1,11.1s-4.89,11.1-11.1,11.1-11.1-5.1-11.1-11.1,5.01-11.1,11.1-11.1Z"/>
            <path class="cls-4" d="M765.29,295.79c6.1,0,11.1,4.9,11.1,11.1s-5,11.1-11.1,11.1-11-5.1-11-11.1,4.8-11.1,11-11.1Z"/>
            <path class="cls-4" d="M715.19,298.6c6.1,0,11.1,5,11.1,11.1s-5,11.1-11.1,11.1-11.09-4.9-11.09-11.1,4.89-11.1,11.09-11.1Z"/>
            <path class="cls-4" d="M665.29,304.3c6.1,0,11.1,5,11.1,11.1s-5,11.1-11.1,11.1-11.1-4.9-11.1-11.1,4.91-11.1,11.1-11.1Z"/>
            <path class="cls-4" d="M615.79,312.89c6.1,0,11.1,4.9,11.1,11.1s-5,11.1-11.1,11.1-11.1-4.89-11.1-11.1,5.01-11.1,11.1-11.1Z"/>
            <path class="cls-4" d="M567,324.2c6,0,11,5.1,11,11.1,0,6.3-5,11.1-11,11.1s-11.1-4.8-11.1-11.1,4.89-11.1,11.1-11.1Z"/>
            <path class="cls-4" d="M518.69,338.49c6.1,0,11.1,4.8,11.1,11.1s-5,11.1-11.1,11.1-11.1-5.1-11.1-11.1c0-6.3,5-11.1,11.1-11.1Z"/>
            <path class="cls-4" d="M471.4,355.3c6.2,0,11.1,5,11.1,11.1s-4.9,11.1-11.1,11.1-11-5.1-11-11.1,4.89-11.1,11-11.1Z"/>
            <path class="cls-4" d="M425.19,374.9c6.1,0,11.1,4.8,11.1,11.1s-5,11.1-11.1,11.1-11-5-11-11.1,4.89-11.1,11-11.1Z"/>
            <path class="cls-4" d="M380.1,397.1c6.2,0,11.1,4.8,11.1,11s-4.9,11.1-11.1,11.1-11.1-4.89-11.1-11.1,5-11,11.1-11Z"/>
            <path class="cls-4" d="M336.49,421.69c6,0,11,5.1,11,11.1s-5,11.1-11,11.1-11.1-5-11.1-11.1,4.9-11.1,11.1-11.1Z"/>
            <path class="cls-4" d="M294.09,448.1c6.71,0,11.91,5.4,11.91,11.69,0,6.7-5.2,12-11.91,12s-11.69-5.3-11.69-12c0-6.3,5.29-11.69,11.69-11.69Z"/>
            <path class="cls-4" d="M253.5,477.59c6.7,0,11.99,5.41,11.99,11.7,0,6.7-5.29,12-11.99,12s-11.7-5.3-11.7-12c0-6.3,5.2-11.7,11.7-11.7Z"/>
            <path class="cls-4" d="M214.7,509.3c6.59,0,11.8,5.4,11.8,12s-5.2,11.8-11.8,11.8-11.91-5.2-11.91-11.8,5.3-12,11.91-12Z"/>
            <path class="cls-4" d="M177.59,543.29c6.71,0,12,5.41,12,11.81s-5.29,11.9-12,11.9-11.69-5.3-11.69-11.9,5.29-11.81,11.69-11.81Z"/>
            <path class="cls-4" d="M142.79,571.4c10.8,0,19.6,8.8,19.6,19.79s-8.8,19.8-19.6,19.8-19.8-8.9-19.8-19.8,8.81-19.79,19.8-19.79Z"/>
            <path class="cls-4" d="M109.89,609.1c11.1,0,20.1,9,20.1,20.1s-9,20-20.1,20-20.19-8.9-20.19-20,8.99-20.1,20.19-20.1Z"/>
            <path class="cls-4" d="M79.09,648.2c11.41,0,20.7,9.2,20.7,20.7s-9.3,20.6-20.7,20.6-20.5-9.21-20.5-20.6,9.21-20.7,20.5-20.7Z"/>
            <path class="cls-4" d="M50.8,689.3c11.59,0,20.99,9.4,20.99,21s-9.4,21-20.99,21-21-9.3-21-21,9.4-21,21-21Z"/>
            <path class="cls-4" d="M24.89,732.69c11.3,0,20.6,9.21,20.6,20.6s-9.3,20.71-20.6,20.71-20.59-9.21-20.59-20.71,9.2-20.6,20.59-20.6Z"/>
            <path class="cls-4" d="M1340.69,437.7c6.6,0,11.91,5.29,11.91,11.8s-5.3,11.9-11.91,11.9-11.8-5.4-11.8-11.9,5.3-11.8,11.8-11.8Z"/>
            <path class="cls-4" d="M1299.7,408.7c6.49,0,11.9,5.4,11.9,11.8s-5.41,12-11.9,12-11.81-5.4-11.81-12,5.3-11.8,11.81-11.8Z"/>
            <path class="cls-4" d="M1257.09,381.99c6.6,0,11.91,5.3,11.91,12,0,6.31-5.3,11.7-11.91,11.7s-11.8-5.4-11.8-11.7c0-6.7,5.4-12,11.8-12Z"/>
            <path class="cls-4" d="M1213.19,357.69c6.61,0,11.9,5.41,11.9,11.81s-5.29,12-11.9,12-11.8-5.41-11.8-12,5.3-11.81,11.8-11.81Z"/>
            <path class="cls-4" d="M1168.1,336.6c6.1,0,11,5,11,11.1s-4.89,11.1-11,11.1-11.1-4.9-11.1-11.1,4.9-11.1,11.1-11.1Z"/>
            <path class="cls-4" d="M1121.7,316.4c6.59,0,11.9,5.41,11.9,12s-5.3,11.8-11.9,11.8-11.9-5.4-11.9-11.8,5.4-12,11.9-12Z"/>
            <path class="cls-4" d="M1074.4,300.49c6.09,0,11.1,4.8,11.1,11.1s-5.01,11.1-11.1,11.1-11.1-5-11.1-11.1,5-11.1,11.1-11.1Z"/>
            <path class="cls-4" d="M1026.2,285.4c6.59,0,11.9,5.29,11.9,12s-5.3,11.69-11.9,11.69-11.81-5.1-11.81-11.69,5.3-12,11.81-12Z"/>
            <path class="cls-4" d="M977.4,273.9c6.5,0,11.9,5.2,11.9,11.9s-5.4,11.69-11.9,11.69-11.9-5.19-11.9-11.69,5.4-11.9,11.9-11.9Z"/>
            <path class="cls-4" d="M927.9,265.8c6.3,0,11.2,5.1,11.2,11.1s-4.9,11.1-11.2,11.1-11.1-5.1-11.1-11.1,5-11.1,11.1-11.1Z"/>
            <path class="cls-4" d="M878.1,259.7c6.2,0,11.1,4.9,11.1,11s-4.9,11.1-11.1,11.1-11.01-4.89-11.01-11.1,4.9-11,11.01-11Z"/>
            <path class="cls-4" d="M827.99,256.3c6.21,0,11,4.8,11,11.1s-4.79,11.1-11,11.1-11.1-5.1-11.1-11.1c0-6.3,5-11.1,11.1-11.1Z"/>
            <path class="cls-4" d="M777.8,255.5c6.2,0,11.1,4.89,11.1,11.1s-4.9,11.1-11.1,11.1-11.1-4.9-11.1-11.1,5-11.1,11.1-11.1Z"/>
            <path class="cls-4" d="M727.59,257.7c6.21,0,11.1,4.8,11.1,11.1s-4.89,11.1-11.1,11.1-11-5.1-11-11.1c0-6.3,5-11.1,11-11.1Z"/>
            <path class="cls-4" d="M677.69,262.3c6.21,0,11.1,5.1,11.1,11.1s-4.89,11.1-11.1,11.1-11.1-4.9-11.1-11.1,4.9-11.1,11.1-11.1Z"/>
            <path class="cls-4" d="M628,269.1c6.59,0,11.9,5.4,11.9,11.9s-5.3,11.9-11.9,11.9-11.8-5.4-11.8-11.9,5.3-11.9,11.8-11.9Z"/>
            <path class="cls-4" d="M578.9,279.3c6.5,0,11.8,5.4,11.8,12s-5.29,11.8-11.8,11.8-11.9-5.4-11.9-11.8,5.4-12,11.9-12Z"/>
            <path class="cls-4" d="M530.3,292.1c6.7,0,12,5.4,12,12.1s-5.3,11.69-12,11.69-11.7-5.19-11.7-11.69,5.2-12.1,11.7-12.1Z"/>
            <path class="cls-4" d="M482.6,307.79c6.59,0,11.9,5.1,11.9,11.81s-5.3,11.9-11.9,11.9-11.81-5.41-11.81-11.9,5.31-11.81,11.81-11.81Z"/>
            <path class="cls-4" d="M435.79,325.8c6.6,0,11.9,5.4,11.9,12s-5.29,11.8-11.9,11.8-11.8-5.4-11.8-11.8,5.31-12,11.8-12Z"/>
            <path class="cls-4" d="M390.09,346.4c6.4,0,11.7,5.4,11.7,12s-5.3,11.8-11.7,11.8-11.99-5.4-11.99-11.8,5.29-12,11.99-12Z"/>
            <path class="cls-4" d="M345.5,369.5c6.5,0,11.8,5.4,11.8,12s-5.29,11.8-11.8,11.8-11.9-5.2-11.9-11.8,5.29-12,11.9-12Z"/>
            <path class="cls-4" d="M302.19,395c6.5,0,11.91,5.3,11.91,12s-5.41,11.69-11.91,11.69-11.9-5.1-11.9-11.69,5.3-12,11.9-12Z"/>
            <path class="cls-4" d="M260.39,422.99c6.5,0,11.91,5.1,11.91,11.7s-5.41,12-11.91,12-11.9-5.41-11.9-12,5.3-11.7,11.9-11.7Z"/>
            <path class="cls-4" d="M220.1,453c6.59,0,12,5.3,12,11.9s-5.41,11.8-12,11.8-11.8-5.29-11.8-11.8,5.4-11.9,11.8-11.9Z"/>
            <path class="cls-4" d="M181.59,485.2c6.6,0,12,5.4,12,11.8s-5.4,12-12,12-11.8-5.41-11.8-12,5.4-11.8,11.8-11.8Z"/>
            <path class="cls-4" d="M145,519.6c6.5,0,11.8,5.1,11.8,11.7s-5.29,11.8-11.8,11.8-11.9-5.2-11.9-11.8,5.29-11.7,11.9-11.7Z"/>
            <path class="cls-4" d="M110.19,546.4c11.6,0,21,9.5,21,21.1s-9.4,21.09-21,21.09-20.99-9.4-20.99-21.09,9.4-21.1,20.99-21.1Z"/>
            <path class="cls-4" d="M77.39,584c11.9,0,21.5,9.8,21.5,21.6s-9.61,21.4-21.5,21.4-21.4-9.5-21.4-21.4,9.5-21.6,21.4-21.6Z"/>
            <path class="cls-4" d="M46.79,623.4c12.1,0,22,9.89,22,22s-9.89,21.9-22,21.9-21.9-9.71-21.9-21.9,9.71-22,21.9-22Z"/>
            <path class="cls-4" d="M18.49,665.4c11.81,0,21.4,9.5,21.4,21.4s-9.59,21.4-21.4,21.4-21.59-9.5-21.59-21.4,9.7-21.4,21.59-21.4Z"/>
            <path class="cls-4" d="M-7.6,707.7c12.09,0,21.89,9.9,21.89,22.1s-9.8,21.8-21.89,21.8-22.01-9.7-22.01-21.8,9.8-22.1,22.01-22.1Z"/>
            <path class="cls-4" d="M1354.09,397.9c6.5,0,11.9,5.3,11.9,11.81s-5.4,11.9-11.9,11.9-11.9-5.3-11.9-11.9,5.4-11.81,11.9-11.81Z"/>
            <path class="cls-4" d="M1312.69,369.5c6.6,0,11.9,5.2,11.9,11.8s-5.29,11.8-11.9,11.8-11.8-5.19-11.8-11.8,5.29-11.8,11.8-11.8Z"/>
            <path class="cls-4" d="M1269.89,343.19c6.6,0,11.91,5.41,11.91,11.9s-5.3,11.81-11.91,11.81-11.8-5.3-11.8-11.81,5.3-11.9,11.8-11.9Z"/>
            <path class="cls-4" d="M1225.9,319.2c6.4,0,11.69,5.4,11.69,11.99s-5.29,11.81-11.69,11.81-11.91-5.41-11.91-11.81,5.3-11.99,11.91-11.99Z"/>
            <path class="cls-4" d="M1180.5,297.7c6.5,0,11.9,5.2,11.9,11.8s-5.4,11.81-11.9,11.81-11.9-5.2-11.9-11.81,5.29-11.8,11.9-11.8Z"/>
            <path class="cls-4" d="M1134.1,278.5c6.59,0,11.69,5.2,11.69,11.7s-5.1,12.09-11.69,12.09-11.9-5.4-11.9-12.09,5.29-11.7,11.9-11.7Z"/>
            <path class="cls-4" d="M1086.8,261.69c6.49,0,11.8,5.3,11.8,11.9s-5.3,11.81-11.8,11.81-11.91-5.41-11.91-11.81,5.2-11.9,11.91-11.9Z"/>
            <path class="cls-4" d="M1038.6,247.4c6.49,0,11.9,5.4,11.9,11.8s-5.41,12-11.9,12-11.91-5.4-11.91-12,5.41-11.8,11.91-11.8Z"/>
            <path class="cls-4" d="M989.8,235.6c6.59,0,11.9,5.4,11.9,11.99s-5.3,11.81-11.9,11.81-11.9-5.41-11.9-11.81,5.29-11.99,11.9-11.99Z"/>
            <path class="cls-4" d="M940.49,226.6c6.4,0,11.7,5.19,11.7,11.8s-5.3,11.8-11.7,11.8-11.9-5.19-11.9-11.8,5.2-11.8,11.9-11.8Z"/>
            <path class="cls-4" d="M890.59,220c6.6,0,11.81,5.2,11.81,11.8s-5.2,12-11.81,12-11.8-5.4-11.8-12,5.3-11.8,11.8-11.8Z"/>
            <path class="cls-4" d="M840.6,215.99c6.59,0,11.9,5.41,11.9,11.91s-5.3,11.9-11.9,11.9-11.81-5.41-11.81-11.9,5.3-11.91,11.81-11.91Z"/>
            <path class="cls-4" d="M790.29,214.79c6.71,0,12,5.2,12,11.81s-5.29,11.8-12,11.8-11.69-5.2-11.69-11.8,5.29-11.81,11.69-11.81Z"/>
            <path class="cls-4" d="M740.2,215.99c6.59,0,11.8,5.41,11.8,11.91s-5.2,11.9-11.8,11.9-11.8-5.41-11.8-11.9,5.29-11.91,11.8-11.91Z"/>
            <path class="cls-4" d="M690.09,220c6.6,0,11.9,5.2,11.9,11.8s-5.29,12-11.9,12-11.8-5.4-11.8-12,5.3-11.8,11.8-11.8Z"/>
            <path class="cls-4" d="M640.29,226.6c6.6,0,11.9,5.19,11.9,11.8s-5.29,11.8-11.9,11.8-11.8-5.19-11.8-11.8,5.29-11.8,11.8-11.8Z"/>
            <path class="cls-4" d="M591,235.6c6.49,0,11.8,5.4,11.8,11.99s-5.3,11.81-11.8,11.81-11.91-5.41-11.91-11.81,5.3-11.99,11.91-11.99Z"/>
            <path class="cls-4" d="M542.2,247.4c6.5,0,11.8,5.4,11.8,11.8s-5.29,12-11.8,12-11.9-5.4-11.9-12,5.29-11.8,11.9-11.8Z"/>
            <path class="cls-4" d="M494.1,261.69c6.49,0,11.8,5.3,11.8,11.9s-5.31,11.81-11.8,11.81-12-5.41-12-11.81,5.4-11.9,12-11.9Z"/>
            <path class="cls-4" d="M446.7,278.5c6.59,0,11.9,5.2,11.9,11.7s-5.3,12.09-11.9,12.09-11.81-5.4-11.81-12.09,5.3-11.7,11.81-11.7Z"/>
            <path class="cls-4" d="M400.3,297.7c6.59,0,11.9,5.2,11.9,11.8s-5.31,11.81-11.9,11.81-11.81-5.2-11.81-11.81,5.3-11.8,11.81-11.8Z"/>
            <path class="cls-4" d="M355,319.2c6.59,0,11.8,5.4,11.8,11.99s-5.2,11.81-11.8,11.81-11.9-5.41-11.9-11.81,5.3-11.99,11.9-11.99Z"/>
            <path class="cls-4" d="M310.89,343.19c6.5,0,11.8,5.41,11.8,11.9s-5.3,11.81-11.8,11.81-11.9-5.3-11.9-11.81,5.4-11.9,11.9-11.9Z"/>
            <path class="cls-4" d="M268.09,369.5c6.6,0,11.81,5.2,11.81,11.8s-5.2,11.8-11.81,11.8-11.8-5.19-11.8-11.8,5.2-11.8,11.8-11.8Z"/>
            <path class="cls-4" d="M226.69,397.9c6.5,0,11.81,5.3,11.81,11.81s-5.3,11.9-11.81,11.9-11.9-5.3-11.9-11.9,5.31-11.81,11.9-11.81Z"/>
            <path class="cls-4" d="M186.8,428.49c6.59,0,12,5.2,12,11.81s-5.41,11.9-12,11.9-11.8-5.4-11.8-11.9,5.29-11.81,11.8-11.81Z"/>
            <path class="cls-4" d="M148.59,451.4c12,0,21.5,9.7,21.5,21.4s-9.5,21.6-21.5,21.6-21.39-9.5-21.39-21.6,9.59-21.4,21.39-21.4Z"/>
            <path class="cls-4" d="M112.2,494.69c7.1,0,12.8,5.7,12.8,12.71s-5.7,12.8-12.8,12.8-12.7-5.7-12.7-12.8,5.69-12.71,12.7-12.71Z"/>
            <path class="cls-4" d="M77.7,521.99c12.09,0,21.89,9.8,21.89,21.8s-9.8,22.1-21.89,22.1-21.9-9.99-21.9-22.1,9.7-21.8,21.9-21.8Z"/>
            <path class="cls-4" d="M45.09,560.1c12.1,0,21.9,9.9,21.9,22s-9.8,21.9-21.9,21.9-22-9.9-22-21.9,9.8-22,22-22Z"/>
            <path class="cls-4" d="M14.6,599.5c12.3,0,22.4,9.99,22.4,22.39s-10.1,22.41-22.4,22.41-22.51-10-22.51-22.41,10.11-22.39,22.51-22.39Z"/>
            <path class="cls-4" d="M-13.91,641.3c12.21,0,21.9,9.8,21.9,22s-9.7,21.9-21.9,21.9-22-9.7-22-21.9,9.9-22,22-22Z"/>
            <path class="cls-4" d="M1367.4,357.29c7.1,0,12.8,5.81,12.8,12.71s-5.7,12.89-12.8,12.89-12.8-5.69-12.8-12.89,5.8-12.71,12.8-12.71Z"/>
            <path class="cls-4" d="M1325.6,330.3c6.7,0,12,5.29,12,11.8s-5.3,12-12,12-11.7-5.41-11.7-12,5.3-11.8,11.7-11.8Z"/>
            <path class="cls-4" d="M1282.6,304.5c6.59,0,11.9,5.2,11.9,11.8s-5.3,12-11.9,12-11.81-5.4-11.81-12,5.3-11.8,11.81-11.8Z"/>
            <path class="cls-4" d="M1238.29,280.89c6.6,0,11.91,5.2,11.91,11.7s-5.3,11.9-11.91,11.9-11.8-5.2-11.8-11.9,5.3-11.7,11.8-11.7Z"/>
            <path class="cls-4" d="M1192.9,259.4c6.59,0,11.9,5.29,11.9,11.9s-5.3,11.8-11.9,11.8-11.8-5.4-11.8-11.8,5.19-11.9,11.8-11.9Z"/>
            <path class="cls-4" d="M1146.4,240.3c6.59,0,11.9,5.4,11.9,11.99s-5.3,11.81-11.9,11.81-11.8-5.3-11.8-11.81,5.29-11.99,11.8-11.99Z"/>
            <path class="cls-4" d="M1099,223.6c6.7,0,12,5.4,12,11.9s-5.3,11.9-12,11.9-11.7-5.4-11.7-11.9,5.3-11.9,11.7-11.9Z"/>
            <path class="cls-4" d="M1050.99,209.5c6.5,0,11.81,5.1,11.81,11.69s-5.3,11.81-11.81,11.81-11.9-5.1-11.9-11.81,5.3-11.69,11.9-11.69Z"/>
            <path class="cls-4" d="M1002.2,197.4c6.5,0,11.9,5.4,11.9,11.9s-5.4,11.9-11.9,11.9-11.9-5.4-11.9-11.9,5.4-11.9,11.9-11.9Z"/>
            <path class="cls-4" d="M952.89,188.1c6.5,0,11.81,5.2,11.81,11.8s-5.3,12-11.81,12-11.9-5.4-11.9-12,5.3-11.8,11.9-11.8Z"/>
            <path class="cls-4" d="M903.2,181.09c6.4,0,11.8,5.41,11.8,11.9s-5.4,11.91-11.8,11.91-12-5.41-12-11.91,5.3-11.9,12-11.9Z"/>
            <path class="cls-4" d="M853.09,176.79c6.6,0,11.9,5.2,11.9,11.81s-5.29,11.8-11.9,11.8-11.8-5.2-11.8-11.8,5.2-11.81,11.8-11.81Z"/>
            <path class="cls-4" d="M803,174.9c6.49,0,11.8,5.2,11.8,11.8s-5.3,11.81-11.8,11.81-11.81-5.2-11.81-11.81,5.2-11.8,11.81-11.8Z"/>
            <path class="cls-4" d="M752.7,175.4c6.6,0,11.9,5.4,11.9,12s-5.3,11.8-11.9,11.8-11.7-5.4-11.7-11.8,5.2-12,11.7-12Z"/>
            <path class="cls-4" d="M702.59,178.6c6.5,0,11.8,5.3,11.8,11.9s-5.29,11.81-11.8,11.81-11.8-5.2-11.8-11.81,5.19-11.9,11.8-11.9Z"/>
            <path class="cls-4" d="M652.7,184.3c6.6,0,11.9,5.4,11.9,11.69,0,6.71-5.29,12.1-11.9,12.1s-11.8-5.4-11.8-12.1c0-6.3,5.4-11.69,11.8-11.69Z"/>
            <path class="cls-4" d="M603.19,192.5c6.61,0,11.9,5.29,11.9,11.9s-5.29,11.8-11.9,11.8-11.9-5.4-11.9-11.8,5.29-11.9,11.9-11.9Z"/>
            <path class="cls-4" d="M554.09,202.2c7.1,0,12.8,5.69,12.8,12.8s-5.7,12.6-12.8,12.6-12.7-5.69-12.7-12.6,5.69-12.8,12.7-12.8Z"/>
            <path class="cls-4" d="M505.7,216.2c6.49,0,11.8,5.4,11.8,11.8s-5.3,11.9-11.8,11.9-12-5.29-12-11.9,5.4-11.8,12-11.8Z"/>
            <path class="cls-4" d="M457.8,231.79c6.7,0,12,5.2,12,11.81s-5.3,11.8-12,11.8-11.7-5.2-11.7-11.8,5.3-11.81,11.7-11.81Z"/>
            <path class="cls-4" d="M410.99,249.6c6.5,0,11.81,5.29,11.81,11.9s-5.3,11.8-11.81,11.8-11.8-5.29-11.8-11.8,5.2-11.9,11.8-11.9Z"/>
            <path class="cls-4" d="M365.09,268.9c7,0,12.61,5.8,12.61,12.89s-5.6,12.61-12.61,12.61-12.8-5.7-12.8-12.61,5.6-12.89,12.8-12.89Z"/>
            <path class="cls-4" d="M320.19,291.5c7,0,12.71,5.69,12.71,12.7s-5.7,12.8-12.71,12.8-12.8-5.81-12.8-12.8,5.7-12.7,12.8-12.7Z"/>
            <path class="cls-4" d="M276.4,316.29c7.1,0,12.8,5.7,12.8,12.61s-5.7,12.9-12.8,12.9-12.61-5.7-12.61-12.9,5.6-12.61,12.61-12.61Z"/>
            <path class="cls-4" d="M234.2,343.19c6.8,0,12.6,5.7,12.6,12.61s-5.8,12.8-12.6,12.8c-7.2,0-12.9-5.7-12.9-12.8s5.7-12.61,12.9-12.61Z"/>
            <path class="cls-4" d="M193.09,372.1c7,0,12.8,5.69,12.8,12.7s-5.8,12.8-12.8,12.8-12.7-5.7-12.7-12.8,5.7-12.7,12.7-12.7Z"/>
            <path class="cls-4" d="M153.6,403.2c7.1,0,12.7,5.69,12.7,12.6s-5.6,12.9-12.7,12.9-12.8-5.7-12.8-12.9,5.79-12.6,12.8-12.6Z"/>
            <path class="cls-4" d="M115.79,436.1c7,0,12.71,5.8,12.71,12.6,0,7.2-5.7,12.9-12.71,12.9s-12.8-5.7-12.8-12.9c0-6.8,5.7-12.6,12.8-12.6Z"/>
            <path class="cls-4" d="M79.59,470.9c7,0,12.7,5.8,12.7,12.7s-5.69,12.9-12.7,12.9-12.7-5.8-12.7-12.9,5.6-12.7,12.7-12.7Z"/>
            <path class="cls-4" d="M45.2,497.5c12.6,0,22.7,10.2,22.7,22.7s-10.11,22.9-22.7,22.9-22.8-10.2-22.8-22.9,10.2-22.7,22.8-22.7Z"/>
            <path class="cls-4" d="M12.8,535.3c12.7,0,23.19,10.51,23.19,23.31s-10.5,23.19-23.19,23.19-23.4-10.39-23.4-23.19,10.39-23.31,23.4-23.31Z"/>
            <path class="cls-4" d="M-17.81,575.6c12.61,0,22.8,10.2,22.8,22.79s-10.2,22.7-22.8,22.7-22.79-10-22.79-22.7,10.1-22.79,22.79-22.79Z"/>
            <path class="cls-4" d="M1338.59,290.2c7,0,12.71,5.8,12.71,12.89s-5.7,12.71-12.71,12.71-12.8-5.81-12.8-12.71,5.7-12.89,12.8-12.89Z"/>
            <path class="cls-4" d="M1295.3,265c7.1,0,12.8,5.5,12.8,12.6s-5.7,12.8-12.8,12.8-12.7-5.7-12.7-12.8,5.69-12.6,12.7-12.6Z"/>
            <path class="cls-4" d="M1250.79,241.5c7.11,0,12.8,5.69,12.8,12.89s-5.69,12.61-12.8,12.61-12.7-5.7-12.7-12.61,5.7-12.89,12.7-12.89Z"/>
            <path class="cls-4" d="M1205.3,220.4c6.99,0,12.7,5.7,12.7,12.8s-5.7,12.61-12.7,12.61-12.7-5.7-12.7-12.61,5.69-12.8,12.7-12.8Z"/>
            <path class="cls-4" d="M1158.8,201.4c6.99,0,12.7,5.69,12.7,12.7s-5.7,12.8-12.7,12.8-12.7-5.7-12.7-12.8,5.69-12.7,12.7-12.7Z"/>
            <path class="cls-4" d="M1111.5,184.8c6.99,0,12.7,5.69,12.7,12.6s-5.7,12.9-12.7,12.9-12.8-5.7-12.8-12.9,5.69-12.6,12.8-12.6Z"/>
            <path class="cls-4" d="M1063.3,170.39c7.1,0,12.8,5.81,12.8,12.9s-5.7,12.61-12.8,12.61-12.71-5.7-12.71-12.61,5.7-12.9,12.71-12.9Z"/>
            <path class="cls-4" d="M1014.6,158.39c7.1,0,12.8,5.7,12.8,12.71s-5.7,12.8-12.8,12.8-12.7-5.7-12.7-12.8,5.69-12.71,12.7-12.71Z"/>
            <path class="cls-4" d="M965.29,148.7c7.11,0,12.71,5.7,12.71,12.9s-5.6,12.6-12.71,12.6-12.7-5.69-12.7-12.6,5.6-12.9,12.7-12.9Z"/>
            <path class="cls-4" d="M915.7,141.39c6.89,0,12.7,5.81,12.7,12.9s-5.81,12.7-12.7,12.7-12.8-5.8-12.8-12.7,5.69-12.9,12.8-12.9Z"/>
            <path class="cls-4" d="M865.6,136.5c7.1,0,12.7,5.8,12.7,12.9s-5.6,12.7-12.7,12.7-12.6-5.7-12.6-12.7,5.59-12.9,12.6-12.9Z"/>
            <path class="cls-4" d="M815.49,134.09c7,0,12.8,5.81,12.8,12.9s-5.8,12.7-12.8,12.7-12.7-5.8-12.7-12.7,5.7-12.9,12.7-12.9Z"/>
            <path class="cls-4" d="M765.29,134.09c7.01,0,12.7,5.81,12.7,12.9s-5.69,12.7-12.7,12.7-12.7-5.8-12.7-12.7,5.69-12.9,12.7-12.9Z"/>
            <path class="cls-4" d="M715.19,136.5c6.9,0,12.71,5.8,12.71,12.9s-5.81,12.7-12.71,12.7-12.8-5.7-12.8-12.7,5.7-12.9,12.8-12.9Z"/>
            <path class="cls-4" d="M665.1,141.39c7.2,0,12.9,5.81,12.9,12.9s-5.7,12.7-12.9,12.7-12.61-5.8-12.61-12.7,5.6-12.9,12.61-12.9Z"/>
            <path class="cls-4" d="M615.49,148.7c7.11,0,12.7,5.7,12.7,12.9s-5.59,12.6-12.7,12.6-12.7-5.69-12.7-12.6,5.6-12.9,12.7-12.9Z"/>
            <path class="cls-4" d="M566.1,158.39c7.09,0,12.8,5.7,12.8,12.71s-5.71,12.8-12.8,12.8-12.61-5.7-12.61-12.8,5.7-12.71,12.61-12.71Z"/>
            <path class="cls-4" d="M517.39,170.39c7.1,0,12.8,5.81,12.8,12.9s-5.7,12.61-12.8,12.61-12.7-5.7-12.7-12.61,5.69-12.9,12.7-12.9Z"/>
            <path class="cls-4" d="M469.3,184.8c7.1,0,12.7,5.69,12.7,12.6s-5.6,12.9-12.7,12.9-12.7-5.7-12.7-12.9,5.69-12.6,12.7-12.6Z"/>
            <path class="cls-4" d="M422,201.4c6.99,0,12.7,5.69,12.7,12.7s-5.7,12.8-12.7,12.8-12.8-5.7-12.8-12.8,5.69-12.7,12.8-12.7Z"/>
            <path class="cls-4" d="M375.5,220.4c6.99,0,12.8,5.7,12.8,12.8s-5.81,12.61-12.8,12.61-12.8-5.7-12.8-12.61,5.79-12.8,12.8-12.8Z"/>
            <path class="cls-4" d="M329.9,241.5c7.1,0,12.8,5.69,12.8,12.89s-5.7,12.61-12.8,12.61-12.71-5.7-12.71-12.61,5.81-12.89,12.71-12.89Z"/>
            <path class="cls-4" d="M285.4,265c7.1,0,12.8,5.5,12.8,12.6s-5.7,12.8-12.8,12.8-12.7-5.7-12.7-12.8,5.8-12.6,12.7-12.6Z"/>
            <path class="cls-4" d="M242.19,290.2c7,0,12.7,5.8,12.7,12.89s-5.69,12.71-12.7,12.71-12.8-5.81-12.8-12.71,5.7-12.89,12.8-12.89Z"/>
            <path class="cls-4" d="M200.2,317.8c6.99,0,12.7,5.7,12.7,12.7s-5.7,12.8-12.7,12.8-12.71-5.7-12.71-12.8,5.7-12.7,12.71-12.7Z"/>
            <path class="cls-4" d="M159.6,347.3c7,0,12.7,5.69,12.7,12.9s-5.7,12.6-12.7,12.6-12.71-5.7-12.71-12.6,5.6-12.9,12.71-12.9Z"/>
            <path class="cls-4" d="M120.49,377.79c7.51,0,13.6,6.31,13.6,13.8s-6.09,13.6-13.6,13.6-13.7-6.2-13.7-13.6,6.1-13.8,13.7-13.8Z"/>
            <path class="cls-4" d="M82.89,411.1c7.4,0,13.61,6.3,13.61,13.8s-6.21,13.5-13.61,13.5-13.69-6.09-13.69-13.5,6.09-13.8,13.69-13.8Z"/>
            <path class="cls-4" d="M46.9,446.3c7.5,0,13.6,6.09,13.6,13.5s-6.1,13.8-13.6,13.8-13.6-6.1-13.6-13.8,6.09-13.5,13.6-13.5Z"/>
            <path class="cls-4" d="M12.8,483.09c7.5,0,13.6,6.1,13.6,13.51s-6.1,13.79-13.6,13.79-13.7-6.2-13.7-13.79,6-13.51,13.7-13.51Z"/>
            <path class="cls-4" d="M-19.6,511.4c13,0,23.59,10.6,23.59,23.6s-10.6,23.6-23.59,23.6-23.6-10.4-23.6-23.6,10.49-23.6,23.6-23.6Z"/>
            <path class="cls-4" d="M1351.39,251.4c7.11,0,12.8,5.5,12.8,12.7s-5.69,12.6-12.8,12.6-12.7-5.5-12.7-12.6,5.7-12.7,12.7-12.7Z"/>
            <path class="cls-4" d="M1307.99,226.29c7,0,12.7,5.7,12.7,12.71s-5.69,12.7-12.7,12.7-12.8-5.7-12.8-12.7,5.7-12.71,12.8-12.71Z"/>
            <path class="cls-4" d="M1263.4,202.3c7.6,0,13.6,6.09,13.6,13.5s-6,13.7-13.6,13.7-13.7-6-13.7-13.7,6.19-13.5,13.7-13.5Z"/>
            <path class="cls-4" d="M1217.7,182.2c7.1,0,12.8,5.69,12.8,12.7s-5.7,12.8-12.8,12.8-12.7-5.7-12.7-12.8,5.59-12.7,12.7-12.7Z"/>
            <path class="cls-4" d="M1171.2,163.5c6.99,0,12.7,5.5,12.7,12.7s-5.7,12.6-12.7,12.6-12.8-5.5-12.8-12.6,5.69-12.7,12.8-12.7Z"/>
            <path class="cls-4" d="M1123.8,146.8c7,0,12.7,5.69,12.7,12.7s-5.7,12.8-12.7,12.8-12.7-5.7-12.7-12.8,5.69-12.7,12.7-12.7Z"/>
            <path class="cls-4" d="M1075.7,132.39c7.1,0,12.8,5.7,12.8,12.71s-5.7,12.8-12.8,12.8-12.71-5.7-12.71-12.8,5.7-12.71,12.71-12.71Z"/>
            <path class="cls-4" d="M1027,120.3c6.99,0,12.7,5.6,12.7,12.6s-5.7,12.8-12.7,12.8-12.71-5.69-12.71-12.8,5.7-12.6,12.71-12.6Z"/>
            <path class="cls-4" d="M977.69,110.4c7.11,0,12.8,5.7,12.8,12.6s-5.69,12.9-12.8,12.9-12.7-5.69-12.7-12.9,5.7-12.6,12.7-12.6Z"/>
            <path class="cls-4" d="M928.1,102.7c7.1,0,12.8,5.8,12.8,12.9s-5.7,12.7-12.8,12.7-12.71-5.8-12.71-12.7,5.81-12.9,12.71-12.9Z"/>
            <path class="cls-4" d="M878.19,97.5c7,0,12.71,5.81,12.71,12.7s-5.7,12.8-12.71,12.8-12.7-5.69-12.7-12.8,5.7-12.7,12.7-12.7Z"/>
            <path class="cls-4" d="M827.99,94.6c7.1,0,12.8,5.7,12.8,12.7s-5.7,12.8-12.8,12.8-12.6-5.8-12.6-12.8,5.69-12.7,12.6-12.7Z"/>
            <path class="cls-4" d="M777.8,94.1c7.1,0,12.8,5.7,12.8,12.61s-5.7,12.89-12.8,12.89-12.7-5.8-12.7-12.89,5.8-12.61,12.7-12.61Z"/>
            <path class="cls-4" d="M727.59,95.9c7.11,0,12.8,5.7,12.8,12.6s-5.69,12.8-12.8,12.8-12.7-5.69-12.7-12.8,5.81-12.6,12.7-12.6Z"/>
            <path class="cls-4" d="M677.6,99.8c6.99,0,12.7,5.8,12.7,12.9s-5.7,12.6-12.7,12.6-12.71-5.7-12.71-12.6,5.7-12.9,12.71-12.9Z"/>
            <path class="cls-4" d="M627.89,106.2c6.9,0,12.7,5.69,12.7,12.9s-5.8,12.6-12.7,12.6-12.8-5.7-12.8-12.6,5.7-12.9,12.8-12.9Z"/>
            <path class="cls-4" d="M578.39,115.1c7,0,12.7,5.5,12.7,12.7s-5.69,12.61-12.7,12.61-12.8-5.5-12.8-12.61,5.7-12.7,12.8-12.7Z"/>
            <path class="cls-4" d="M529.4,125.99c7,0,12.8,5.7,12.8,12.71s-5.8,12.8-12.8,12.8-12.7-5.81-12.7-12.8,5.69-12.71,12.7-12.71Z"/>
            <path class="cls-4" d="M480.99,139.4c7,0,12.61,5.5,12.61,12.6s-5.6,12.71-12.61,12.71-12.7-5.5-12.7-12.71,5.6-12.6,12.7-12.6Z"/>
            <path class="cls-4" d="M433.19,153.9c7.51,0,13.61,6.1,13.61,13.6s-6.1,13.6-13.61,13.6-13.6-6-13.6-13.6,6.1-13.6,13.6-13.6Z"/>
            <path class="cls-4" d="M386.29,172.49c6.9,0,12.61,5.7,12.61,12.8s-5.7,12.61-12.61,12.61-12.8-5.7-12.8-12.61,5.7-12.8,12.8-12.8Z"/>
            <path class="cls-4" d="M340.1,191.6c7.6,0,13.7,6,13.7,13.5s-6.1,13.7-13.7,13.7-13.7-6.1-13.7-13.7,6.3-13.5,13.7-13.5Z"/>
            <path class="cls-4" d="M294.99,214.39c7,0,12.71,5.7,12.71,12.7s-5.7,12.8-12.71,12.8-12.7-5.69-12.7-12.8,5.7-12.7,12.7-12.7Z"/>
            <path class="cls-4" d="M250.99,237.7c7.4,0,13.61,6.09,13.61,13.5s-6.21,13.8-13.61,13.8-13.69-6.21-13.69-13.8,6.09-13.5,13.69-13.5Z"/>
            <path class="cls-4" d="M208.1,263.7c7.5,0,13.5,6.09,13.5,13.7s-6,13.6-13.5,13.6-13.7-6.1-13.7-13.6,6.1-13.7,13.7-13.7Z"/>
            <path class="cls-4" d="M166.4,291.8c7.5,0,13.6,6.1,13.6,13.7s-6.1,13.6-13.6,13.6-13.6-6.21-13.6-13.6,6-13.7,13.6-13.7Z"/>
            <path class="cls-4" d="M126.2,320.8c8,0,14.6,6.59,14.6,14.5s-6.6,14.8-14.6,14.8-14.7-6.59-14.7-14.8,6.6-14.5,14.7-14.5Z"/>
            <path class="cls-4" d="M87.29,352.7c8.1,0,14.7,6.4,14.7,14.6s-6.61,14.5-14.7,14.5-14.6-6.4-14.6-14.5,6.5-14.6,14.6-14.6Z"/>
            <path class="cls-4" d="M50.09,386.2c8.01,0,14.5,6.49,14.5,14.69s-6.49,14.6-14.5,14.6-14.69-6.6-14.69-14.6,6.5-14.69,14.69-14.69Z"/>
            <path class="cls-4" d="M14.29,421.6c8.1,0,14.6,6.49,14.6,14.5s-6.5,14.59-14.6,14.59-14.6-6.4-14.6-14.59,6.5-14.5,14.6-14.5Z"/>
            <path class="cls-4" d="M1364.19,211.5c7.61,0,13.7,6.1,13.7,13.5s-6.09,13.7-13.7,13.7-13.5-6-13.5-13.7,6.1-13.5,13.5-13.5Z"/>
            <path class="cls-4" d="M1320.69,186.7c7.51,0,13.6,6.1,13.6,13.7s-6.09,13.5-13.6,13.5-13.7-6-13.7-13.5,6-13.7,13.7-13.7Z"/>
            <path class="cls-4" d="M1275.8,163.99c7.7,0,13.69,6,13.69,13.51s-5.99,13.7-13.69,13.7-13.51-6-13.51-13.7,6-13.51,13.51-13.51Z"/>
            <path class="cls-4" d="M1230.19,143.2c7.4,0,13.61,6,13.61,13.5s-6.21,13.7-13.61,13.7-13.79-6.09-13.79-13.7,6.3-13.5,13.79-13.5Z"/>
            <path class="cls-4" d="M1183.49,124.5c7.6,0,13.6,6,13.6,13.6s-6,13.6-13.6,13.6-13.6-6.1-13.6-13.6,6.2-13.6,13.6-13.6Z"/>
            <path class="cls-4" d="M1136.2,107.8c7.39,0,13.6,6.21,13.6,13.7s-6.21,13.7-13.6,13.7-13.7-6.3-13.7-13.7,6.1-13.7,13.7-13.7Z"/>
            <path class="cls-4" d="M1088,93.4c7.6,0,13.7,6,13.7,13.7s-6.1,13.5-13.7,13.5-13.6-6-13.6-13.5,6.09-13.7,13.6-13.7Z"/>
            <path class="cls-4" d="M1039.4,81.1c7.39,0,13.7,6.2,13.7,13.7s-6.31,13.69-13.7,13.69-13.7-6.3-13.7-13.69,6.09-13.7,13.7-13.7Z"/>
            <path class="cls-4" d="M990.2,70.99c7.5,0,13.6,6.31,13.6,13.8s-6.1,13.6-13.6,13.6-13.7-6.2-13.7-13.6,6.21-13.8,13.7-13.8Z"/>
            <path class="cls-4" d="M940.49,63.2c7.7,0,13.7,6.09,13.7,13.7s-6,13.6-13.7,13.6-13.5-6.1-13.5-13.6,6.1-13.7,13.5-13.7Z"/>
            <path class="cls-4" d="M890.69,57.7c7.51,0,13.6,5.99,13.6,13.5s-6.09,13.7-13.6,13.7-13.6-6.1-13.6-13.7,6-13.5,13.6-13.5Z"/>
            <path class="cls-4" d="M840.6,54.2c7.5,0,13.5,6,13.5,13.7s-6,13.6-13.5,13.6-13.61-6.21-13.61-13.6,6.1-13.7,13.61-13.7Z"/>
            <path class="cls-4" d="M790.29,53.2c7.7,0,13.7,6,13.7,13.5s-6,13.7-13.7,13.7-13.5-6.09-13.5-13.7,6.1-13.5,13.5-13.5Z"/>
            <path class="cls-4" d="M740.2,54.2c7.5,0,13.6,6,13.6,13.7s-6.1,13.6-13.6,13.6-13.7-6.21-13.7-13.6,6.2-13.7,13.7-13.7Z"/>
            <path class="cls-4" d="M690.09,57.7c7.51,0,13.6,5.99,13.6,13.5s-6.09,13.7-13.6,13.7-13.6-6.1-13.6-13.7,6-13.5,13.6-13.5Z"/>
            <path class="cls-4" d="M640.19,63.2c7.51,0,13.7,6.09,13.7,13.7s-6.2,13.6-13.7,13.6-13.6-6.1-13.6-13.6,6.1-13.7,13.6-13.7Z"/>
            <path class="cls-4" d="M590.69,70.99c7.51,0,13.51,6.31,13.51,13.8s-6,13.6-13.51,13.6-13.7-6.2-13.7-13.6,6.1-13.8,13.7-13.8Z"/>
            <path class="cls-4" d="M541.4,81.1c7.5,0,13.6,6.2,13.6,13.7s-6.1,13.69-13.6,13.69-13.6-6.3-13.6-13.69,6.09-13.7,13.6-13.7Z"/>
            <path class="cls-4" d="M492.7,93.4c7.6,0,13.6,6,13.6,13.7s-6,13.5-13.6,13.5-13.6-6-13.6-13.5,6.1-13.7,13.6-13.7Z"/>
            <path class="cls-4" d="M444.69,107.8c7.4,0,13.61,6.21,13.61,13.7s-6.2,13.7-13.61,13.7-13.69-6.3-13.69-13.7,6.09-13.7,13.69-13.7Z"/>
            <path class="cls-4" d="M397.3,124.5c7.5,0,13.6,6,13.6,13.6s-6.1,13.6-13.6,13.6-13.7-6.1-13.7-13.6,6.09-13.6,13.7-13.6Z"/>
            <path class="cls-4" d="M350.59,143.2c7.5,0,13.7,6,13.7,13.5s-6.2,13.7-13.7,13.7-13.6-6.09-13.6-13.7,6.1-13.5,13.6-13.5Z"/>
            <path class="cls-4" d="M304.89,163c8.1,0,14.7,6.49,14.7,14.5s-6.61,14.6-14.7,14.6-14.6-6.4-14.6-14.6,6.5-14.5,14.6-14.5Z"/>
            <path class="cls-4" d="M260.2,186.7c7.6,0,13.6,6.1,13.6,13.7s-6,13.5-13.6,13.5-13.6-6-13.6-13.5,6.09-13.7,13.6-13.7Z"/>
            <path class="cls-4" d="M216.49,211.5c7.51,0,13.7,6.1,13.7,13.5s-6.2,13.7-13.7,13.7-13.6-6-13.6-13.7,6.1-13.5,13.6-13.5Z"/>
            <path class="cls-4" d="M174,237.2c8.1,0,14.6,6.59,14.6,14.5s-6.5,14.8-14.6,14.8-14.71-6.59-14.71-14.8,6.71-14.5,14.71-14.5Z"/>
            <path class="cls-4" d="M132.7,265.8c8.1,0,14.69,6.59,14.69,14.6s-6.59,14.69-14.69,14.69-14.6-6.59-14.6-14.69,6.59-14.6,14.6-14.6Z"/>
            <path class="cls-4" d="M92.79,296.1c8,0,14.7,6.59,14.7,14.8s-6.71,14.6-14.7,14.6-14.6-6.6-14.6-14.6,6.5-14.8,14.6-14.8Z"/>
            <path class="cls-4" d="M54.29,328.4c8.01,0,14.6,6.6,14.6,14.6s-6.59,14.69-14.6,14.69-14.69-6.59-14.69-14.69,6.59-14.6,14.69-14.6Z"/>
            <path class="cls-4" d="M17.19,362.2c8.1,0,14.6,6.59,14.6,14.8s-6.5,14.6-14.6,14.6-14.59-6.7-14.59-14.6,6.49-14.8,14.59-14.8Z"/>
            <path class="cls-4" d="M1377.09,171.6c8,0,14.6,6.59,14.6,14.59s-6.6,14.7-14.6,14.7-14.69-6.5-14.69-14.7,6.59-14.59,14.69-14.59Z"/>
            <path class="cls-4" d="M1333.19,147.2c8.1,0,14.6,6.59,14.6,14.5s-6.5,14.8-14.6,14.8-14.6-6.59-14.6-14.8,6.5-14.5,14.6-14.5Z"/>
            <path class="cls-4" d="M1288.39,125.7c7.5,0,13.6,6,13.6,13.5s-6.1,13.7-13.6,13.7-13.6-6.09-13.6-13.7,6-13.5,13.6-13.5Z"/>
            <path class="cls-4" d="M1242.59,104c8.1,0,14.5,6.5,14.5,14.6s-6.4,14.69-14.5,14.69-14.59-6.59-14.59-14.69,6.49-14.6,14.59-14.6Z"/>
            <path class="cls-4" d="M1195.9,86.39c7.5,0,13.7,6.21,13.7,13.6s-6.21,13.7-13.7,13.7-13.6-6.09-13.6-13.7,6.09-13.6,13.6-13.6Z"/>
            <path class="cls-4" d="M1148.5,68.89c8,0,14.69,6.4,14.69,14.6s-6.7,14.6-14.69,14.6-14.6-6.5-14.6-14.6,6.6-14.6,14.6-14.6Z"/>
            <path class="cls-4" d="M1100.4,54.39c8.1,0,14.59,6.6,14.59,14.5s-6.49,14.81-14.59,14.81-14.6-6.6-14.6-14.81,6.5-14.5,14.6-14.5Z"/>
            <path class="cls-4" d="M1051.7,42.1c8.1,0,14.69,6.4,14.69,14.5s-6.6,14.6-14.69,14.6-14.6-6.4-14.6-14.6,6.5-14.5,14.6-14.5Z"/>
            <path class="cls-4" d="M1002.6,31.8c8.1,0,14.6,6.5,14.6,14.6s-6.5,14.6-14.6,14.6-14.7-6.6-14.7-14.6,6.6-14.6,14.7-14.6Z"/>
            <path class="cls-4" d="M953.09,23.7c8.1,0,14.6,6.4,14.6,14.6s-6.5,14.5-14.6,14.5-14.6-6.4-14.6-14.5,6.4-14.6,14.6-14.6Z"/>
            <path class="cls-4" d="M903.3,17.59c7.9,0,14.5,6.6,14.5,14.7s-6.6,14.6-14.5,14.6-14.7-6.5-14.7-14.6,6.5-14.7,14.7-14.7Z"/>
            <path class="cls-4" d="M853.09,14.8c7.6,0,13.6,6.1,13.6,13.7s-6,13.6-13.6,13.6-13.6-6.1-13.6-13.6,6.1-13.7,13.6-13.7Z"/>
            <path class="cls-4" d="M803,13.3c7.5,0,13.49,6,13.49,13.5s-6,13.7-13.49,13.7-13.7-6.1-13.7-13.7,6.1-13.5,13.7-13.5Z"/>
            <path class="cls-4" d="M752.7,13.79c7.6,0,13.69,6.1,13.69,13.61s-6.09,13.6-13.69,13.6-13.61-6-13.61-13.6,6.21-13.61,13.61-13.61Z"/>
            <path class="cls-4" d="M702.59,15.49c8.1,0,14.7,6.6,14.7,14.6s-6.6,14.6-14.7,14.6-14.6-6.4-14.6-14.6,6.6-14.6,14.6-14.6Z"/>
            <path class="cls-4" d="M652.59,20.4c8.1,0,14.6,6.5,14.6,14.6s-6.5,14.69-14.6,14.69-14.6-6.59-14.6-14.69,6.6-14.6,14.6-14.6Z"/>
            <path class="cls-4" d="M602.9,27.49c8.1,0,14.59,6.4,14.59,14.6s-6.49,14.5-14.59,14.5-14.6-6.4-14.6-14.5,6.59-14.6,14.6-14.6Z"/>
            <path class="cls-4" d="M553.59,36.7c8.1,0,14.6,6.4,14.6,14.6s-6.5,14.5-14.6,14.5-14.6-6.4-14.6-14.5,6.4-14.6,14.6-14.6Z"/>
            <path class="cls-4" d="M504.7,47.99c8,0,14.5,6.5,14.5,14.6s-6.5,14.7-14.5,14.7-14.7-6.6-14.7-14.7,6.5-14.6,14.7-14.6Z"/>
            <path class="cls-4" d="M456.29,61.3c8.1,0,14.6,6.6,14.6,14.8s-6.5,14.5-14.6,14.5-14.69-6.59-14.69-14.5,6.59-14.8,14.69-14.8Z"/>
            <path class="cls-4" d="M408.59,76.9c8,0,14.5,6.59,14.5,14.59s-6.5,14.6-14.5,14.6-14.69-6.4-14.69-14.6,6.49-14.59,14.69-14.59Z"/>
            <path class="cls-4" d="M361.4,94.49c8.19,0,14.69,6.5,14.69,14.5s-6.5,14.81-14.69,14.81-14.6-6.6-14.6-14.81,6.59-14.5,14.6-14.5Z"/>
            <path class="cls-4" d="M315.2,114c8.1,0,14.6,6.59,14.6,14.59s-6.5,14.7-14.6,14.7-14.7-6.5-14.7-14.7,6.6-14.59,14.7-14.59Z"/>
            <path class="cls-4" d="M269.89,135.6c8.1,0,14.6,6.5,14.6,14.69s-6.5,14.6-14.6,14.6-14.6-6.59-14.6-14.6,6.5-14.69,14.6-14.69Z"/>
            <path class="cls-4" d="M225.49,159.2c8.1,0,14.7,6.49,14.7,14.5s-6.6,14.69-14.7,14.69-14.6-6.5-14.6-14.69,6.6-14.5,14.6-14.5Z"/>
            <path class="cls-4" d="M182.29,184.6c8.01,0,14.6,6.5,14.6,14.6s-6.59,14.6-14.6,14.6-14.69-6.4-14.69-14.6,6.5-14.6,14.69-14.6Z"/>
            <path class="cls-4" d="M140.09,211.9c8.01,0,14.6,6.6,14.6,14.5s-6.59,14.8-14.6,14.8-14.7-6.59-14.7-14.8,6.6-14.5,14.7-14.5Z"/>
            <path class="cls-4" d="M99.09,241c8.01,0,14.7,6.4,14.7,14.5s-6.7,14.6-14.7,14.6-14.59-6.5-14.59-14.6,6.59-14.5,14.59-14.5Z"/>
            <path class="cls-4" d="M59.49,271.7c8.01,0,14.7,6.59,14.7,14.69s-6.7,14.6-14.7,14.6-14.59-6.59-14.59-14.6,6.49-14.69,14.59-14.69Z"/>
            <path class="cls-4" d="M21.19,304.3c8.1,0,14.7,6.4,14.7,14.59s-6.6,14.5-14.7,14.5-14.6-6.4-14.6-14.5,6.6-14.59,14.6-14.59Z"/>
            <path class="cls-4" d="M1345.8,108.6c8,0,14.59,6.5,14.59,14.6s-6.59,14.6-14.59,14.6-14.7-6.4-14.7-14.6,6.6-14.6,14.7-14.6Z"/>
            <path class="cls-4" d="M1300.8,86.29c8.1,0,14.6,6.6,14.6,14.5s-6.5,14.81-14.6,14.81-14.6-6.6-14.6-14.81,6.6-14.5,14.6-14.5Z"/>
            <path class="cls-4" d="M1254.99,65.8c8.1,0,14.5,6.59,14.5,14.69s-6.4,14.6-14.5,14.6-14.69-6.5-14.69-14.6,6.5-14.69,14.69-14.69Z"/>
            <path class="cls-4" d="M1208.19,47.4c8.1,0,14.7,6.49,14.7,14.59s-6.6,14.6-14.7,14.6-14.5-6.4-14.5-14.6,6.5-14.59,14.5-14.59Z"/>
            <path class="cls-4" d="M1160.79,30.8c8.2,0,14.6,6.59,14.6,14.69s-6.4,14.6-14.6,14.6-14.5-6.6-14.5-14.6,6.4-14.69,14.5-14.69Z"/>
            <path class="cls-4" d="M1112.8,16.39c8,0,14.69,6.6,14.69,14.6s-6.7,14.5-14.69,14.5-14.6-6.4-14.6-14.5,6.5-14.6,14.6-14.6Z"/>
            <path class="cls-4" d="M1064.1,3.9c8.1,0,14.6,6.59,14.6,14.59s-6.5,14.6-14.6,14.6-14.5-6.5-14.5-14.6,6.4-14.59,14.5-14.59Z"/>
            <path class="cls-4" d="M1015-6.5c8.1,0,14.69,6.4,14.69,14.5s-6.59,14.6-14.69,14.6-14.6-6.4-14.6-14.6,6.6-14.5,14.6-14.5Z"/>
            <path class="cls-4" d="M965.5-15c8.1,0,14.6,6.59,14.6,14.8s-6.5,14.5-14.6,14.5-14.5-6.59-14.5-14.5,6.4-14.8,14.5-14.8Z"/>
            <path class="cls-4" d="M915.79-21.3c8.01,0,14.5,6.59,14.5,14.59s-6.49,14.7-14.5,14.7-14.69-6.5-14.69-14.7,6.5-14.59,14.69-14.59Z"/>
            <path class="cls-4" d="M865.7-25.41c8.1,0,14.6,6.6,14.6,14.6s-6.5,14.5-14.6,14.5-14.6-6.4-14.6-14.5,6.5-14.6,14.6-14.6Z"/>
            <path class="cls-4" d="M815.49-27.5c8.1,0,14.7,6.5,14.7,14.6s-6.6,14.6-14.7,14.6-14.59-6.5-14.59-14.6,6.49-14.6,14.59-14.6Z"/>
            <path class="cls-4" d="M765.29-27.5c8,0,14.71,6.5,14.71,14.6s-6.71,14.6-14.71,14.6-14.69-6.5-14.69-14.6,6.59-14.6,14.69-14.6Z"/>
            <path class="cls-4" d="M715.1-25.41c8.1,0,14.6,6.6,14.6,14.6s-6.5,14.5-14.6,14.5-14.6-6.4-14.6-14.5,6.59-14.6,14.6-14.6Z"/>
            <path class="cls-4" d="M665.1-21.3c8.1,0,14.6,6.59,14.6,14.59s-6.5,14.7-14.6,14.7-14.6-6.5-14.6-14.7,6.4-14.59,14.6-14.59Z"/>
            <path class="cls-4" d="M615.3-15c8,0,14.59,6.59,14.59,14.8s-6.59,14.5-14.59,14.5-14.7-6.59-14.7-14.5,6.6-14.8,14.7-14.8Z"/>
            <path class="cls-4" d="M565.7-6.5c8.2,0,14.69,6.4,14.69,14.5s-6.49,14.6-14.69,14.6-14.6-6.4-14.6-14.6,6.6-14.5,14.6-14.5Z"/>
            <path class="cls-4" d="M516.7,3.9c8,0,14.6,6.59,14.6,14.59s-6.6,14.6-14.6,14.6-14.7-6.5-14.7-14.6,6.6-14.59,14.7-14.59Z"/>
            <path class="cls-4" d="M468,16.39c8.1,0,14.6,6.6,14.6,14.6s-6.5,14.5-14.6,14.5-14.6-6.4-14.6-14.5,6.5-14.6,14.6-14.6Z"/>
            <path class="cls-4" d="M419.99,30.8c8.01,0,14.7,6.59,14.7,14.69s-6.7,14.6-14.7,14.6-14.69-6.6-14.69-14.6,6.59-14.69,14.69-14.69Z"/>
            <path class="cls-4" d="M372.5,47.4c8.1,0,14.59,6.49,14.59,14.59s-6.49,14.6-14.59,14.6-14.7-6.4-14.7-14.6,6.7-14.59,14.7-14.59Z"/>
            <path class="cls-4" d="M325.89,65.8c8,0,14.5,6.59,14.5,14.69s-6.5,14.6-14.5,14.6-14.7-6.5-14.7-14.6,6.5-14.69,14.7-14.69Z"/>
            <path class="cls-4" d="M279.99,86.29c8.11,0,14.51,6.6,14.51,14.5s-6.4,14.81-14.51,14.81-14.59-6.6-14.59-14.81,6.49-14.5,14.59-14.5Z"/>
            <path class="cls-4" d="M235,107.8c8.6,0,15.6,7,15.6,15.4s-6.99,15.5-15.6,15.5-15.5-7-15.5-15.5,6.9-15.4,15.5-15.4Z"/>
            <path class="cls-4" d="M190.89,132.7c8.2,0,14.7,6.7,14.7,14.8s-6.5,14.6-14.7,14.6-14.5-6.6-14.5-14.6,6.5-14.8,14.5-14.8Z"/>
            <path class="cls-4" d="M148.1,157.9c8.5,0,15.49,6.99,15.49,15.4s-6.99,15.7-15.49,15.7-15.61-7-15.61-15.7,7-15.4,15.61-15.4Z"/>
            <path class="cls-4" d="M106.2,185.7c8.6,0,15.5,6.89,15.5,15.6s-6.9,15.4-15.5,15.4-15.5-6.9-15.5-15.4,6.9-15.6,15.5-15.6Z"/>
            <path class="cls-4" d="M65.59,215.19c8.6,0,15.5,6.9,15.5,15.61s-6.9,15.4-15.5,15.4-15.5-6.9-15.5-15.4,6.9-15.61,15.5-15.61Z"/>
            <path class="cls-4" d="M26.29,246.39c8.5,0,15.5,6.9,15.5,15.61s-7,15.4-15.5,15.4-15.6-6.9-15.6-15.4,6.99-15.61,15.6-15.61Z"/>
            <path class="cls-4" d="M-11.81,279.1c8.7,0,15.61,6.99,15.61,15.7s-6.9,15.4-15.61,15.4-15.4-7-15.4-15.4,6.9-15.7,15.4-15.7Z"/>
            <path class="cls-4" d="M1358.39,69.29c8.5,0,15.5,6.9,15.5,15.5s-7.01,15.5-15.5,15.5-15.59-7.11-15.59-15.5,6.99-15.5,15.59-15.5Z"/>
            <path class="cls-4" d="M1313.3,47.09c8.5,0,15.49,6.9,15.49,15.61s-6.99,15.4-15.49,15.4-15.5-6.9-15.5-15.4,7-15.61,15.5-15.61Z"/>
            <path class="cls-4" d="M1267.3,26.8c8.69,0,15.6,6.9,15.6,15.6s-6.9,15.4-15.6,15.4-15.4-6.9-15.4-15.4,6.89-15.6,15.4-15.6Z"/>
            <path class="cls-4" d="M1220.7,8.4c8.5,0,15.49,6.9,15.49,15.6s-6.99,15.4-15.49,15.4-15.61-6.89-15.61-15.4,6.9-15.6,15.61-15.6Z"/>
            <path class="cls-4" d="M1173.19-8.01c8.6,0,15.6,6.9,15.6,15.5s-6.99,15.5-15.6,15.5-15.5-6.9-15.5-15.5,7.01-15.5,15.5-15.5Z"/>
            <path class="cls-4" d="M1125.1-21.8c8.2,0,14.6,6.59,14.6,14.8s-6.4,14.5-14.6,14.5-14.6-6.59-14.6-14.5,6.6-14.8,14.6-14.8Z"/>
            <path class="cls-4" d="M479.9-29.1c8.6,0,15.5,7,15.5,15.5s-6.9,15.6-15.5,15.6-15.5-7-15.5-15.6,6.9-15.5,15.5-15.5Z"/>
            <path class="cls-4" d="M431.59-15.5c8.6,0,15.5,6.9,15.5,15.4s-6.9,15.6-15.5,15.6-15.49-6.89-15.49-15.6,6.89-15.4,15.49-15.4Z"/>
            <path class="cls-4" d="M383.79-.1c8.6,0,15.61,7,15.61,15.6s-7,15.5-15.61,15.5-15.49-7-15.49-15.5S375.19-.1,383.79-.1Z"/>
            <path class="cls-4" d="M336.7,17.4c8.59,0,15.49,7,15.49,15.5s-6.9,15.6-15.49,15.6-15.5-7-15.5-15.6,6.9-15.5,15.5-15.5Z"/>
            <path class="cls-4" d="M290.29,36.7c8.7,0,15.61,6.9,15.61,15.6s-6.9,15.4-15.61,15.4-15.4-6.9-15.4-15.4,6.9-15.6,15.4-15.6Z"/>
            <path class="cls-4" d="M244.9,58c8.5,0,15.4,6.99,15.4,15.4s-6.9,15.49-15.4,15.49-15.6-6.89-15.6-15.49,7-15.4,15.6-15.4Z"/>
            <path class="cls-4" d="M200.2,80.9c8.59,0,15.6,6.9,15.6,15.61s-7,15.39-15.6,15.39-15.5-6.89-15.5-15.39,6.9-15.61,15.5-15.61Z"/>
            <path class="cls-4" d="M156.6,105.7c8.5,0,15.4,7,15.4,15.6s-6.9,15.5-15.4,15.5-15.5-6.99-15.5-15.5,6.9-15.6,15.5-15.6Z"/>
            <path class="cls-4" d="M113.9,132.39c8.6,0,15.49,7,15.49,15.5s-6.89,15.4-15.49,15.4-15.4-6.9-15.4-15.4,6.9-15.5,15.4-15.5Z"/>
            <path class="cls-4" d="M72.5,160.5c8.5,0,15.4,7.1,15.4,15.7s-6.9,15.4-15.4,15.4-15.61-7-15.61-15.4,7.01-15.7,15.61-15.7Z"/>
            <path class="cls-4" d="M32.19,190.49c8.6,0,15.5,6.9,15.5,15.5s-6.9,15.6-15.5,15.6-15.49-6.99-15.49-15.6,6.8-15.5,15.49-15.5Z"/>
            <path class="cls-4" d="M-6.91,222.1c8.6,0,15.4,6.9,15.4,15.4s-6.8,15.61-15.4,15.61-15.5-6.9-15.5-15.61,6.9-15.4,15.5-15.4Z"/>
            <path class="cls-4" d="M1370.99,30.8c8.51,0,15.5,6.89,15.5,15.39s-6.99,15.61-15.5,15.61-15.59-6.9-15.59-15.61,6.9-15.39,15.59-15.39Z"/>
            <path class="cls-4" d="M1325.7,9c8.59,0,15.59,6.8,15.59,15.4s-7,15.39-15.59,15.39-15.5-6.89-15.5-15.39,7-15.4,15.5-15.4Z"/>
            <path class="cls-4" d="M1279.79-11.3c8.5,0,15.4,7.11,15.4,15.5s-6.9,15.5-15.4,15.5-15.6-6.9-15.6-15.5,6.99-15.5,15.6-15.5Z"/>
            <path class="cls-4" d="M1232.89-29.6c8.6,0,15.61,7,15.61,15.4s-7,15.7-15.61,15.7-15.4-6.99-15.4-15.7,7.01-15.4,15.4-15.4Z"/>
            <path class="cls-4" d="M347.8-29.6c8.59,0,15.49,7,15.49,15.4s-6.9,15.7-15.49,15.7-15.5-6.99-15.5-15.7,6.9-15.4,15.5-15.4Z"/>
            <path class="cls-4" d="M301.09-11.3c8.4,0,15.4,7.11,15.4,15.5s-7,15.5-15.4,15.5-15.6-6.9-15.6-15.5,6.99-15.5,15.6-15.5Z"/>
            <path class="cls-4" d="M254.99,9c8.6,0,15.5,6.8,15.5,15.4s-6.9,15.39-15.5,15.39-15.5-6.89-15.5-15.39,6.9-15.4,15.5-15.4Z"/>
            <path class="cls-4" d="M209.9,30.8c8.5,0,15.49,6.89,15.49,15.39s-6.99,15.61-15.49,15.61-15.5-6.9-15.5-15.61,6.9-15.39,15.5-15.39Z"/>
            <path class="cls-4" d="M165.6,54.39c8.5,0,15.4,6.9,15.4,15.61s-6.9,15.4-15.4,15.4-15.5-6.9-15.5-15.4,6.9-15.61,15.5-15.61Z"/>
            <path class="cls-4" d="M122.29,79.89c8.5,0,15.5,6.9,15.5,15.4s-7,15.61-15.5,15.61-15.6-6.9-15.6-15.61,6.99-15.4,15.6-15.4Z"/>
            <path class="cls-4" d="M79.99,106.9c8.5,0,15.5,6.9,15.5,15.5s-7,15.6-15.5,15.6-15.49-6.99-15.49-15.6,6.89-15.5,15.49-15.5Z"/>
            <path class="cls-4" d="M38.9,135.6c8.4,0,15.39,6.9,15.39,15.5s-6.99,15.49-15.39,15.49-15.71-6.9-15.71-15.49,7-15.5,15.71-15.5Z"/>
            <path class="cls-4" d="M-1.2,165.9c8.5,0,15.39,6.9,15.39,15.6s-6.89,15.4-15.39,15.4-15.5-6.9-15.5-15.4,6.9-15.6,15.5-15.6Z"/>
            <path class="cls-4" d="M1338.19-29.4c8.6,0,15.4,6.99,15.4,15.4s-6.8,15.7-15.4,15.7-15.49-7-15.49-15.7,6.89-15.4,15.49-15.4Z"/>
            <path class="cls-4" d="M219.89-18.8c8.5,0,15.4,6.99,15.4,15.6s-6.9,15.5-15.4,15.5-15.6-7-15.6-15.5,7-15.6,15.6-15.6Z"/>
            <path class="cls-4" d="M175,2.8c9.09,0,16.5,7.51,16.5,16.51s-7.4,16.29-16.5,16.29-16.4-7.3-16.4-16.29,7.4-16.51,16.4-16.51Z"/>
            <path class="cls-4" d="M131.09,27.2c9,0,16.3,7.4,16.3,16.4s-7.3,16.29-16.3,16.29-16.5-7.3-16.5-16.29,7.4-16.4,16.5-16.4Z"/>
            <path class="cls-4" d="M88.09,53.2c9,0,16.4,7.2,16.4,16.2s-7.4,16.5-16.4,16.5-16.5-7.29-16.5-16.5,7.4-16.2,16.5-16.2Z"/>
            <path class="cls-4" d="M46.19,80.7c8.91,0,16.2,7.29,16.2,16.29s-7.29,16.51-16.2,16.51-16.5-7.4-16.5-16.51,7.3-16.29,16.5-16.29Z"/>
            <path class="cls-4" d="M5.1,109.9c9.09,0,16.5,7.3,16.5,16.3s-7.4,16.5-16.5,16.5-16.3-7.5-16.3-16.5,7.4-16.3,16.3-16.3Z"/>
            <path class="cls-4" d="M140.3-23.9c9,0,16.39,7.5,16.39,16.5s-7.39,16.4-16.39,16.4-16.4-7.3-16.4-16.4,7.3-16.5,16.4-16.5Z"/>
            <path class="cls-4" d="M96.59,1.2c9.1,0,16.51,7.2,16.51,16.2s-7.4,16.5-16.51,16.5-16.29-7.5-16.29-16.5S87.59,1.2,96.59,1.2Z"/>
            <path class="cls-4" d="M53.89,27.49c9.21,0,16.51,7.3,16.51,16.51s-7.3,16.2-16.51,16.2-16.39-7.2-16.39-16.2,7.4-16.51,16.39-16.51Z"/>
            <path class="cls-4" d="M12.3,55.4c9,0,16.3,7.5,16.3,16.5s-7.3,16.3-16.3,16.3-16.5-7.3-16.5-16.3,7.39-16.5,16.5-16.5Z"/>
            <path class="cls-4" d="M62.2-24.8c9.1,0,16.5,7.2,16.5,16.2s-7.39,16.5-16.5,16.5S45.89.59,45.89-8.6s7.3-16.2,16.3-16.2Z"/>
            <path class="cls-4" d="M19.89,2c9,0,16.4,7.3,16.4,16.3s-7.4,16.5-16.4,16.5S3.59,27.49,3.59,18.3,10.89,2,19.89,2Z"/>
            <path class="cls-4" d="M-14.1-24.3C-4.51-24.3,3.4-16.6,3.4-7S-4.51,10.3-14.1,10.3-31.41,2.69-31.41-7s7.8-17.3,17.31-17.3Z"/>
          </g>
        </g>
        <g id="Curvas">
          <g class="cls-5">
            <g id="Color_C" data-name="Color C" class="cls-1">
              <path class="cls-7" d="M682.7,782.8c-4.11,0-7.91-3-8.81-7.4-.8-4.79,2.41-9.4,7.2-10.29l84.81-16.2c5-.81,9.4,2.29,10.39,7.2.9,4.7-2.2,9.49-7.1,10.29l-84.8,16.11c-.5.3-1,.3-1.7.3Z"/>
              <path class="cls-7" d="M876.19,770.6h-.59l-86.01-5.5c-5-.2-8.69-4.4-8.5-9.4.4-4.9,5.1-8.51,9.5-8.41l86.2,5.3c4.79.4,8.6,4.7,8.4,9.59-.3,4.8-4.3,8.41-9,8.41Z"/>
              <path class="cls-7" d="M980.4,801.39c-.8,0-1.8-.09-2.7-.4l-82.09-26.7c-4.7-1.4-7.3-6.5-5.7-11,1.4-4.9,6.4-7.4,11.3-5.81l81.99,26.5c4.61,1.6,7.3,6.71,5.81,11.2-1.3,4-4.9,6.2-8.6,6.2Z"/>
              <path class="cls-7" d="M427.5,842.79c-2.41,0-4.9-1.3-6.71-3-3.3-3.7-2.9-9.49.81-12.7l64.09-57.9c3.6-3.21,9.31-3,12.61.7,3.4,3.71,3,9.5-.71,12.61l-64.19,58c-1.6,1.4-3.8,2.29-5.9,2.29Z"/>
              <path class="cls-7" d="M509.69,771.8c-3.1,0-6-1.7-7.7-4.7-2.4-4.11-.99-9.61,3.3-12.1l74.7-43.2c4.4-2.19,9.71-.8,12.21,3.31,2.5,4.3.99,9.7-3.21,12.09l-74.9,43.2c-1.2.9-2.81,1.4-4.4,1.4Z"/>
              <path class="cls-7" d="M604.9,719.4c-3.8,0-7.2-2.5-8.4-6.21-1.51-4.6.99-9.59,5.8-11.29l82.1-26.71c4.6-1.39,9.6,1.2,11.19,5.7,1.4,4.89-.99,9.99-5.69,11.4l-82.21,26.71c-.89.19-1.79.4-2.8.4Z"/>
              <path class="cls-7" d="M708.99,688.1c-4.5,0-8.4-3.5-8.8-8-.71-4.9,2.9-9.21,7.9-9.9l85.7-9c5.1-.19,9.4,3.3,9.9,8,.61,4.9-2.9,9.31-7.89,10l-85.8,8.9h-1Z"/>
              <path class="cls-7" d="M902.99,688.1h-.9l-85.79-8.9c-4.9-.7-8.41-5.1-8.01-10,.6-4.7,4.61-8.19,10-8l85.6,9c5.01.7,8.6,5,8.1,9.9-.59,4.5-4.3,8-9,8Z"/>
              <path class="cls-7" d="M1007.09,719.4c-.9,0-1.89-.2-2.8-.4l-82.1-26.71c-4.6-1.4-7.2-6.5-5.69-11.4,1.5-4.51,6.59-7.1,11.29-5.7l82,26.71c4.8,1.7,7.3,6.7,5.8,11.29-1.2,3.71-4.7,6.21-8.5,6.21Z"/>
              <path class="cls-7" d="M1102.39,771.8c-1.49,0-3.2-.5-4.49-1.4l-74.8-43.2c-4.3-2.4-5.81-7.79-3.21-12.09,2.41-4.11,7.91-5.5,12.21-3.31l74.7,43.2c4.3,2.5,5.69,8,3.3,12.1-1.8,3-4.8,4.7-7.7,4.7Z"/>
              <path class="cls-7" d="M1184.59,842.79c-2.2,0-4.3-.89-5.9-2.29l-64.1-58c-3.7-3.1-4.1-8.9-.7-12.61,3.21-3.7,8.8-3.9,12.61-.7l64.19,57.9c3.6,3.21,3.9,9,.6,12.7-1.9,1.7-4.3,3-6.71,3Z"/>
              <path class="cls-7" d="M357.39,791.7c-2.3,0-4.7-.8-6.4-2.6-3.5-3.7-3.3-9.3.1-12.8l62.49-59.6c3.4-3.5,9.21-3.21,12.71.2,3.3,3.8,3.19,9.3-.31,12.8l-62.39,59.6c-1.9,1.6-4.11,2.4-6.21,2.4Z"/>
              <path class="cls-7" d="M437.19,718c-2.8,0-5.7-1.3-7.4-3.8-2.69-4.2-1.6-9.7,2.41-12.4l72.1-47.61c3.99-2.69,9.59-1.6,12.49,2.6,2.51,4.21,1.4,9.71-2.69,12.21l-71.91,47.7c-1.7.9-3.19,1.3-5,1.3Z"/>
              <path class="cls-7" d="M528.89,660c-3.4,0-6.8-2.1-8.2-5.3-1.89-4.6.1-9.9,4.61-11.8l79.39-34c4.61-1.8,9.81.19,11.81,4.7,2,4.5-.2,9.7-4.7,11.9l-79.3,33.8c-1.2.49-2.41.7-3.6.7Z"/>
              <path class="cls-7" d="M629.49,619.19c-3.99,0-7.79-2.8-8.59-6.8-1.21-4.89,1.89-9.8,6.59-10.9l84.2-19.1c4.89-1.2,9.49,1.7,10.7,6.59,1.2,4.9-2.01,9.71-6.71,10.91l-84.1,19.1c-.8.19-1.39.19-2.1.19Z"/>
              <path class="cls-7" d="M735.9,596.8c-4.8,0-8.8-3.7-8.9-8.5-.2-4.8,3.4-8.9,8.6-9.21l86.1-3.89h.3c4.8,0,8.81,3.8,8.9,8.59.2,5.01-3.4,9.21-8.6,9.31l-86.1,3.7h-.3Z"/>
              <path class="cls-7" d="M929.89,605.7h-1.1l-85.61-11.6c-4.89-.7-8.4-5.29-7.69-10.2.7-4.8,5.29-8.4,9.99-7.6l85.7,11.5c4.7.8,8.2,5.3,7.51,10.2-.5,4.3-4.3,7.7-8.81,7.7Z"/>
              <path class="cls-7" d="M1033.8,637.4c-.9,0-2.01-.2-2.7-.4l-82.3-26.8c-4.49-1.61-7-6.6-5.6-11.3,1.5-4.5,6.6-7.3,11.2-5.8l82.09,26.8c4.61,1.6,7.4,6.5,5.7,11.29-1.2,3.71-4.6,6.21-8.4,6.21Z"/>
              <path class="cls-7" d="M1130.3,687c-1.4,0-2.81-.2-4.21-1l-75.99-41c-4.3-2.2-6-7.6-3.6-11.9,2.2-4.4,7.7-6.1,12-3.7l76.1,40.8c4.29,2.2,5.9,7.8,3.49,12.1-1.5,3.09-4.6,4.7-7.79,4.7Z"/>
              <path class="cls-7" d="M1216.4,753c-1.9,0-3.9-.6-5.41-1.8l-67.59-53.8c-3.8-3.1-4.51-8.8-1.4-12.49,3.1-4,8.7-4.7,12.5-1.4l67.4,53.7c4.01,3,4.6,8.7,1.5,12.7-1.7,2.1-4.3,3.1-6.99,3.1Z"/>
              <path class="cls-7" d="M1289.3,833.6c-2.4,0-4.9-1-6.7-3.1l-56.7-64.9c-3.21-3.7-2.91-9.49.89-12.7,3.6-3.3,9.21-2.8,12.61.9l56.7,65c3.3,3.7,2.9,9.2-.9,12.6-1.6,1.4-3.8,2.2-5.9,2.2Z"/>
              <path class="cls-7" d="M222.09,827.89c-1.89,0-3.7-.8-5.2-2-3.99-2.9-5-8.5-2.1-12.5l50.9-69.69c2.8-4.2,8.4-4.8,12.4-2.1,3.9,3,4.8,8.5,1.89,12.4l-50.7,69.8c-1.7,2.7-4.39,4.1-7.2,4.1Z"/>
              <path class="cls-7" d="M287.29,741c-2.29,0-4.6-1-6.3-2.9-3.5-3.4-3.5-9,0-12.4l61-61.1c3.5-3.4,9.1-3.4,12.61,0,3.4,3.5,3.4,9.21,0,12.61l-61,60.9c-1.61,1.89-3.9,2.9-6.31,2.9Z"/>
              <path class="cls-7" d="M365.3,665.29c-2.7,0-5.51-1.2-7.3-3.59-2.81-4-2.1-9.61,2.2-12.5l69.69-50.7c3.9-3,9.61-2,12.5,1.8,2.9,4.1,1.89,9.7-2,12.6l-69.91,50.8c-1.6,1.11-3.4,1.6-5.19,1.6Z"/>
              <path class="cls-7" d="M454.09,602.8c-3.19,0-6.4-1.51-7.79-4.8-2.3-4.4-.6-9.7,3.8-12l76.8-39.2c4.4-2.2,9.9-.4,12.09,4,2.31,4.39.41,9.7-3.89,12l-76.9,39.1c-1.3.7-2.7.9-4.1.9Z"/>
              <path class="cls-7" d="M551.6,555.19c-3.6,0-7.2-2.29-8.4-6.09-1.51-4.8,1.1-9.9,5.59-11.3l82.21-26.7c4.6-1.4,9.7,1.3,11.2,5.69,1.6,4.8-1,9.71-5.81,11.41l-82,26.8c-.9.19-1.89.19-2.8.19Z"/>
              <path class="cls-7" d="M655.4,523.4c-4.3,0-8.2-3.1-8.81-7.6-.8-4.8,2.5-9.61,7.4-10.2l85.2-13.51c5.1-.8,9.5,2.7,10.2,7.61.9,4.7-2.5,9.4-7.39,9.99l-85.21,13.7h-1.39Z"/>
              <path class="cls-7" d="M849.19,508.1h-86.29c-5.01,0-8.9-4.11-8.9-8.9s3.89-9,8.9-9h86.29c4.9,0,8.91,4.1,8.91,9s-4,8.9-8.91,8.9Z"/>
              <path class="cls-7" d="M956.79,523.4h-1.6l-85.1-13.7c-4.89-.59-8.19-5.29-7.5-9.99.69-4.9,5.3-8.41,10.3-7.61l85.2,13.51c4.8.59,8.2,5.4,7.4,10.2-.71,4.5-4.51,7.6-8.7,7.6Z"/>
              <path class="cls-7" d="M1060.3,555.19c-.8,0-1.8,0-2.7-.19l-82-26.8c-4.7-1.7-7.2-6.6-5.69-11.41,1.6-4.39,6.49-7.29,11.19-5.69l82.1,26.7c4.8,1.4,7.3,6.5,5.8,11.3-1.3,3.8-4.79,6.09-8.69,6.09Z"/>
              <path class="cls-7" d="M1157.89,602.8c-1.4,0-2.9-.2-4-.9l-76.89-39.1c-4.4-2.3-6.2-7.61-4-12,2.3-4.4,7.6-6.21,12.1-4l76.89,39.2c4.51,2.3,6.1,7.6,3.9,12-1.6,3.3-4.7,4.8-8,4.8Z"/>
              <path class="cls-7" d="M1246.8,665.29c-1.8,0-3.61-.49-5.3-1.6l-69.8-50.8c-4.11-2.9-4.8-8.5-2.01-12.6,2.9-3.8,8.6-4.8,12.5-1.8l69.9,50.7c3.9,2.9,4.9,8.5,1.9,12.5-1.8,2.4-4.51,3.59-7.2,3.59Z"/>
              <path class="cls-7" d="M1324.7,741c-2.2,0-4.5-1-6.3-2.9l-60.91-60.9c-3.49-3.4-3.49-9.1,0-12.61,3.31-3.4,9-3.4,12.5,0l61,61.1c3.6,3.4,3.6,9,0,12.4-1.7,1.89-3.99,2.9-6.3,2.9Z"/>
              <path class="cls-7" d="M1389.89,827.89c-2.8,0-5.4-1.39-7.1-4.1l-50.7-69.8c-3-3.9-2.1-9.4,1.79-12.4,4-2.7,9.71-2.1,12.5,2.1l50.8,69.69c2.8,4,2.1,9.61-2,12.5-1.51,1.2-3.4,2-5.3,2Z"/>
              <path class="cls-7" d="M152.3,776.8c-1.8,0-3.71-.5-5.3-1.5-3.9-3-4.89-8.6-1.89-12.5l50.7-69.8c3-4.21,8.6-5.2,12.5-2.11,3.89,3,4.79,8.51,2,12.4l-50.7,69.91c-1.8,2.4-4.61,3.59-7.3,3.59Z"/>
              <path class="cls-7" d="M983.5,441h-1.7l-84.9-15.09c-4.9-.71-8.1-5.3-7.2-10.11.8-4.89,5.59-8.4,10.29-7.39l85,14.99c4.8.81,8,5.51,7.2,10.3-.9,4.4-4.5,7.3-8.69,7.3Z"/>
              <path class="cls-7" d="M1087.2,473.2c-1,0-1.91,0-2.81-.6l-82.2-26.4c-4.7-1.7-7.2-6.7-5.6-11.4,1.4-4.8,6.5-7.3,11.1-5.7l82.1,26.7c4.79,1.4,7.2,6.5,5.8,11.1-1.2,4-4.8,6.31-8.4,6.31Z"/>
              <path class="cls-7" d="M1185.39,519.5c-1.39,0-2.8-.59-3.99-.9l-77.6-38.09c-4.51-2.11-6.31-7.3-4.11-11.7,2.2-4.7,7.51-6.5,12-4.2l77.6,37.8c4.3,2.01,6.1,7.6,4.11,12-1.7,3.21-4.7,5.1-8.01,5.1Z"/>
              <path class="cls-7" d="M1276.2,578.6c-1.7,0-3.5-.4-5.1-1.3l-71.61-48.4c-3.89-2.8-5-8.29-2.4-12.4,2.9-3.99,8.5-5.1,12.5-2.29l71.5,48.1c4,2.8,5.1,8.5,2.41,12.5-1.61,2.5-4.51,3.8-7.3,3.8Z"/>
              <path class="cls-7" d="M1357.79,650.1c-2.1,0-4.3-.8-5.9-2.1l-64.1-57.8c-3.8-3.3-4.1-8.99-.8-12.6,3.31-3.8,9-4,12.5-.8l64.3,57.9c3.71,3.21,4,8.9.6,12.5-1.6,2-4,2.9-6.6,2.9Z"/>
              <path class="cls-7" d="M1428.9,732.29c-2.7,0-5.2-.99-6.9-3.19l-55.6-66c-3.09-3.8-2.6-9.61,1.2-12.5,3.71-3.4,9.4-2.81,12.61.9l55.3,66.1c3.21,3.9,2.81,9.4-.99,12.7-1.61,1.4-3.61,2-5.6,2Z"/>
              <path class="cls-7" d="M29,820.7c-1.6,0-3-.5-4.4-1.2-4.2-2.3-5.9-7.8-3.5-12.3l41.61-75.5c2.4-4.11,7.8-5.7,12.2-3.4,4.2,2.2,5.81,7.8,3.4,12.09l-41.4,75.6c-1.7,3-4.7,4.7-7.9,4.7Z"/>
              <path class="cls-7" d="M82.4,726.2c-1.8,0-3.6-.5-5.2-1.7-3.9-3-4.9-8.6-1.9-12.4l50.7-69.81c2.81-4.2,8.41-5.1,12.5-2.1,3.9,3,4.8,8.5,1.9,12.4l-50.7,69.9c-1.71,2.51-4.4,3.71-7.3,3.71Z"/>
              <path class="cls-7" d="M1010.09,358.8h-1.6l-84.69-16.4c-5.01-.9-8.01-5.4-7.21-10.2,1-4.89,5.3-8.2,10.51-7.2l84.7,16.2c4.8.8,8.1,5.7,7.11,10.5-.71,4.21-4.51,7.11-8.81,7.11Z"/>
              <path class="cls-7" d="M1113.79,391.1c-.9,0-1.89-.3-2.69-.5l-82.31-26.7c-4.6-1.4-7.1-6.5-5.69-11.3,1.5-4.6,6.7-7.1,11.4-5.5l82,26.5c4.7,1.6,7.3,6.7,5.8,11.3-1.3,3.89-4.79,6.2-8.5,6.2Z"/>
              <path class="cls-7" d="M1212.5,436.1c-1.2,0-2.5-.2-3.8-1l-78-36.7c-4.51-2-6.5-7.3-4.4-12,2.2-4.3,7.5-6.1,11.9-4l78.2,36.61c4.39,2.1,6.3,7.3,4.2,12-1.4,3.19-4.7,5.1-8.1,5.1Z"/>
              <path class="cls-7" d="M1304.89,492.9c-1.6,0-3.3-.41-4.89-1.3l-72.81-46.31c-4.1-2.6-5.4-8.1-2.69-12.2,2.6-4.2,8.2-5.41,12.2-2.81l73,46.31c4.2,2.5,5.4,8,2.81,12.2-1.8,2.81-4.61,4.11-7.61,4.11Z"/>
              <path class="cls-7" d="M1389.49,561.19c-2.1,0-4.2-.7-5.9-2.1l-66.3-55.1c-3.8-2.9-4.3-8.69-1.39-12.39,3.3-3.9,9-4.4,12.7-1.4l66.5,55.1c3.9,3.09,4.3,8.69,1.1,12.6-1.7,2.1-4.2,3.3-6.7,3.3Z"/>
              <path class="cls-7" d="M-41.71,769.2c-1.7,0-3.09-.2-4.5-1.2-4.2-2.3-5.7-7.8-3.3-12.1l42.39-75.2c2.51-4.1,7.8-5.69,12.11-3.09,4.4,2.29,5.9,7.79,3.4,12.09l-42.4,75.2c-1.79,2.7-4.79,4.3-7.7,4.3Z"/>
              <path class="cls-7" d="M12.7,675.5c-1.8,0-3.7-.5-5.3-1.7-3.89-2.91-4.89-8.51-2-12.4l50.8-69.81c2.8-4.2,8.6-5.1,12.5-2.1,3.9,2.81,4.79,8.5,1.89,12.4l-50.7,69.8c-1.7,2.41-4.5,3.81-7.2,3.81Z"/>
              <path class="cls-7" d="M1239.69,352.9c-1.3,0-2.5-.31-3.7-.8l-78.6-35.9c-4.5-2.1-6.4-7.3-4.3-11.81,1.9-4.39,7.2-6.49,11.81-4.39l78.5,35.8c4.39,2.1,6.4,7.39,4.39,11.9-1.6,3.4-4.8,5.2-8.1,5.2Z"/>
              <path class="cls-7" d="M1333.19,407.99c-1.6,0-3.19-.59-4.6-1.39l-74-44.5c-3.99-2.6-5.4-8.1-2.9-12.3,2.5-4.3,8.1-5.7,12.2-3.1l74,44.61c4.1,2.6,5.6,8.1,2.9,12.3-1.5,2.8-4.6,4.39-7.6,4.39Z"/>
              <path class="cls-7" d="M1419.9,473.2c-1.91,0-3.8-.8-5.4-1.9l-68.4-52.8c-3.9-2.9-4.6-8.5-1.6-12.5,3-3.8,8.59-4.5,12.49-1.5l68.4,52.7c3.9,3.1,4.5,8.6,1.6,12.5-1.8,2.2-4.39,3.5-7.1,3.5Z"/>
            </g>
          </g>
        </g>
      </g>
    </g>
  </g>
</svg>