<?xml version="1.0" encoding="UTF-8"?>
<svg xmlns="http://www.w3.org/2000/svg" xmlns:xlink="http://www.w3.org/1999/xlink" viewBox="0 0 1080 720">
  <defs>
    <style>
      .cls-1, .cls-2 {
        opacity: .3;
      }

      .cls-3 {
        fill: none;
      }

      .cls-4 {
        fill: #28a745;
      }

      .cls-5 {
        isolation: isolate;
      }

      .cls-6 {
        fill: #6c757d;
        opacity: .6;
      }

      .cls-7 {
        opacity: .35;
      }

      .cls-7, .cls-2 {
        mix-blend-mode: screen;
      }

      .cls-8 {
        opacity: .1;
      }

      .cls-9 {
        fill: #343a40;
        opacity: .4;
      }

      .cls-10 {
        fill: #e0efe3;
      }

      .cls-11 {
        clip-path: url(#clippath);
      }

      .cls-12 {
        opacity: .7;
      }
    </style>
    <clipPath id="clippath">
      <rect class="cls-3" width="1080" height="720"/>
    </clipPath>
  </defs>
  <g class="cls-5">
    <g id="Capa_2" data-name="Capa 2">
      <g id="object">
        <g class="cls-11">
          <g class="cls-8">
            <path class="cls-3" d="M1032.78,349.07l42.55,33.02c-.7,1.24-1.05,2.7-.92,4.23.02.26.06.52.11.77l-160.49,56.67c-.04-.08-.09-.15-.14-.23l118.9-94.46Z"/>
            <path class="cls-3" d="M1111.88,280.58c.02.21.05.42.09.63l-96.16,44.53c-.52-.8-1.2-1.48-1.98-2.02l43.62-89.07,55.62,41.28c-.87,1.33-1.33,2.95-1.18,4.65Z"/>
            <path class="cls-3" d="M1076.65,380.39l-42.13-32.7,79.17-62.9c.51.58,1.11,1.08,1.78,1.48l-32.35,92.22c-.65-.12-1.32-.17-2.02-.11-1.74.15-3.28.89-4.45,2.01Z"/>
            <path class="cls-3" d="M833.32,234.78l-3.44,25.86-15.52,116.78c-.17,0-.34,0-.52.02-1.16.1-2.23.47-3.17,1.04l-59.28-71.61,79.29-73.48c.77.64,1.66,1.11,2.63,1.4Z"/>
            <path class="cls-3" d="M816.91,377.83c-.13-.05-.27-.09-.41-.13l15.6-117.36,3.36-25.28c.18,0,.37,0,.55-.02,2.12-.18,3.95-1.26,5.17-2.82l40.14,23.54-64.41,122.06Z"/>
            <path class="cls-3" d="M1002.85,327.03c-.42,1.04-.61,2.18-.51,3.37,0,.1.03.2.04.3l-181.21,51.06c-.53-1.17-1.34-2.17-2.35-2.91l64.37-121.98,119.66,70.16Z"/>
            <path class="cls-3" d="M939.94,154.25c.71-.06,1.38-.23,2.01-.47l64.14,169.57c-.83.46-1.55,1.08-2.14,1.81l-119.75-70.21,53.25-100.92c.79.21,1.62.29,2.48.22Z"/>
            <path class="cls-3" d="M301.04,236.54c.43.04.88.05,1.33.01,1.36-.12,2.6-.61,3.64-1.35l47.35,43.69-93.72,109.62c-.29-.18-.59-.35-.9-.49l42.31-151.49Z"/>
            <path class="cls-3" d="M297.35,235.11c.49.36,1.02.67,1.59.9l-42.3,151.42c-.5-.06-1.02-.08-1.55-.03-.99.09-1.92.37-2.75.8l-50.68-70.2,95.68-82.89Z"/>
            <path class="cls-3" d="M112.41,201.64l-50.37-18.54,36.17-59.07c.94.48,1.99.76,3.1.8l15.03,73.45c-1.7.62-3.09,1.83-3.93,3.37Z"/>
            <path class="cls-3" d="M809.3,416.77l31.09-13.31,60.51,40.61c-.03.07-.07.13-.1.2l-91.29-24.77c.06-.49.07-.99.02-1.49-.04-.43-.12-.84-.22-1.24Z"/>
            <path class="cls-3" d="M534.68,390.34l64-105.25,106.22,54.59c-.32.93-.45,1.95-.36,2.99.01.13.04.27.05.4l-167.96,49.82c-.46-.99-1.13-1.86-1.96-2.55Z"/>
            <path class="cls-3" d="M716.45,336.31c-1.42-1.14-3.26-1.76-5.22-1.59-.32.03-.64.08-.95.15l-52.36-137.3s.09-.06.13-.09l90.38,109.19-31.98,29.64Z"/>
            <path class="cls-3" d="M1003.41,333.62c.2.32.42.63.67.92l-92.61,106.48c-1.32-.84-2.91-1.28-4.58-1.13-1.92.17-3.6,1.06-4.8,2.38l-59.34-39.83,160.66-68.82Z"/>
            <path class="cls-3" d="M1111.38,283.86l-78.62,62.46-16.69-12.95c.7-1.24,1.05-2.7.92-4.23-.04-.5-.14-.98-.27-1.44l94.66-43.83Z"/>
            <path class="cls-3" d="M1011.89,322.77c-.9-.29-1.86-.4-2.86-.32-.32.03-.62.08-.93.15l-64.25-169.89c.51-.4.95-.86,1.34-1.38l110.5,82.01-43.79,89.43Z"/>
            <path class="cls-3" d="M946.22,149.4c.14-.4.25-.82.32-1.25l12.86,1.48,123.58,14.19c-.02.35-.02.69,0,1.05.21,2.41,1.56,4.44,3.47,5.62l-29.81,60.88-110.43-81.96Z"/>
            <path class="cls-3" d="M718.15,345.82l89.2,37.15c-.19.77-.27,1.59-.2,2.43.22,2.56,1.73,4.69,3.83,5.83l-7.32,20.21c-.67-.14-1.37-.18-2.09-.12-1.62.14-3.07.8-4.21,1.8l-79.26-67.21s.04-.06.05-.09Z"/>
            <path class="cls-3" d="M123.99,210.42c.9-.88,1.57-1.99,1.92-3.22l168.51,22.74c.13,1.37.64,2.61,1.4,3.64l-95.42,82.67-76.41-105.83Z"/>
            <path class="cls-3" d="M651.43,198.33c.96.34,2.01.5,3.1.41.49-.04.96-.13,1.42-.27l52.31,137.16c-.94.53-1.75,1.26-2.37,2.12l-106.09-54.52,51.63-84.91Z"/>
            <path class="cls-3" d="M809.01,379.86c-.31.35-.59.72-.83,1.12l-89.2-37.14c.19-.77.27-1.59.2-2.43-.11-1.31-.57-2.5-1.26-3.52l31.89-29.55,59.2,71.52Z"/>
            <path class="cls-3" d="M805.69,412.17l7.32-20.21c.67.14,1.37.18,2.09.12,1.92-.17,3.6-1.06,4.8-2.38l18.35,12.31-29.8,12.76c-.68-1.1-1.63-2-2.76-2.61Z"/>
            <path class="cls-3" d="M821.11,387.91c.54-1.14.81-2.43.69-3.78,0-.1-.03-.2-.04-.3l172.23-48.53-153.38,65.7-19.51-13.09Z"/>
            <path class="cls-3" d="M1005.71,335.96c1.32.84,2.9,1.28,4.58,1.13,1.74-.15,3.28-.9,4.45-2.01l16.28,12.63-114.98,91.35,89.67-103.1Z"/>
            <path class="cls-3" d="M33.12,174.74l25.71,9.47-50.2,81.99c-.38-.16-.77-.29-1.17-.38l18.82-86.52c.23,0,.46,0,.69-.02,2.83-.24,5.15-2.07,6.16-4.53Z"/>
            <path class="cls-3" d="M213.66,216.86l-87.46-11.8c0-.18,0-.35-.02-.53-.34-3.97-3.77-6.91-7.72-6.7l-14.99-73.27c1.46-.39,2.73-1.22,3.67-2.32l187.55,104.88c-.06.22-.12.43-.17.66l-80.87-10.91Z"/>
            <path class="cls-3" d="M59.98,182.33l-26.34-9.7c.04-.43.05-.87.01-1.32-.09-1.06-.41-2.05-.9-2.93l63.33-46.01c.12.13.24.26.37.38l-36.47,59.57Z"/>
            <path class="cls-3" d="M127.22,371.88c-.57.98-.93,2.09-1,3.27l-142.4,12.27,61.26-81.86,82.14,66.32Z"/>
            <path class="cls-3" d="M139.74,371.66l60.28-52.23,50.57,70.04c-.86.84-1.52,1.9-1.88,3.07l-107.82-16.88c0-.23,0-.46-.02-.69-.11-1.22-.51-2.34-1.12-3.31Z"/>
            <path class="cls-3" d="M649.52,197.31l-51.65,84.94-41.2-21.17c.32-.93.45-1.95.36-2.99-.07-.85-.3-1.65-.63-2.39l92.12-59.26c.3.32.63.62.99.88Z"/>
            <path class="cls-3" d="M1114.51,274.3l-56.09-41.63,30.04-61.34c.79.21,1.63.29,2.5.22.29-.02.57-.07.85-.13l24.77,101.67c-.76.29-1.45.7-2.06,1.21Z"/>
            <path class="cls-3" d="M354.94,280.36l40.61,37.47c-.96,1.36-1.46,3.06-1.31,4.85.05.52.15,1.03.29,1.51l-132.79,66.32c-.15-.21-.31-.41-.47-.61l93.67-109.55Z"/>
            <path class="cls-3" d="M829.25,231.78l-79.23,73.42-90.39-109.2c.53-.66.95-1.42,1.23-2.23l167.2,33.44c-.03.38-.03.76,0,1.15.11,1.27.53,2.43,1.19,3.42Z"/>
            <path class="cls-3" d="M935.46,153.18l-53.13,100.68-40.09-23.51c.38-1.01.56-2.11.46-3.25-.1-1.13-.45-2.17-.99-3.08l92.61-71.69c.35.32.73.61,1.13.86Z"/>
            <path class="cls-3" d="M134,368.27l-13.44-155.97c.59-.14,1.16-.34,1.68-.62l76.52,105.99-60.43,52.35c-1.19-1.02-2.7-1.65-4.33-1.75Z"/>
            <path class="cls-3" d="M408.63,320.06l48.79-20.8,67.39,91.53c-.2.2-.39.42-.57.65l-115.79-66.79c.37-.99.54-2.08.45-3.2-.04-.47-.13-.93-.25-1.37Z"/>
            <path class="cls-3" d="M395.52,229.57l-40.76,47.68-47.2-43.55c.72-.94,1.22-2.05,1.42-3.26l83.25-5.68c.39,2.05,1.62,3.76,3.29,4.82Z"/>
            <path class="cls-3" d="M111.67,203.66c-.14.68-.19,1.4-.13,2.13.07.76.25,1.49.52,2.16l-100.89,60.06c-.22-.24-.45-.47-.7-.68l50.43-82.36,50.77,18.69Z"/>
            <path class="cls-3" d="M115.37,211.63c.92.5,1.95.8,3.04.86l13.44,155.97c-1.25.3-2.37.91-3.27,1.74l-82.2-66.37,69-92.2Z"/>
            <path class="cls-3" d="M12.29,276.3c.61-1.19.91-2.55.78-3.97-.07-.77-.25-1.5-.53-2.18l100.64-60.33c.15.18.3.35.46.51l-68.95,92.13-32.4-26.16Z"/>
            <path class="cls-3" d="M5.27,280.29c.36.02.73.03,1.11,0,1.84-.16,3.46-.99,4.65-2.22l32.36,26.13-59.84,79.95,21.71-103.86Z"/>
            <path class="cls-3" d="M543.46,262.56c.94,1.53,2.42,2.67,4.15,3.19l-17.67,122.89c-.2,0-.4,0-.6.02-1.01.09-1.96.38-2.81.83l-67.08-91.11,84.01-35.82Z"/>
            <path class="cls-3" d="M532.84,389.22c-.24-.1-.49-.19-.75-.27l2.29-15.93,15.38-106.96c.2,0,.39,0,.59-.02,2.22-.19,4.13-1.36,5.34-3.04l41.07,21.1-63.92,105.12Z"/>
            <path class="cls-3" d="M542.4,259.34c.04.42.12.83.22,1.22l-84.47,36.02-51.89-70.48c.14-.34.25-.7.34-1.07l83.86,20.38,51.96,12.62c-.04.42-.05.86,0,1.3Z"/>
            <path class="cls-3" d="M407.74,318.08c-1.12-1.74-2.95-2.95-5.04-3.28l.4-37.82.5-47.56c.54-.37,1.02-.81,1.44-1.3l51.06,69.34-48.36,20.62Z"/>
            <path class="cls-3" d="M397.59,230.47c.79.21,1.62.29,2.48.22.47-.04.92-.13,1.36-.25l-.49,46.35-.4,37.99c-1.32.18-2.52.71-3.51,1.48l-40.7-37.55,41.25-48.24Z"/>
            <path class="cls-10" d="M1118.67,272.62l-24.83-101.94c2.48-1.36,4.06-4.08,3.8-7.08-.35-4.04-3.91-7.04-7.95-6.69-2.93.25-5.3,2.19-6.26,4.78l-136.84-15.71c-.51-3.88-3.97-6.71-7.91-6.37-4.04.35-7.04,3.91-6.69,7.95.1,1.13.45,2.17.99,3.08l-92.61,71.7c-1.47-1.35-3.47-2.12-5.61-1.93-2.9.25-5.25,2.15-6.23,4.7l-167.28-33.46c0-.28,0-.57-.02-.85-.35-4.04-3.91-7.04-7.95-6.69-4.04.35-7.04,3.91-6.69,7.95.08.93.34,1.81.73,2.6l-92.06,59.22c-1.49-1.7-3.73-2.69-6.15-2.48-2.84.25-5.16,2.08-6.17,4.56l-136.15-33.08s0-.08,0-.13c-.35-4.04-3.91-7.04-7.95-6.69-3.57.31-6.31,3.11-6.67,6.55l-83.13,5.67c-.51-3.88-3.98-6.7-7.91-6.36-2.32.2-4.29,1.46-5.48,3.25L108.29,120.41c.47-1.09.69-2.3.58-3.56-.35-4.04-3.91-7.04-7.95-6.69-4.04.35-7.04,3.91-6.69,7.95.08.88.31,1.71.67,2.47l-63.46,46.1c-1.48-1.43-3.53-2.24-5.74-2.05-4.04.35-7.04,3.91-6.69,7.95.26,3.06,2.37,5.51,5.12,6.38l-18.85,86.68c-.05,0-.11,0-.16,0-4.04.35-7.04,3.91-6.69,7.95.25,2.91,2.17,5.27,4.73,6.24l-23.71,113.41,2.63-3.51,144.32-12.44c.83,3.49,4.1,5.94,7.77,5.62,3.06-.26,5.52-2.37,6.38-5.13l107.82,16.88c0,.23,0,.46.02.69.35,4.04,3.91,7.04,7.95,6.69,4.04-.35,7.04-3.91,6.69-7.95-.05-.57-.17-1.12-.34-1.65l132.75-66.3c1.44,2.15,3.97,3.47,6.73,3.23,2.14-.18,3.98-1.28,5.2-2.86l115.76,66.78c-.4,1.02-.59,2.15-.49,3.32.35,4.04,3.91,7.04,7.95,6.69,4.04-.35,7.04-3.91,6.69-7.95-.01-.14-.04-.27-.05-.4l167.96-49.82c1.27,2.72,4.13,4.49,7.29,4.22,1.62-.14,3.07-.8,4.21-1.8l79.26,67.21c-.81,1.3-1.23,2.86-1.08,4.5.35,4.04,3.91,7.04,7.95,6.69,2.78-.24,5.06-1.99,6.1-4.38l91.29,24.77c-.06.49-.07.99-.02,1.49.35,4.04,3.91,7.04,7.95,6.69,4.04-.35,7.04-3.91,6.69-7.95-.02-.26-.06-.52-.11-.77l160.49-56.67c1.34,2.53,4.1,4.14,7.13,3.88,4.04-.35,7.04-3.91,6.69-7.95-.22-2.59-1.76-4.74-3.9-5.87l32.32-92.11c.76.18,1.55.26,2.37.19,4.04-.35,7.04-3.91,6.69-7.95-.35-4.01-3.85-6.99-7.86-6.69ZM1086.46,170.48l-29.81,60.88-110.43-81.96c.14-.4.25-.82.32-1.25l12.86,1.48,123.58,14.19c-.02.35-.02.69,0,1.05.21,2.41,1.56,4.44,3.47,5.62ZM842.75,402.44l160.66-68.82c.2.32.42.63.67.92l-92.61,106.48c-1.32-.84-2.91-1.28-4.58-1.13-1.92.17-3.6,1.06-4.8,2.38l-59.34-39.83ZM945.19,151.32l110.5,82.01-43.79,89.43c-.9-.29-1.86-.4-2.86-.32-.32.03-.62.08-.93.15l-64.25-169.89c.51-.4.95-.86,1.34-1.38ZM1016.99,329.14c-.04-.5-.14-.98-.27-1.44l94.66-43.83-78.62,62.46-16.69-12.95c.7-1.24,1.05-2.7.92-4.23ZM1031.02,347.71l-114.98,91.35,89.67-103.1c1.32.84,2.9,1.28,4.58,1.13,1.74-.15,3.28-.9,4.45-2.01l16.28,12.63ZM840.61,401l-19.51-13.09c.54-1.14.81-2.43.69-3.78,0-.1-.03-.2-.04-.3l172.23-48.53-153.38,65.7ZM838.25,402.02l-29.8,12.76c-.68-1.1-1.63-2-2.76-2.61l7.32-20.21c.67.14,1.37.18,2.09.12,1.92-.17,3.6-1.06,4.8-2.38l18.35,12.31ZM797.36,413.11l-79.26-67.21s.04-.06.05-.09l89.2,37.15c-.19.77-.27,1.59-.2,2.43.22,2.56,1.73,4.69,3.83,5.83l-7.32,20.21c-.67-.14-1.37-.18-2.09-.12-1.62.14-3.07.8-4.21,1.8ZM705.89,337.76l-106.09-54.52,51.63-84.91c.96.34,2.01.5,3.1.41.49-.04.96-.13,1.42-.27l52.31,137.16c-.94.53-1.75,1.26-2.37,2.12ZM748.43,306.67l-31.98,29.64c-1.42-1.14-3.26-1.76-5.22-1.59-.32.03-.64.08-.95.15l-52.36-137.3s.09-.06.13-.09l90.38,109.19ZM749.81,308.34l59.2,71.52c-.31.35-.59.72-.83,1.12l-89.2-37.14c.19-.77.27-1.59.2-2.43-.11-1.31-.57-2.5-1.26-3.52l31.89-29.55ZM751.4,306.87l79.29-73.48c.77.64,1.66,1.11,2.63,1.4l-3.44,25.86-15.52,116.78c-.17,0-.34,0-.52.02-1.16.1-2.23.47-3.17,1.04l-59.28-71.61ZM841.18,232.23l40.14,23.54-64.41,122.06c-.13-.05-.27-.09-.41-.13l15.6-117.36,3.36-25.28c.18,0,.37,0,.55-.02,2.12-.18,3.95-1.26,5.17-2.82ZM883.19,256.86l119.66,70.16c-.42,1.04-.61,2.18-.51,3.37,0,.1.03.2.04.3l-181.21,51.06c-.53-1.17-1.34-2.17-2.35-2.91l64.37-121.98ZM884.2,254.95l53.25-100.92c.79.21,1.62.29,2.48.22.71-.06,1.38-.23,2.01-.47l64.14,169.57c-.83.46-1.55,1.08-2.14,1.81l-119.75-70.21ZM1057.45,234.64l55.62,41.28c-.87,1.33-1.33,2.95-1.18,4.65.02.21.05.42.09.63l-96.16,44.53c-.52-.8-1.2-1.48-1.98-2.02l43.62-89.07ZM1083.11,378.48c-.65-.12-1.32-.17-2.02-.11-1.74.15-3.28.89-4.45,2.01l-42.13-32.7,79.17-62.9c.51.58,1.11,1.08,1.78,1.48l-32.35,92.22ZM914.02,443.77c-.04-.08-.09-.15-.14-.23l118.9-94.46,42.55,33.02c-.7,1.24-1.05,2.7-.92,4.23.02.26.06.52.11.77l-160.49,56.67ZM809.5,419.5c.06-.49.07-.99.02-1.49-.04-.43-.12-.84-.22-1.24l31.09-13.31,60.51,40.61c-.03.07-.07.13-.1.2l-91.29-24.77ZM536.64,392.89c-.46-.99-1.13-1.86-1.96-2.55l64-105.25,106.22,54.59c-.32.93-.45,1.95-.36,2.99.01.13.04.27.05.4l-167.96,49.82ZM116.35,198.26c-1.7.62-3.09,1.83-3.93,3.37l-50.37-18.54,36.17-59.07c.94.48,1.99.76,3.1.8l15.03,73.45ZM259.62,388.51c-.29-.18-.59-.35-.9-.49l42.31-151.49c.43.04.88.05,1.33.01,1.36-.12,2.6-.61,3.64-1.35l47.35,43.69-93.72,109.62ZM252.35,388.21l-50.68-70.2,95.68-82.89c.49.36,1.02.67,1.59.9l-42.3,151.42c-.5-.06-1.02-.08-1.55-.03-.99.09-1.92.37-2.75.8ZM200.4,316.25l-76.41-105.83c.9-.88,1.57-1.99,1.92-3.22l168.51,22.74c.13,1.37.64,2.61,1.4,3.64l-95.42,82.67ZM198.76,317.67l-60.43,52.35c-1.19-1.02-2.7-1.65-4.33-1.75l-13.44-155.97c.59-.14,1.16-.34,1.68-.62l76.52,105.99ZM46.37,303.82l69-92.2c.92.5,1.95.8,3.04.86l13.44,155.97c-1.25.3-2.37.91-3.27,1.74l-82.2-66.37ZM44.69,302.47l-32.4-26.16c.61-1.19.91-2.55.78-3.97-.07-.77-.25-1.5-.53-2.18l100.64-60.33c.15.18.3.35.46.51l-68.95,92.13ZM43.4,304.2l-59.84,79.95,21.71-103.86c.36.02.73.03,1.11,0,1.84-.16,3.46-.99,4.65-2.22l32.36,26.13ZM10.47,267.33l50.43-82.36,50.77,18.69c-.14.68-.19,1.4-.13,2.13.07.76.25,1.49.52,2.16l-100.89,60.06c-.22-.24-.45-.47-.7-.68ZM308.97,230.43l83.25-5.68c.39,2.05,1.62,3.76,3.29,4.82l-40.76,47.68-47.2-43.55c.72-.94,1.22-2.05,1.42-3.26ZM456.1,297.46l-48.36,20.62c-1.12-1.74-2.95-2.95-5.04-3.28l.4-37.82.5-47.56c.54-.37,1.02-.81,1.44-1.3l51.06,69.34ZM356.34,278.72l41.25-48.24c.79.21,1.62.29,2.48.22.47-.04.92-.13,1.36-.25l-.49,46.35-.4,37.99c-1.32.18-2.52.71-3.51,1.48l-40.7-37.55ZM490.45,245.42l51.96,12.62c-.04.42-.05.86,0,1.3.04.42.12.83.22,1.22l-84.47,36.02-51.89-70.48c.14-.34.25-.7.34-1.07l83.86,20.38ZM526.54,389.49l-67.08-91.11,84.01-35.82c.94,1.53,2.42,2.67,4.15,3.19l-17.67,122.89c-.2,0-.4,0-.6.02-1.01.09-1.96.38-2.81.83ZM555.69,262.99l41.07,21.1-63.92,105.12c-.24-.1-.49-.19-.75-.27l2.29-15.93,15.38-106.96c.2,0,.39,0,.59-.02,2.22-.19,4.13-1.36,5.34-3.04ZM408.44,324.63c.37-.99.54-2.08.45-3.2-.04-.47-.13-.93-.25-1.37l48.79-20.8,67.39,91.53c-.2.2-.39.42-.57.65l-115.79-66.79ZM261.74,390.52c-.15-.21-.31-.41-.47-.61l93.67-109.55,40.61,37.47c-.96,1.36-1.46,3.06-1.31,4.85.05.52.15,1.03.29,1.51l-132.79,66.32ZM140.89,375.66c0-.23,0-.46-.02-.69-.11-1.22-.51-2.34-1.12-3.31l60.28-52.23,50.57,70.04c-.86.84-1.52,1.9-1.88,3.07l-107.82-16.88ZM-16.18,387.41l61.26-81.86,82.14,66.32c-.57.98-.93,2.09-1,3.27l-142.4,12.27ZM26.27,179.29c.23,0,.46,0,.69-.02,2.83-.24,5.15-2.07,6.16-4.53l25.71,9.47-50.2,81.99c-.38-.16-.77-.29-1.17-.38l18.82-86.52ZM96.09,122.38c.12.13.24.26.37.38l-36.47,59.57-26.34-9.7c.04-.43.05-.87.01-1.32-.09-1.06-.41-2.05-.9-2.93l63.33-46.01ZM294.69,227.12c-.06.22-.12.43-.17.66l-80.87-10.91-87.46-11.8c0-.18,0-.35-.02-.53-.34-3.97-3.77-6.91-7.72-6.7l-14.99-73.27c1.46-.39,2.73-1.22,3.67-2.32l187.55,104.88ZM648.54,196.43c.3.32.63.62.99.88l-51.65,84.94-41.2-21.17c.32-.93.45-1.95.36-2.99-.07-.85-.3-1.65-.63-2.39l92.12-59.26ZM828.06,227.21c-.03.38-.03.76,0,1.15.11,1.27.53,2.43,1.19,3.42l-79.23,73.42-90.39-109.2c.53-.66.95-1.42,1.23-2.23l167.2,33.44ZM934.33,152.32c.35.32.73.61,1.13.86l-53.13,100.68-40.09-23.51c.38-1.01.56-2.11.46-3.25-.1-1.13-.45-2.17-.99-3.08l92.61-71.69ZM1091.79,171.43l24.77,101.67c-.76.29-1.45.7-2.06,1.21l-56.09-41.63,30.04-61.34c.79.21,1.63.29,2.5.22.29-.02.57-.07.85-.13Z"/>
          </g>
          <g class="cls-1">
            <path class="cls-3" d="M415.89,348.41c.69.05,1.4.04,2.11-.04,2.17-.24,4.12-1.07,5.74-2.3l77.35,67.72-144.94,178.75c-.47-.28-.95-.53-1.46-.74l61.19-243.39Z"/>
            <path class="cls-3" d="M409.95,346.29c.79.56,1.66,1.02,2.57,1.37l-61.16,243.29c-.81-.08-1.63-.08-2.47.01-1.58.18-3.04.66-4.35,1.38l-83.76-109.86,149.17-136.21Z"/>
            <path class="cls-3" d="M113.57,300.59l-81.11-27.48,55.24-95.73c1.52.73,3.21,1.13,4.97,1.14l27.03,116.53c-2.68,1.06-4.85,3.05-6.13,5.55Z"/>
            <path class="cls-3" d="M794.98,584.01l97.7-170.55,171.71,82.65c-.47,1.5-.64,3.12-.46,4.79.02.21.07.42.1.63l-265.83,86.46c-.78-1.56-1.88-2.92-3.23-3.98Z"/>
            <path class="cls-3" d="M1082.67,490.26c-2.32-1.76-5.28-2.67-8.4-2.32-.52.06-1.01.16-1.5.28l-89.24-216.82c.07-.05.14-.1.2-.15l148.71,170.41-49.78,48.6Z"/>
            <path class="cls-3" d="M132.4,314.12c1.4-1.44,2.42-3.24,2.93-5.21l269.73,29.25c.27,2.18,1.13,4.13,2.38,5.75l-148.77,135.84-126.28-165.63Z"/>
            <path class="cls-3" d="M973.21,272.88c1.55.51,3.23.71,4.96.52.78-.09,1.53-.25,2.25-.48l89.15,216.61c-1.48.88-2.74,2.08-3.69,3.49l-171.49-82.55,78.81-137.58Z"/>
            <path class="cls-3" d="M-14.03,261l41.4,14.03-76.67,132.87c-.61-.24-1.24-.43-1.89-.56l26.41-138.79c.36,0,.73-.03,1.1-.07,4.51-.51,8.12-3.51,9.64-7.47Z"/>
            <path class="cls-3" d="M275.7,320.66l-140-15.18c-.01-.28-.02-.56-.05-.85-.71-6.31-6.31-10.87-12.59-10.36l-26.97-116.25c2.31-.69,4.3-2.06,5.76-3.86l303.53,159.48c-.09.35-.17.7-.24,1.06l-129.44-14.04Z"/>
            <path class="cls-3" d="M29.13,271.98l-42.42-14.37c.05-.69.04-1.39-.04-2.1-.19-1.69-.74-3.26-1.55-4.63l99.1-76.02c.2.21.4.41.6.6l-55.7,96.53Z"/>
            <path class="cls-3" d="M144.27,571.52c-.88,1.58-1.39,3.37-1.45,5.26l-226.63,25.5L10.49,469.15l133.78,102.37Z"/>
            <path class="cls-3" d="M164.24,570.65l93.98-85.82,83.57,109.62c-1.34,1.38-2.34,3.09-2.87,4.97l-172.69-22.44c0-.36-.03-.73-.07-1.1-.22-1.94-.91-3.72-1.93-5.23Z"/>
            <path class="cls-3" d="M970.13,271.33l-78.84,137.63-66.6-32.06c.47-1.5.64-3.12.46-4.79-.15-1.36-.54-2.62-1.1-3.79l144.47-98.36c.5.5,1.04.96,1.61,1.36Z"/>
            <path class="cls-3" d="M503.69,416.07l66.34,58.08c-1.47,2.22-2.21,4.94-1.89,7.79.09.83.28,1.63.53,2.4l-209.05,111.32c-.24-.33-.51-.64-.78-.95l144.85-178.65Z"/>
            <path class="cls-3" d="M1258.23,318.83l-123.32,120.41-148.72-170.42c.82-1.08,1.46-2.3,1.86-3.62l268.09,46.39c-.03.6-.02,1.21.05,1.83.23,2.01.95,3.85,2.04,5.4Z"/>
            <path class="cls-3" d="M154.94,565.49l-27.93-248.22c.94-.25,1.83-.6,2.65-1.05l126.47,165.87-94.21,86.02c-1.94-1.58-4.37-2.52-6.98-2.62Z"/>
            <path class="cls-3" d="M590.99,477.15l76.95-35.22,111.3,143.19c-.32.33-.61.69-.89,1.06l-187.48-101.72c.55-1.6.78-3.34.58-5.13-.08-.75-.24-1.48-.46-2.17Z"/>
            <path class="cls-3" d="M566.3,333.37l-63.04,77.74-77.1-67.51c1.11-1.53,1.86-3.33,2.13-5.26l132.55-12.53c.71,3.25,2.75,5.93,5.45,7.55Z"/>
            <path class="cls-3" d="M112.46,303.86c-.2,1.1-.25,2.24-.12,3.4.14,1.21.45,2.36.92,3.42l-158.43,99.99c-.36-.37-.74-.73-1.15-1.05L30.7,276.15l81.76,27.7Z"/>
            <path class="cls-3" d="M118.7,316.4c1.48.75,3.14,1.19,4.88,1.25l27.93,248.22c-1.98.53-3.74,1.54-5.15,2.91L12.48,466.34l106.22-149.93Z"/>
            <path class="cls-3" d="M-43.03,423.86c.92-1.92,1.34-4.1,1.08-6.37-.14-1.23-.46-2.39-.94-3.46l158.02-100.42c.24.28.49.54.75.79L9.74,464.24l-52.77-40.38Z"/>
            <path class="cls-3" d="M-54.05,430.51c.58.02,1.17.02,1.77-.05,2.93-.33,5.48-1.72,7.32-3.73l52.71,40.33-92.11,130.02,30.31-166.57Z"/>
            <path class="cls-3" d="M803.67,379.82c1.57,2.4,3.97,4.17,6.76,4.92l-23.07,196.76c-.31.01-.63.02-.95.06-1.62.18-3.12.68-4.45,1.44l-110.8-142.54,132.5-60.64Z"/>
            <path class="cls-3" d="M791.99,582.3c-.39-.15-.8-.28-1.21-.39l2.99-25.51,20.08-171.26c.31-.01.63-.02.95-.06,3.54-.4,6.53-2.34,8.38-5.07l66.38,31.95-97.58,170.34Z"/>
            <path class="cls-3" d="M801.83,374.74c.08.67.22,1.32.4,1.94l-133.24,60.98-85.7-110.26c.21-.56.38-1.13.5-1.71l134.61,29.01,83.4,17.97c-.04.68-.04,1.37.04,2.07Z"/>
            <path class="cls-3" d="M589.49,474.04c-1.86-2.73-4.82-4.59-8.17-5.03l-.94-60.35-1.18-75.88c.84-.61,1.6-1.33,2.25-2.13l84.32,108.48-76.27,34.91Z"/>
            <path class="cls-3" d="M569.65,334.72c1.27.3,2.6.4,3.97.24.75-.08,1.47-.24,2.16-.46l1.15,73.96.94,60.62c-2.1.35-3.99,1.23-5.53,2.51l-66.48-58.21,63.78-78.67Z"/>
            <path class="cls-6" d="M1721.59,371.93l-43.86-161.57c3.9-2.27,6.31-6.68,5.77-11.45-.72-6.44-6.53-11.07-12.96-10.34-4.66.52-8.36,3.72-9.78,7.88l-218.93-19.37c-.97-6.16-6.62-10.53-12.88-9.83-6.44.72-11.07,6.53-10.34,12.96.2,1.79.81,3.44,1.7,4.87l-144.73,118.22c-2.39-2.1-5.62-3.23-9.03-2.85-4.61.52-8.28,3.65-9.73,7.75l-268.22-46.41c0-.45-.02-.9-.07-1.36-.72-6.44-6.53-11.07-12.96-10.34-6.44.72-11.07,6.53-10.34,12.96.17,1.49.62,2.87,1.27,4.12l-144.38,98.3c-2.45-2.64-6.06-4.14-9.92-3.71-4.53.51-8.15,3.54-9.66,7.53l-218.55-47.1c0-.07,0-.13-.01-.2-.72-6.44-6.53-11.07-12.96-10.34-5.68.64-9.94,5.23-10.37,10.72l-132.36,12.51c-.97-6.16-6.62-10.53-12.88-9.82-3.69.41-6.78,2.5-8.61,5.42L103.61,171.19c.71-1.75,1.01-3.7.78-5.71-.72-6.44-6.53-11.07-12.96-10.34-6.44.72-11.07,6.53-10.34,12.96.16,1.41.57,2.72,1.17,3.91L-17.05,248.19c-2.41-2.22-5.73-3.42-9.24-3.03-6.44.72-11.07,6.53-10.34,12.96.55,4.87,4,8.7,8.44,9.96l-26.46,139.04c-.08,0-.17,0-.25.02-6.44.72-11.07,6.53-10.34,12.96.52,4.63,3.68,8.32,7.81,9.75l-33.1,181.89,4.05-5.71,229.69-25.84c1.46,5.53,6.78,9.3,12.63,8.64,4.87-.55,8.7-4.01,9.97-8.45l172.69,22.44c0,.36.03.73.07,1.1.72,6.44,6.53,11.07,12.96,10.34,6.44-.72,11.07-6.53,10.34-12.96-.1-.91-.32-1.78-.61-2.61l208.99-111.28c2.39,3.36,6.48,5.36,10.87,4.87,3.41-.38,6.3-2.2,8.17-4.78l187.43,101.7c-.6,1.65-.85,3.46-.65,5.32.72,6.44,6.53,11.07,12.96,10.34,6.44-.72,11.07-6.53,10.34-12.96-.02-.21-.07-.42-.1-.63l265.83-86.46c2.13,4.28,6.77,7,11.8,6.43,2.58-.29,4.87-1.41,6.64-3.05l129.22,103.9c-1.24,2.11-1.84,4.61-1.54,7.23.72,6.44,6.53,11.07,12.96,10.34,4.42-.5,7.98-3.39,9.55-7.23l146.65,35.7c-.07.78-.06,1.57.03,2.38.72,6.44,6.53,11.07,12.96,10.34,6.44-.72,11.07-6.53,10.34-12.96-.05-.42-.12-.82-.2-1.22l253.64-97.08c2.24,3.98,6.71,6.44,11.53,5.9,6.44-.72,11.07-6.53,10.34-12.96-.46-4.11-3.01-7.48-6.46-9.19l47.72-148.28c1.21.26,2.48.34,3.78.2,6.44-.72,11.07-6.53,10.34-12.96-.72-6.39-6.44-10.99-12.81-10.35ZM1665.96,210.35l-45.02,98.35-179.55-126.14c.21-.65.37-1.32.46-2.01l20.57,1.82,197.72,17.49c-.02.55,0,1.11.06,1.67.43,3.83,2.67,7.01,5.77,8.82ZM1286.88,590.49l253.41-116.46c.33.51.7.99,1.11,1.44l-143.29,173.7c-2.13-1.29-4.69-1.92-7.35-1.62-3.05.34-5.69,1.84-7.55,3.99l-96.32-61.06ZM1439.82,185.67l179.66,126.22-66.13,144.47c-1.44-.42-2.99-.57-4.57-.39-.5.06-.99.16-1.47.27l-109.56-268.32c.79-.66,1.48-1.42,2.07-2.25ZM1561.75,466.31c-.09-.79-.26-1.56-.49-2.29l149.17-73.85-122.8,102.9-27.16-19.97c1.07-2.01,1.56-4.36,1.29-6.79ZM1584.9,495.35l-179.59,150.5,138.74-168.19c2.13,1.29,4.69,1.92,7.35,1.62,2.77-.31,5.19-1.56,7.01-3.4l26.49,19.47ZM1283.41,588.29l-31.66-20.07c.82-1.84,1.18-3.91.94-6.06-.02-.16-.05-.32-.08-.47l272.71-84.57-241.91,111.17ZM1279.68,590l-47,21.6c-1.13-1.72-2.69-3.12-4.51-4.05l10.84-32.54c1.08.19,2.2.24,3.34.11,3.05-.34,5.69-1.84,7.55-3.99l29.77,18.87ZM1214.92,609.4l-129.22-103.9s.05-.09.08-.14l143.83,55.54c-.28,1.24-.37,2.54-.22,3.88.46,4.07,2.95,7.42,6.35,9.14l-10.84,32.54c-1.08-.19-2.2-.24-3.34-.11-2.58.29-4.87,1.41-6.64,3.05ZM1065.88,493.01l-171.49-82.55,78.81-137.58c1.55.51,3.23.71,4.96.52.78-.09,1.53-.25,2.25-.48l89.15,216.61c-1.48.88-2.74,2.08-3.69,3.49ZM1132.45,441.66l-49.78,48.6c-2.32-1.76-5.28-2.67-8.4-2.32-.52.06-1.01.16-1.5.28l-89.24-216.82c.07-.05.14-.1.2-.15l148.71,170.41ZM1134.72,444.26l97.41,111.62c-.48.56-.9,1.17-1.27,1.81l-143.83-55.53c.28-1.24.37-2.54.22-3.88-.23-2.08-1.01-3.97-2.15-5.56l49.63-48.47ZM1137.19,441.84l123.42-120.52c1.25.98,2.69,1.7,4.26,2.12l-4.41,41.4-19.9,186.93c-.27.01-.55.02-.82.05-1.85.21-3.54.85-5.01,1.79l-97.53-111.76ZM1277.29,319.06l65.01,35.87-97.66,197.38c-.22-.07-.43-.13-.65-.19l20-187.85,4.31-40.46c.29-.01.58-.02.88-.05,3.38-.38,6.25-2.17,8.12-4.71ZM1345.32,356.6l193.79,106.94c-.62,1.67-.89,3.51-.67,5.4.02.16.05.32.08.47l-286.92,88.98c-.89-1.84-2.23-3.4-3.87-4.54l97.6-197.25ZM1346.85,353.51l80.75-163.19c1.27.3,2.6.4,3.97.24,1.13-.13,2.19-.42,3.19-.83l109.36,267.82c-1.3.77-2.43,1.78-3.34,2.97l-193.93-107.01ZM1622.35,313.9l90.43,63.53c-1.34,2.16-1.99,4.76-1.69,7.47.04.34.1.67.16,1l-151.53,75.03c-.87-1.25-1.97-2.31-3.24-3.14l65.86-143.89ZM1669.28,542.27c-1.04-.17-2.12-.22-3.22-.09-2.76.31-5.19,1.56-7.01,3.4l-68.56-50.4,123.66-103.63c.84.91,1.82,1.68,2.9,2.28l-47.77,148.44ZM1402.28,653.44c-.07-.13-.15-.24-.23-.36l185.72-155.63,69.24,50.9c-1.07,2.01-1.56,4.36-1.29,6.79.05.42.12.82.2,1.22l-253.64,97.08ZM1234.55,619.08c.07-.78.06-1.57-.03-2.38-.08-.68-.22-1.33-.4-1.96l49.03-22.53,98.2,62.25c-.05.11-.11.22-.15.33l-146.65-35.7ZM798.2,587.99c-.78-1.56-1.88-2.92-3.23-3.98l97.7-170.55,171.71,82.65c-.47,1.5-.64,3.12-.46,4.79.02.21.07.42.1.63l-265.83,86.46ZM119.7,295.04c-2.68,1.06-4.85,3.05-6.13,5.55l-81.11-27.48,55.24-95.73c1.52.73,3.21,1.13,4.97,1.14l27.03,116.53ZM356.16,592.54c-.47-.28-.95-.53-1.46-.74l61.19-243.39c.69.05,1.4.04,2.11-.04,2.17-.24,4.12-1.07,5.74-2.3l77.35,67.72-144.94,178.75ZM344.54,592.36l-83.76-109.86,149.17-136.21c.79.56,1.66,1.02,2.57,1.37l-61.16,243.29c-.81-.08-1.63-.08-2.47.01-1.58.18-3.04.66-4.35,1.38ZM258.68,479.75l-126.28-165.63c1.4-1.44,2.42-3.24,2.93-5.21l269.73,29.25c.27,2.18,1.13,4.13,2.38,5.75l-148.77,135.84ZM256.13,482.08l-94.21,86.02c-1.94-1.58-4.37-2.52-6.98-2.62l-27.93-248.22c.94-.25,1.83-.6,2.65-1.05l126.47,165.87ZM12.48,466.34l106.22-149.93c1.48.75,3.14,1.19,4.88,1.25l27.93,248.22c-1.98.53-3.74,1.54-5.15,2.91L12.48,466.34ZM9.74,464.24l-52.77-40.38c.92-1.92,1.34-4.1,1.08-6.37-.14-1.23-.46-2.39-.94-3.46l158.02-100.42c.24.28.49.54.75.79L9.74,464.24ZM7.75,467.05l-92.11,130.02,30.31-166.57c.58.02,1.17.02,1.77-.05,2.93-.33,5.48-1.72,7.32-3.73l52.71,40.33ZM-46.31,409.62L30.7,276.15l81.76,27.7c-.2,1.1-.25,2.24-.12,3.4.14,1.21.45,2.36.92,3.42l-158.43,99.99c-.36-.37-.74-.73-1.15-1.05ZM428.3,338.34l132.55-12.53c.71,3.25,2.75,5.93,5.45,7.55l-63.04,77.74-77.1-67.51c1.11-1.53,1.86-3.33,2.13-5.26ZM665.77,439.14l-76.27,34.91c-1.86-2.73-4.82-4.59-8.17-5.03l-.94-60.35-1.18-75.88c.84-.61,1.6-1.33,2.25-2.13l84.32,108.48ZM505.86,413.39l63.78-78.67c1.27.3,2.6.4,3.97.24.75-.08,1.47-.24,2.16-.46l1.15,73.96.94,60.62c-2.1.35-3.99,1.23-5.53,2.51l-66.48-58.21ZM718.39,354.7l83.4,17.97c-.04.68-.04,1.37.04,2.07.08.67.22,1.32.4,1.94l-133.24,60.98-85.7-110.26c.21-.56.38-1.13.5-1.71l134.61,29.01ZM781.96,583l-110.8-142.54,132.5-60.64c1.57,2.4,3.97,4.17,6.76,4.92l-23.07,196.76c-.31.01-.63.02-.95.06-1.62.18-3.12.68-4.45,1.44ZM823.18,380.01l66.38,31.95-97.58,170.34c-.39-.15-.8-.28-1.21-.39l2.99-25.51,20.08-171.26c.31-.01.63-.02.95-.06,3.54-.4,6.53-2.34,8.38-5.07ZM590.87,484.45c.55-1.6.78-3.34.58-5.13-.08-.75-.24-1.48-.46-2.17l76.95-35.22,111.3,143.19c-.32.33-.61.69-.89,1.06l-187.48-101.72ZM359.62,595.66c-.24-.33-.51-.64-.78-.95l144.85-178.65,66.34,58.08c-1.47,2.22-2.21,4.94-1.89,7.79.09.83.28,1.63.53,2.4l-209.05,111.32ZM166.24,576.98c0-.36-.03-.73-.07-1.1-.22-1.94-.91-3.72-1.93-5.23l93.98-85.82,83.57,109.62c-1.34,1.38-2.34,3.09-2.87,4.97l-172.69-22.44ZM-83.82,602.28L10.49,469.15l133.78,102.37c-.88,1.58-1.39,3.37-1.45,5.26l-226.63,25.5ZM-24.77,268.54c.36,0,.73-.03,1.1-.07,4.51-.51,8.12-3.51,9.64-7.47l41.4,14.03-76.67,132.87c-.61-.24-1.24-.43-1.89-.56l26.41-138.79ZM84.23,174.85c.2.21.4.41.6.6l-55.7,96.53-42.42-14.37c.05-.69.04-1.39-.04-2.1-.19-1.69-.74-3.26-1.55-4.63l99.1-76.02ZM405.38,333.65c-.09.35-.17.7-.24,1.06l-129.44-14.04-140-15.18c-.01-.28-.02-.56-.05-.85-.71-6.31-6.31-10.87-12.59-10.36l-26.97-116.25c2.31-.69,4.3-2.06,5.76-3.86l303.53,159.48ZM968.51,269.97c.5.5,1.04.96,1.61,1.36l-78.84,137.63-66.6-32.06c.47-1.5.64-3.12.46-4.79-.15-1.36-.54-2.62-1.1-3.79l144.47-98.36ZM1256.15,311.6c-.03.6-.02,1.21.05,1.83.23,2.01.95,3.85,2.04,5.4l-123.32,120.41-148.72-170.42c.82-1.08,1.46-2.3,1.86-3.62l268.09,46.39ZM1422.54,187.72c.57.5,1.19.94,1.84,1.32l-80.55,162.8-64.93-35.83c.57-1.62.81-3.38.6-5.21-.2-1.79-.81-3.44-1.7-4.87l144.74-118.21ZM1674.51,211.63l43.74,161.14c-1.19.5-2.28,1.18-3.23,2.01l-91.2-64.07,45.36-99.09c1.27.3,2.62.4,3.99.25.46-.05.91-.14,1.35-.24Z"/>
          </g>
          <g class="cls-12">
            <path class="cls-3" d="M942.45,182.78l25.28-43.13c-1.03-.83-1.84-1.97-2.25-3.33-.07-.23-.13-.47-.17-.7l-157.87,6.51c0,.08-.03.17-.04.25l135.05,40.4Z"/>
            <path class="cls-3" d="M1034.25,214.52c-.06-.19-.1-.38-.14-.57l-98.23-5.21c-.18.87-.52,1.69-1.01,2.42l68.31,61.72,33.69-54.76c-1.21-.85-2.16-2.08-2.62-3.6Z"/>
            <path class="cls-3" d="M969.46,140.66l-25.03,42.71,89.93,26.9c.24-.68.58-1.32,1.02-1.89l-59.69-68.31c-.52.33-1.08.6-1.7.79-1.55.47-3.13.36-4.53-.2Z"/>
            <path class="cls-3" d="M809.97,350.08l-11.88-21.1-53.66-95.29c-.15.06-.3.12-.45.16-1.04.31-2.09.36-3.09.2l-26.39,82.16,93.68,35.98c.44-.81,1.05-1.53,1.79-2.11Z"/>
            <path class="cls-3" d="M746.49,232.44c-.1.09-.2.17-.31.25l53.92,95.77,11.61,20.62c.16-.06.32-.12.48-.17,1.89-.57,3.84-.28,5.42.65l26.48-34.13-97.62-82.98Z"/>
            <path class="cls-3" d="M924.26,212.1c-.72-.75-1.28-1.67-1.6-2.73-.03-.09-.04-.18-.07-.27l-173.78,18.5c-.05,1.19-.41,2.33-1.02,3.32l97.55,82.93,78.93-101.74Z"/>
            <path class="cls-3" d="M929.63,382.7c.63-.19,1.27-.28,1.9-.29l-3.22-168.27c-.87-.11-1.71-.39-2.47-.82l-78.98,101.81,80.7,68.61c.61-.45,1.3-.81,2.06-1.04Z"/>
            <path class="cls-3" d="M350.62,532.15c.36-.18.74-.34,1.14-.47,1.21-.37,2.45-.38,3.6-.09l25.74-53.99-118.58-62.14c-.19.26-.39.5-.61.73l88.72,115.96Z"/>
            <path class="cls-3" d="M347.94,534.65c.3-.48.65-.93,1.06-1.33l-88.68-115.91c-.41.23-.85.42-1.32.56-.88.27-1.78.35-2.64.26l-19.47,77.98,111.05,38.44Z"/>
            <path class="cls-3" d="M200.1,627.29l-37.01,33.35,51.55,38.43c.65-.74,1.45-1.34,2.39-1.75l-12.38-68.48c-1.68.05-3.29-.51-4.55-1.55Z"/>
            <path class="cls-3" d="M726.5,201.52l31.38.75,38.14-55.86c-.05-.05-.11-.09-.16-.14l-70.13,52.83c.22.4.4.83.53,1.28.12.38.19.76.24,1.14Z"/>
            <path class="cls-3" d="M498.94,319.01l91.46,68.64,72.72-83.68c-.6-.7-1.06-1.52-1.35-2.45-.04-.12-.06-.24-.09-.36l-161.93,14.99c-.06,1.01-.33,1.99-.81,2.87Z"/>
            <path class="cls-3" d="M674.23,302.88c-.83,1.47-2.21,2.64-3.95,3.17-.29.09-.58.15-.87.2l2.23,136.39s.1.02.14.03l40.23-125.28-37.78-14.51Z"/>
            <path class="cls-3" d="M922.47,206.22c.06-.35.15-.69.26-1.02l-116.54-59.82c-.84,1.18-2.06,2.1-3.56,2.56-1.71.52-3.46.33-4.95-.4l-37.41,54.79,162.2,3.89Z"/>
            <path class="cls-3" d="M1032.68,211.86l-89.3-26.72-9.92,16.92c1.03.83,1.84,1.97,2.25,3.33.14.44.22.89.26,1.34l96.7,5.12Z"/>
            <path class="cls-3" d="M933.52,212.65c-.67.56-1.47.99-2.35,1.26-.28.09-.57.15-.85.19l3.22,168.58c.57.17,1.12.42,1.63.73l66.94-108.79-68.59-61.97Z"/>
            <path class="cls-3" d="M936.72,384.72c.26.3.5.62.71.97l10.57-5.71,101.61-54.86c-.14-.29-.26-.59-.36-.91-.65-2.15-.19-4.36,1.05-6.04l-46.69-42.19-66.9,108.73Z"/>
            <path class="cls-3" d="M672.41,294.1l64.07-62.78c-.43-.6-.78-1.27-1.01-2.02-.69-2.28-.13-4.64,1.29-6.35l-13.28-14.89c-.53.35-1.12.63-1.76.83-1.45.44-2.92.37-4.25-.1l-45.13,85.26s.05.04.08.06Z"/>
            <path class="cls-3" d="M207.05,615.73c1.08.45,2.04,1.17,2.77,2.11l137.38-77.72c-.36-1.22-.35-2.47-.05-3.62l-110.75-38.34-29.35,117.56Z"/>
            <path class="cls-3" d="M665.78,444.22c.71-.63,1.56-1.12,2.53-1.42.44-.13.88-.22,1.32-.26l-2.22-136.25c-.99-.13-1.94-.48-2.78-1.01l-72.62,83.58,73.78,55.37Z"/>
            <path class="cls-3" d="M738.98,233.42c-.39-.19-.75-.42-1.1-.68l-64.07,62.78c.43.6.78,1.27,1.01,2.02.35,1.17.38,2.35.13,3.46l37.68,14.47,26.35-82.06Z"/>
            <path class="cls-3" d="M724.97,206.72l13.28,14.89c.53-.35,1.12-.63,1.76-.83,1.71-.52,3.46-.33,4.95.4l11.56-16.94-30.08-.72c-.21,1.18-.72,2.29-1.48,3.2Z"/>
            <path class="cls-3" d="M746.63,222.31c.86.8,1.53,1.82,1.9,3.02.03.09.04.18.07.27l165.17-17.58-154.84-3.72-12.3,18.01Z"/>
            <path class="cls-3" d="M923.65,203.41c.84-1.18,2.06-2.1,3.56-2.56,1.55-.47,3.13-.36,4.53.2l9.67-16.5-130.6-39.07,112.84,57.93Z"/>
            <path class="cls-3" d="M141.04,677.82l18.89-17.03-71.55-53.35c-.27.27-.56.51-.88.74l46.06,68.08c.2-.08.4-.15.6-.22,2.53-.77,5.15,0,6.87,1.77Z"/>
            <path class="cls-3" d="M282.11,579.25l-71.31,40.34c.06.15.12.31.17.46,1.07,3.54-.87,7.26-4.34,8.44l12.35,68.32c1.39-.16,2.77.11,3.96.74l125.47-155.08c-.13-.16-.25-.33-.37-.51l-65.93,37.3Z"/>
            <path class="cls-3" d="M161.57,662.01l-19.36,17.44c.18.36.34.73.46,1.13.29.95.35,1.91.24,2.83l70.45,17.81c.06-.15.12-.31.19-.46l-51.98-38.76Z"/>
            <path class="cls-3" d="M154.14,475.47c-.83-.64-1.52-1.48-1.99-2.47l-126.96,38.54,81.03,49.42,47.91-85.49Z"/>
            <path class="cls-3" d="M165.01,471.33l69.97,24.22,19.42-77.8c-1.04-.43-1.96-1.11-2.68-2l-87.1,51.74c.08.2.15.4.22.6.33,1.09.37,2.19.17,3.24Z"/>
            <path class="cls-3" d="M664.49,445.76l-73.81-55.39-28.21,32.46c.6.7,1.06,1.52,1.35,2.45.23.76.31,1.53.28,2.28l99.83,19.3c.15-.38.33-.75.55-1.1Z"/>
            <path class="cls-3" d="M1038.67,219.03l-33.98,55.23,47.04,42.5c.61-.45,1.3-.82,2.08-1.05.26-.08.52-.14.77-.18l-13.72-96.16c-.75,0-1.49-.11-2.19-.33Z"/>
            <path class="cls-3" d="M381.96,475.79l22.08-46.3c-1.3-.85-2.32-2.13-2.8-3.73-.14-.47-.23-.94-.27-1.4l-137.32-11.36c-.05.23-.12.46-.2.69l118.52,62.11Z"/>
            <path class="cls-3" d="M807.5,354.07l-93.6-35.95-40.23,125.29c.69.39,1.31.89,1.83,1.5l132.56-86.49c-.15-.32-.29-.64-.4-.99-.34-1.13-.38-2.28-.16-3.36Z"/>
            <path class="cls-3" d="M926.14,385.17l-80.51-68.44-26.44,34.09c.68.73,1.21,1.62,1.52,2.64.3,1,.36,2.02.21,2.99l104.54,29.85c.19-.4.42-.78.68-1.13Z"/>
            <path class="cls-3" d="M161.23,476.23l42.21,139.05c.56-.08,1.11-.1,1.66-.05l29.39-117.73-70.14-24.28c-.67,1.29-1.75,2.35-3.13,3Z"/>
            <path class="cls-3" d="M414.55,423.06l49.22,1.1,26.51-102.12c-.25-.1-.48-.23-.72-.36l-76.76,97.51c.66.73,1.18,1.6,1.49,2.61.13.42.21.85.25,1.27Z"/>
            <path class="cls-3" d="M434.45,505.57l-51.58-27.03-25.66,53.82c.95.56,1.76,1.35,2.35,2.32l73.71-23.82c-.37-1.9.1-3.8,1.18-5.29Z"/>
            <path class="cls-3" d="M198.76,625.8c-.36-.54-.65-1.14-.84-1.79-.21-.68-.3-1.37-.3-2.04l-107.67-16.96c-.11.28-.23.56-.37.83l71.87,53.58,37.31-33.62Z"/>
            <path class="cls-3" d="M199.21,617.66c.62-.74,1.41-1.36,2.32-1.79l-42.21-139.05c-1.18.18-2.35.04-3.42-.37l-47.95,85.55,91.27,55.66Z"/>
            <path class="cls-3" d="M88.06,597.47c.93.81,1.66,1.88,2.05,3.15.21.69.3,1.38.29,2.06l107.54,17.28c.06-.2.14-.4.22-.6l-91.2-55.62-18.9,33.72Z"/>
            <path class="cls-3" d="M80.64,596.46c.31-.15.62-.28.96-.38,1.64-.5,3.32-.34,4.77.31l18.88-33.68-79.15-48.27,54.54,82.02Z"/>
            <path class="cls-3" d="M550.58,426.11c.28-1.64,1.16-3.14,2.48-4.19l-57.62-99.82c-.17.07-.34.13-.52.19-.9.27-1.82.35-2.71.26l-26.39,101.66,84.75,1.9Z"/>
            <path class="cls-3" d="M497.73,320.62c-.17.17-.36.33-.55.49l7.47,12.94,50.15,86.88c.17-.07.34-.13.52-.19,1.98-.6,4.03-.25,5.65.78l28.11-32.35-91.34-68.55Z"/>
            <path class="cls-3" d="M550.77,429.25c-.11-.38-.19-.75-.23-1.13l-85.23-1.91-20.41,78.64c.24.25.46.52.66.8l65.24-46.48,40.42-28.8c-.18-.35-.34-.72-.45-1.11Z"/>
            <path class="cls-3" d="M414.46,425.07c-.37,1.89-1.52,3.56-3.21,4.57l13.39,32.46,16.84,40.82c.59.13,1.16.34,1.69.62l20.08-77.37-48.79-1.09Z"/>
            <path class="cls-3" d="M435.93,504.07c.61-.45,1.3-.81,2.06-1.04.42-.13.84-.21,1.26-.25l-16.41-39.78-13.45-32.61c-1.2.3-2.41.26-3.53-.07l-22.12,46.4,52.19,27.35Z"/>
            <path class="cls-9" d="M1047.31,210.56c-1.09-3.61-4.9-5.64-8.51-4.55-.73.22-1.39.56-1.98.98l-59.62-68.24c1.45-1.71,2.04-4.09,1.34-6.4-1.09-3.61-4.9-5.64-8.51-4.55-2.7.82-4.52,3.16-4.8,5.8l-157.87,6.51c-.05-.23-.1-.47-.17-.7-1.09-3.61-4.9-5.64-8.51-4.55-3.61,1.09-5.64,4.9-4.55,8.51.14.45.32.88.53,1.28l-70.14,52.83c-1.72-1.69-4.29-2.42-6.77-1.67-3.61,1.09-5.64,4.9-4.55,8.51.44,1.46,1.34,2.66,2.49,3.51l-45.13,85.26c-1.32-.47-2.8-.54-4.25-.1-2.82.86-4.67,3.37-4.82,6.15l-161.93,14.99c-.03-.12-.05-.24-.09-.36-1.09-3.61-4.9-5.64-8.51-4.55-3.61,1.09-5.64,4.9-4.55,8.51.32,1.04.87,1.95,1.57,2.7l-76.74,97.48c-1.59-.95-3.55-1.25-5.47-.67-2.46.75-4.19,2.76-4.69,5.1l-137.28-11.35c-.03-.51-.12-1.03-.27-1.54-1.09-3.61-4.9-5.64-8.51-4.55-3.61,1.09-5.64,4.9-4.55,8.51.06.21.14.41.22.6l-87.1,51.74c-1.7-2.08-4.54-3.05-7.27-2.22-3.28,1-5.25,4.24-4.76,7.53l-128.67,39.06-3.48-2.12,59.55,89.57c-1.87,1.72-2.71,4.41-1.93,7.01,1.09,3.61,4.9,5.64,8.51,4.55.05-.01.09-.03.14-.05l46.14,68.2c-2.08,1.7-3.04,4.54-2.22,7.27,1.09,3.61,4.9,5.64,8.51,4.55,1.97-.6,3.46-2.01,4.24-3.74l70.59,17.84c-.04.78.04,1.57.28,2.36,1.09,3.61,4.9,5.64,8.51,4.55,3.61-1.09,5.64-4.9,4.55-8.51-.34-1.13-.95-2.1-1.73-2.87l125.32-154.89c1.65,1.14,3.78,1.54,5.85.91,3.51-1.06,5.52-4.7,4.62-8.21l73.6-23.78c1.49,2.83,4.83,4.31,8.01,3.34,3.61-1.09,5.64-4.9,4.55-8.51-.01-.04-.03-.07-.04-.11l105.93-75.47c1.72,1.78,4.36,2.57,6.89,1.8,2.16-.66,3.75-2.29,4.45-4.26l99.77,19.29c-.06.82.02,1.66.27,2.5,1.09,3.61,4.9,5.64,8.51,4.55,3.61-1.09,5.64-4.9,4.55-8.51-.08-.26-.17-.5-.28-.74l132.63-86.54c1.72,1.86,4.4,2.68,6.98,1.9,1.91-.58,3.38-1.93,4.17-3.6l104.54,29.85c-.15.97-.09,1.99.21,3,1.09,3.61,4.9,5.64,8.51,4.55,3.51-1.06,5.52-4.7,4.62-8.22l112.52-60.74c1.72,1.9,4.43,2.75,7.04,1.96,3.61-1.09,5.64-4.9,4.55-8.51-.81-2.67-3.11-4.48-5.72-4.79l-13.76-96.42c3.55-1.13,5.55-4.9,4.46-8.48ZM1049.26,324.21c.1.32.22.62.36.91l-101.61,54.86-10.57,5.71c-.21-.35-.45-.67-.71-.97l66.9-108.73,46.69,42.19c-1.24,1.68-1.7,3.89-1.05,6.04ZM797.68,147.53c1.49.72,3.24.92,4.95.4,1.49-.45,2.71-1.38,3.56-2.56l116.54,59.82c-.11.33-.2.67-.26,1.02l-162.2-3.89,37.41-54.79ZM933.54,382.69l-3.22-168.58c.28-.05.57-.11.85-.19.89-.27,1.68-.7,2.35-1.26l68.59,61.97-66.94,108.79c-.51-.31-1.05-.56-1.63-.73ZM933.46,202.07l9.92-16.92,89.3,26.72-96.7-5.12c-.04-.45-.13-.89-.26-1.34-.41-1.36-1.22-2.5-2.25-3.33ZM931.73,201.06c-1.39-.56-2.98-.67-4.53-.2-1.49.45-2.71,1.38-3.56,2.56l-112.84-57.93,130.6,39.07-9.67,16.5ZM913.77,208.02l-165.17,17.58c-.02-.09-.04-.18-.07-.27-.37-1.2-1.04-2.23-1.9-3.02l12.3-18.01,154.84,3.72ZM744.97,221.18c-1.49-.72-3.24-.92-4.95-.4-.64.19-1.23.48-1.76.83l-13.28-14.89c.76-.92,1.27-2.02,1.48-3.2l30.08.72-11.56,16.94ZM721.72,208.88c.64-.19,1.23-.48,1.76-.83l13.28,14.89c-1.42,1.71-1.98,4.07-1.29,6.35.23.75.58,1.42,1.01,2.02l-64.07,62.78s-.05-.04-.08-.06l45.13-85.26c1.32.47,2.8.54,4.25.1ZM667.41,306.29l2.22,136.25c-.44.04-.88.13-1.32.26-.97.29-1.82.79-2.53,1.42l-73.78-55.37,72.62-83.58c.84.53,1.78.88,2.78,1.01ZM671.78,442.68s-.1-.02-.14-.03l-2.23-136.39c.29-.05.58-.11.87-.2,1.75-.53,3.12-1.7,3.95-3.17l37.78,14.51-40.23,125.28ZM674.95,301.01c.25-1.11.23-2.3-.13-3.46-.23-.75-.58-1.42-1.01-2.02l64.07-62.78c.34.26.71.49,1.1.68l-26.35,82.06-37.68-14.47ZM740.89,234.04c1,.17,2.05.12,3.09-.2.15-.05.3-.11.45-.16l53.66,95.29,11.88,21.1c-.74.58-1.35,1.3-1.79,2.11l-93.68-35.98,26.39-82.16ZM812.2,348.91c-.17.05-.32.11-.48.17l-11.61-20.62-53.92-95.77c.1-.08.21-.16.31-.25l97.62,82.98-26.48,34.13c-1.58-.93-3.53-1.22-5.42-.65ZM747.78,230.91c.62-.99.97-2.13,1.02-3.32l173.78-18.5c.02.09.04.18.07.27.32,1.06.88,1.98,1.6,2.73l-78.93,101.74-97.55-82.93ZM925.85,213.33c.76.43,1.59.71,2.47.82l3.22,168.27c-.63,0-1.27.1-1.9.29-.77.23-1.46.59-2.06,1.04l-80.7-68.61,78.98-101.81ZM934.87,211.16c.49-.73.83-1.55,1.01-2.42l98.23,5.21c.04.19.08.38.14.57.46,1.52,1.41,2.76,2.62,3.6l-33.69,54.76-68.31-61.72ZM1035.38,208.38c-.44.57-.78,1.21-1.02,1.89l-89.93-26.9,25.03-42.71c1.39.56,2.98.67,4.53.2.62-.19,1.18-.46,1.7-.79l59.69,68.31ZM965.3,135.61c.05.23.1.47.17.7.41,1.36,1.22,2.5,2.25,3.33l-25.28,43.13-135.05-40.4c.01-.08.03-.16.04-.25l157.87-6.51ZM795.86,146.26c.05.05.11.09.16.14l-38.14,55.86-31.38-.75c-.05-.38-.12-.76-.24-1.14-.14-.45-.32-.88-.53-1.28l70.13-52.83ZM661.68,301.15c.03.12.05.24.09.36.28.93.75,1.76,1.35,2.45l-72.72,83.68-91.46-68.64c.47-.88.75-1.86.81-2.87l161.93-14.99ZM217.03,697.32c-.94.41-1.75,1.02-2.39,1.75l-51.55-38.43,37.01-33.35c1.26,1.04,2.88,1.6,4.55,1.55l12.38,68.48ZM381.1,477.61l-25.74,53.99c-1.15-.28-2.38-.28-3.6.09-.4.12-.78.28-1.14.47l-88.72-115.96c.22-.23.42-.48.61-.73l118.58,62.14ZM258.99,417.97c.47-.14.91-.33,1.32-.56l88.68,115.91c-.41.4-.76.84-1.06,1.33l-111.05-38.44,19.47-77.98c.86.08,1.76,0,2.64-.26ZM347.15,536.5c-.3,1.15-.31,2.4.05,3.62l-137.38,77.72c-.73-.94-1.69-1.66-2.77-2.11l29.35-117.56,110.75,38.34ZM205.1,615.24c-.54-.05-1.1-.03-1.66.05l-42.21-139.05c1.38-.65,2.46-1.72,3.13-3l70.14,24.28-29.39,117.73ZM155.89,476.45c1.07.41,2.24.55,3.42.37l42.21,139.05c-.91.43-1.7,1.05-2.32,1.79l-91.27-55.66,47.95-85.55ZM198.16,619.37c-.08.19-.16.39-.22.6l-107.54-17.28c0-.68-.09-1.38-.29-2.06-.39-1.27-1.11-2.34-2.05-3.15l18.9-33.72,91.2,55.62ZM86.37,596.39c-1.45-.65-3.13-.81-4.77-.31-.33.1-.65.23-.96.38l-54.54-82.02,79.15,48.27-18.88,33.68ZM89.95,605.01l107.67,16.96c0,.67.09,1.36.3,2.04.2.65.49,1.25.84,1.79l-37.31,33.62-71.87-53.58c.14-.27.26-.54.37-.83ZM357.22,532.35l25.66-53.82,51.58,27.03c-1.08,1.49-1.55,3.39-1.18,5.29l-73.71,23.82c-.59-.97-1.4-1.76-2.35-2.32ZM443.17,503.53c-.53-.28-1.1-.49-1.69-.62l-16.84-40.82-13.39-32.46c1.69-1,2.85-2.68,3.21-4.57l48.79,1.09-20.08,77.37ZM405.86,430.32c1.12.33,2.33.36,3.53.07l13.45,32.61,16.41,39.78c-.42.05-.84.13-1.26.25-.77.23-1.46.59-2.06,1.04l-52.19-27.35,22.12-46.4ZM445.56,505.65c-.2-.29-.42-.55-.66-.8l20.41-78.64,85.23,1.91c.05.38.12.75.23,1.13.12.39.28.76.45,1.11l-40.42,28.8-65.24,46.48ZM494.92,322.29c.18-.05.35-.12.52-.19l57.62,99.82c-1.32,1.05-2.19,2.54-2.48,4.19l-84.75-1.9,26.39-101.66c.88.09,1.8.02,2.71-.26ZM555.32,420.74c-.18.05-.35.12-.52.19l-50.15-86.88-7.47-12.94c.19-.15.38-.32.55-.49l91.34,68.55-28.11,32.35c-1.62-1.03-3.66-1.38-5.65-.78ZM489.56,321.68c.23.13.47.26.72.36l-26.51,102.12-49.22-1.1c-.04-.42-.13-.85-.25-1.27-.3-1-.83-1.88-1.49-2.61l76.76-97.51ZM400.97,424.36c.04.47.13.94.27,1.4.48,1.6,1.5,2.88,2.8,3.73l-22.08,46.3-118.52-62.11c.08-.22.15-.45.2-.69l137.32,11.36ZM251.72,415.75c.72.88,1.64,1.57,2.68,2l-19.42,77.8-69.97-24.22c.2-1.05.16-2.15-.17-3.24-.06-.21-.14-.41-.22-.6l87.1-51.74ZM152.15,472.99c.47.99,1.16,1.83,1.99,2.47l-47.91,85.49-81.03-49.42,126.96-38.54ZM87.51,608.18c.32-.22.61-.47.88-.74l71.55,53.35-18.89,17.03c-1.72-1.77-4.34-2.54-6.87-1.77-.21.06-.41.14-.6.22l-46.06-68.08ZM142.92,683.42c.12-.92.05-1.89-.24-2.83-.12-.4-.28-.77-.46-1.13l19.36-17.44,51.98,38.76c-.07.15-.13.3-.19.46l-70.45-17.81ZM222.94,697.54c-1.19-.63-2.57-.9-3.96-.74l-12.35-68.32c3.47-1.18,5.42-4.9,4.34-8.44-.05-.16-.11-.31-.17-.46l71.31-40.34,65.93-37.3c.12.18.24.35.37.51l-125.47,155.08ZM564.11,427.56c.03-.75-.05-1.52-.28-2.28-.28-.93-.75-1.76-1.35-2.45l28.21-32.46,73.81,55.39c-.22.35-.4.72-.55,1.1l-99.83-19.3ZM675.49,444.9c-.52-.61-1.14-1.11-1.83-1.5l40.23-125.29,93.6,35.95c-.22,1.08-.19,2.23.16,3.36.11.35.24.67.4.99l-132.56,86.49ZM820.92,356.45c.15-.97.09-1.99-.21-2.99-.31-1.02-.84-1.91-1.52-2.64l26.44-34.09,80.51,68.44c-.26.35-.49.73-.68,1.13l-104.54-29.85ZM1053.81,315.71c-.77.23-1.46.6-2.08,1.05l-47.04-42.5,33.98-55.23c.7.23,1.44.34,2.19.33l13.72,96.16c-.26.05-.52.1-.77.18Z"/>
          </g>
          <g class="cls-7">
            <path class="cls-4" d="M811.75,156.91c75.12-138.55,248.33-189.97,386.89-114.84,138.54,75.12,189.97,248.34,114.84,386.89-75.12,138.55-248.34,189.96-386.88,114.84-138.56-75.13-189.97-248.34-114.85-386.89Z"/>
          </g>
          <g class="cls-2">
            <path class="cls-4" d="M19.89,658.19c7.04-12.98,23.27-17.8,36.25-10.76,12.98,7.04,17.8,23.27,10.76,36.25-7.04,12.98-23.27,17.8-36.25,10.76-12.98-7.04-17.8-23.27-10.76-36.25Z"/>
          </g>
          <g class="cls-2">
            <path class="cls-4" d="M841.48,138.58c7.04-12.98,23.27-17.8,36.25-10.76,12.98,7.04,17.8,23.27,10.76,36.25-7.04,12.98-23.27,17.8-36.25,10.76-12.98-7.04-17.8-23.27-10.76-36.25Z"/>
          </g>
          <g class="cls-2">
            <path class="cls-4" d="M258.51,278.9c3.42-6.31,11.3-8.65,17.61-5.23,6.31,3.42,8.65,11.3,5.23,17.61-3.42,6.31-11.3,8.65-17.61,5.23-6.31-3.42-8.65-11.3-5.23-17.61Z"/>
          </g>
          <g class="cls-2">
            <path class="cls-4" d="M954.79,572.16c3.42-6.31,11.3-8.65,17.61-5.23,6.31,3.42,8.65,11.3,5.23,17.61-3.42,6.31-11.3,8.65-17.61,5.23-6.31-3.42-8.65-11.3-5.23-17.61Z"/>
          </g>
          <g class="cls-2">
            <path class="cls-4" d="M335.78,664.74c3.42-6.31,11.3-8.65,17.61-5.23,6.31,3.42,8.65,11.3,5.23,17.61-3.42,6.31-11.3,8.65-17.61,5.23-6.31-3.42-8.65-11.3-5.23-17.61Z"/>
          </g>
          <g class="cls-2">
            <path class="cls-4" d="M713.55,376.76c3.42-6.31,11.3-8.65,17.61-5.23,6.31,3.42,8.65,11.3,5.23,17.61-3.42,6.31-11.3,8.65-17.61,5.23-6.31-3.42-8.65-11.3-5.23-17.61Z"/>
          </g>
        </g>
      </g>
    </g>
  </g>
</svg>